<svg xmlns="http://www.w3.org/2000/svg" xmlns:xlink="http://www.w3.org/1999/xlink" width="1200" height="379" viewBox="0 0 1200 379">
    <defs>
        <path id="a" d="M0 0h1200v379H0z"/>
    </defs>
    <g fill="none" fill-rule="evenodd">
        <mask id="b" fill="#fff">
            <use xlink:href="#a"/>
        </mask>
        <use fill="#E5F7FF" transform="matrix(-1 0 0 1 1200 0)" xlink:href="#a"/>
        <g fill="#D1F0FD" fill-rule="nonzero" stroke="#D1F0FD" stroke-width=".5" mask="url(#b)">
            <path d="M806.734 250.801l1.442 4.797-1.509 3.414-4.187-.304-8.338 5.862-2.265 3.634.033 2.889 1.58 3.953.322.61.528 1.436.102.81-.287 2.399-.668 4.984 6.079 5.913 2.438 1.488.356.153 1.999-.102.643-.186.05-.287.344-.203.274-.067 1.797.37 1.434.694 2.108 2.314 1.135 6.048-2.239 3.11-.64 3.885-10.469 13.888-3.426 4.039-1.597 1.756-.488.506-6.122 4.647-2.201-.473-1.037-.439-.812-.05-1.595.929-.97 2.044-2.843 12.942.085.067-.136.085-.694.407-.515.237-.774-.07-6.603-1.942-.926-.37-1.463-.862-1.31-.93-3.863-1.993-9.413-4.31-2.56-1.401-.86-1.656-5.957-6.405-.39-1.265.219-.997-.76.1-.607-.136-5.578-3.9-.34-.323-1.357-3.869-.103-3.329.475-1.892 1.037-1.014 3.285-2.653 1.999-4.257.067-.168.364-1.064-2.549-3.463-1.199-1.421-.228-7.468.97-2.262.202-1.37-2.05-1.166-.321-.133-.455-.069-6.838 3.311-2.287 1.504.794.996-1.284 3.108-7.793 6.03h-1.197l-.803-.084-1.535-.337-.397-.321-1.983-.05-1.8.1-.116 1.217.018.522-.522.899-.593.894-5.631 7.064-1.205.59-.845-.371-1.68-1.554-2.715-3.31-.203-1.067.15-.827-.624.033-.37.505-1.158 3.346-.406 1.437-.675 2.482-.717 3.634-2.678-.288-2.632-.88-8.557-5.592-3.616-2.905-.693-.978-.648-1.405-.559-1.994-.134-2.568-.168-.743-.667-1.637-1.248-3.007-.55-.948-1.567-1.758-3.733-2.77-1.375-1.266-.937-1.317-1.182-2.046-1.224-2.956-2.91-6.269-.837-1.539-3.764-5.438-2.878-2.079-5.665-2.45-3.022-.406-3.309.052-5.8-.085-5.096-.339-1.613.05-1.343.236-.423-4.172-.27.067-2.362 1.184-.507.185-.742-.017-.583-.238-1.671-1.367-3.039-2.485-1.493-2.112-1.03-2.736-.517-1.758-2.134-5.118-3.326-5.29-.59.085-.507-.085-.084-.339 2.404-1.992 1.882-1.047 1.532-.321 3.983.946.76.522.7.777 1.044.155 1.344-.356.81-.338.397-.305.405-.455.355-.61.236-.91.272-1.066.017-.404-.053-.49-.166-.574-5.149-10.645-.381-.473-1.097-.337-.414-.085-1.52.302-.632.406-2 1.317-.829-.523-1.73-1.113-.237-.288-.85-1.624-1.637-4.46-.162-.76.034-.272.38-.964 1.695-3.58 1.03-2.18.153-.677.49-5.575.084-1.15v-.319l-.37-.084.288-.237v-.473l-.1-.93-.203-.676-.438-.828-.592-.76-.27-.203-.48-.136-6.069-.016-1.209.085-3.883.287-1.618 1.589-1.006 1.198.084.1.776.188.229.017.135-.102.05.035-.083.186-.185.203-.246.1-.575.069-.639-.085-7.09-3.734-.896-.608-.868-1.657-.171-.843.088-1.181.402-2.298.356-1.287.55-1.401.32-.608.168-.187 1.46-.76.101 1.452 1.964 1.402.897-.085.27-.1 4.162-2.535.203-.166.133-.339v-1.453l-.034-.287-.1-.88.859-3.852 10.585-1.84 2.068.22 2.203 1.046 1.748-.473 2.002-.91 1.745-.913 8.738-7.384.22-.235 1.03-1.707.272-1.758-.035-.558-.335-1.248-2.02-4.495-10.239-14.563-4.752-6.758-1.882-1.133-2.896-1.366-1.882-1.859-.55-.693-3.52-9.157-1.24-6.047-1.391-2.907-.186-.252-3.597-4.259-3.375-3.766-.051-.322.618-5.778 2.37-5.373 2.921.053 1.098.134.658.302 1.916 1.319 8.686-.456 1.122-.185 1.215-.136.851.051 6.508.438 4.323.37.902.27.406.17 4.954 2.298 1.41 1.015-.058.337.701.424 1.115.642 1.41.152 2.63.185 2.088-.56 2.166.019.642.12 1.156.386 4.71 1.962 3.327 1.538.436 1.013-.59.762-.336.625.05.676.234.71 1.083 2.838 7.51.743 1.614-.154 2.331-2.061.286-.288.118-1.013 4.167-.812 1.75.76 2.17-.876 2.135-.593 1.475-.694 8.206-7.314.752-.153 3.443 1.233-.65 1.047-1.645 3.025 6.837 2.806 5.293 2.162 9.426 10.68 1.614.861 1.434.405.82.084h.152l.168-.185 2.575-5.56-.137-.337.287-.794.281-.49.168-.135 1.687 1.047 2.769 1.876 1.711 3.142 5.395 16.93-.1 3.462-.27 4.85-.04 8.6-.07.709-2.675 4.597-.303.42-1.006 1.167-1.662 1.401-2.556 1.488-4.12 2.113-2.804 1.384-.658.153-.385-.27-.292-.388-.985-.034-.522.118-.425.235-.185.22 1.132 2.248.437.743.583.642.776.473.439.117 3.19-.49 1.089-.236.49-.287 3.024-1.335v-.116l1.215-.408 8.155-1.943 6.109-1.199.573-.1.829-.02.752.138 2.37 1.553 1.072.862 2.272 2.248-.735 1.266-1.671 2.518.287.962 1.2 6.017-1.984 1.673-.895 1.807-.203.98 2.152 2.84.54-1.963 3.697-8.092.733-.81 7.286-3.6 1.644-.32.888-.034.996.17 1.897.522 2.719.777 19.855 9.919 1.158.656 2.37 1.522.591.522.767 1.165.372.828-.103.086.186.457 3.258 3.513.676.557.388.221.903.254.993-.017 4.265-.203.626-.085.86-.27 1.191-.49.845-.507 2.968-2.4 1.158-1.182 1.83-2.18 2.812-2.484 4.019-3.092 1.897-.49 13.026-.592-.405 5.711-.735 1.283-.102.507.235 3.7.972 10.73 1.188 9.055-.05.167-.133.119-4.163 3.395-1.044.743-5.155 3.618-4.747 4.374-4.18 5.256-.706.591-.795.491-.8.302-3.563-.64-.505-.137-.758-.54-5.04 5.371-.424.441-.27.558-.279.964-.1.76.017.456.168.811 1.106 2.67.937 1.757.609.964.675.861.37.356.837.524.723.119h3.024l.37-.051 1.409-.355.508.067.825.388.651.54.505.659.32.83.018.304-.218 1.672.2 1.267.836.357.488.065.661.035zM561.365 85.003l-1.78 4.578-1.458 4.14-.474 2.263-.398 3.244-.336 3.804-1.014 14.63-.018 1.133.878 2.027.506.659.205-.069.175-.288.034-.658.388-12.485-.219-.371-.222-.743v-.27l.254-2.4.693-2.214.406-.524 3.394-2.212.967.844.187.253 2.304 1.299 2.235 1.624.744.252h.345l4.375-2.23 2.792-2.332-.134-.119-.559-.135-.844-.085-3.442.136-.853-.136-.44-.152-2.943-2.634-.069-.068-2.615-2.687-.658-9.51 1.815-3.616.81-1.032 1.528-1.216.152-.086 1.933-.456 2.034-1.269 2.497-4.898-.033-.134-.176-.153-3.385-1.403-.92-.27-.539-.034-.287.1-.821.525-.219.219-.675 1.1-3.038 7.162-.591 1.502-2.49 5.395zm13.464 34.282l-.819-.017-3.099.59-.902.336-.675.526-.87.895-.64 1.149-.844 2.03-.126 1.318.144.676.268.489.323.27 6.39 3.143 1.324.371 1.546.1 5.208.204.674-.034.34-.152 2.955-6.183-.955-3.819-.236-.44-1.46-1.014-1.765-.625-.725-.166-.473-.118-1.14-.087-1.325.473-.506.205-2.612-.12zm-17.623 14.496l.016.355.48 1.232 1.952 3.143 1.03 1.588 1.171 1.808.272.134.558.086 1.814-.016.118-.035 1.899-.928.185-.203.482-1.2-.067-.168-.136-.069-1.908-.963-1.654-2.55-2.018-5.644-.227-1.182.278-.794.44-.812 1.628-1.605-.136-.169-.26-.085-.642.29-3.916 3.563-.505.659-.599 1.487-.068 1.335-.187.743zm27.541 5.778l5.83-1.454.76-.455.552-.71.302-.965.289-1.622-.272-.134-10.036 3.936-2.631 1.082-.235.66.083.236 1.68 1.368 3.678-1.942zm-6.82 8.227l-.422.051-.32.272.084.286.405.626.27.203 2.566 1.908.455.304 1.36.017.829-.236.185-.337-.018-.71-1.199-1.84-.175-.27-.171-.119-.522-.153-1.055.303-2.272-.305zm8.82 13.975l.879.792.498.154 1.065-.051 1.628-.338 1.393-.405.39-.235.555-.627 1.764-3.902.955-2.249.136-2.363-.37-.22-.99-.168-.893.118-3.548 1.115-.504.152-4.13 1.723-.588.303-.34.438-.083.424.047 1.826.205.777.236.503.37.508.22.168 1.106 1.557zm24.302-4.294l-5.022 3.261-.66.812v.436l-.017 4.125 1.082.844.937.473 1.24.287 3.47.338 1.458-.015 2.036-1.692.886-1.1.134-.183 2.388-3.668.05-.252-.387-2.08-.504-.571-1.496-.34-3.58-.137-2.015-.538zm211.394-1.165l-.75-.253-.303-.289-.154-.252-.252.1-.524.408-1.258 1.433-.969 1.352-.571.999-1.115 2.483-.552 1.587-.15.524-.49 5.442.202.894.219.322 2.508 1.69.396.186.626.1.083-.084-.083-.069-.034.069h-.1l-.628-.22-1.524-.966.016-.996.305-.287 3.694-1.303 1.68.544.627.27.656.27.213.422.456 1.336-.137 1.487-.235 2.043 8.086 1.503 12.458.119.11-.034.051-.152-.069-.946-2.008-4.324-1.654-3.498-5.023-7.688-5.156-2.688-8.647-1.534zm-229.56 79.73l-.285-.185-.558-.574-.804-.981.017-.64.186-.777.332-.676.27-.371.352-.337.323-.203.402-.17.398-.033.49.407.033.1-.236 4.074-.463.32-.457.046zm-75.461-25.597l1.882-.185.119.98-1.385 2.431-1.173-.1-.455-.1-1.41-2.583.067-.39.851-.592.695-.236.809.775z"/>
            <path d="M575.443 308.502l-1.457-3.48-1.879-4.834-.019-3.228v-2.027l.1-1.048 6.009-18.147.833-2.215 1.644-4.19 3.496-4.578 1.339-1.269 2.883-.861 2.046-.523L592.2 262l-.049.863.1.49.235.491 2.334 2.839 4.5 3.31 1.542 1.082 1.02.473 1.178.323 2.48.32 8.086.658 2.605-.523.463-.168.102-.12.018-.236.454-.166 3.32-.71.841.051 3.42.827-.773-1.014-1.22-3.143-.659-1.961 1.296-.59 1.425-.492 1.34-.235 1.608-.052 5.092.34 5.787.084 3.302-.051 3.017.407 5.655 2.449 2.873 2.08 3.757 5.441.835 1.538 2.905 6.268 1.223 2.958 1.18 2.046.934 1.317 1.371 1.266 3.726 2.771 1.567 1.757.548.947 1.248 3.008.663 1.638.169.744.135 2.552.557 2.012.648 1.403.692.98 3.607 2.906 8.542 5.592 2.63.88 2.67.288 4.296.592v4.51l-.488 3.548 1.323 1.37 1.523 3.564.118.946 5.437 5.611.403-.185 1.323-1 2.048-2.28.403-.252.522.354 1.188 1.47 3.369 3.212 2.521 2.11.674-.049 4.49-3.311.287-1.451.962-2.081.885-1.181 2.806 1.671.818.929.59.813 2.805 3.21 4.053 3.835.706.474.608.135 5.116.221.59-.085.293-.203.387-.406.963-2.383.303-.438.395-.407.591-.318 3.538-1.945.303-.152.235-.018 2.554 1.404 9.397 4.305 3.857 1.995 1.307.928 1.46.863.925.373 6.59 1.943.773.066.514-.235.693-.406.132-.085-.083-.067 1.054-.658 1.079-.389 1.675-.168 6.31-.033.321.134.364.237 1.627 1.283.993.946 1.949 2.351.8 1.047.556.88 1.745 1.586 1.06.643 4.238 1.622 1.365-.775 1.76-1.165 1.796-1.183.067-.44-.067-.151.625-1.202 2.206-1.722 4.113 1.063 2.856.761 3.892 8.89 3.641 7.081 1.827 2.484 1.072 1.083 4.566 3.397 1.864.455 1.424.337.9.087 1.247.692.234.37.069.576-.472 1.488-.102.32-.875.878-.868.32 5.672 2.282.983.491.91.64 1.492 1.625.338.455.287.56.05 2.314.048.54.118.321 1.828 2.215 4.76 4.9.457.252.37.067.732-.016 2.705-1.453 1.642-1.27.438-.252.615-.166 3.243-.912.649-.07.827.07.657.32.58.455 1.128 1.269 1.847 1.96.9.64 1.014.305 6.99 1.69.963.033.145.22-.02.137-3.95 5.812-.053.085-1.177-.118-1.036-.574-.606-.844-.135-.067-1.323.253-.54 1.131-.354 1.624-.921 5.12 1.275 2.99-1.374-.018-1.962.457-1.775 1.015-2.809 2.718-1.424 1.86-.235.253-9.073 4.445-1.798.49-5.026-.508-.507-.1-.167-.119-.067-.201v-.44l-.201-.505-.508-.524-1.185-1.234-6.21-1.216-14.763-.64-.54.049-.413.168-.523.609-.27 1.046-.064 1.2.15.728-.034.252-.322.676-4.54 4.952-9.663.254-4.264.877-3.287.93-.808 3.497-.034.32.354 3.634-.236.964-.134.911 4.195 11.491 4.163 3.075 5.94 8.498 4.459 8.67-.018.068-.287 3.497.54 2.146.54 1.216 1.204 2.062 2.099 2.688 2.905 3.377-2.773-.116-3.571 1.926-.993 2.485 1.363 2.94 7.211 9.224 2.066 1.287.505.084.362.168 1.23 1.065.983.963.085.627-.067 2.247-.083.286-1.29 1.032-1.794.83-.287.085-.897-.22-1.952 2.737.664 6.557.086.152 2.282 2.517 2.166 2.18 2.284 3.194.698 1.539.034.134-.051.1-.934 1.25-1.726.355-1.114.288-1.592.743-.522.34-.462.862-.658 1.673-.185 1.2.102.675.219.49.285.305.6.473 1.06.642.765.018 1.4-.187.27.033.095.119.167.573-.086 2.33-.26.442-1.895 2.836-2.991 2.45-3.235 2.315-.608 3.076-.489 4.936-.177-.154-2.719-.271-5.471.167-.827.154-1.49 1.064-.572.237-2.21.455-2.906.101-1.506-.355h-.407l-8.02.1-1.628.32-3.066.93-.168 1.522.252.708-.067.438-.084.237-2.823 2.787-6.705.71 2.686 3.802 5.95 4.478-2.031.676-1.205 1.76-.034.287.034 2.6 1.423.523 1.285.526.832 1.031.167.456.12 1.046v1.185l-.171.558-1.626 2.552-.287.203-.607.033-.615.255-3.42 2.838-.574.743-.234.81.019 5.527.42 4.51 1.121 2.35 1.643.912 4.802 7.116 1.492 3.564-.336.844.133 1.366.357 2.046.217.625 2.015 3.244.481.659.084.084.59.186-.169.287-1.844.255-.436-.07-3.32 8.84-1.476 2.822-7.277 1.858-3.88.491-.925-.49-1.93-2.876-.615-.403-1.18-.743-.664-.305-2.451-1.047-1.344-.438-.303.034-3.774.997-1.11 1.859-1.441 3.09.693.324.064.151-.368 1.301-.235.505-2.401 3.617-.228.17-4.13 3.327-12.79 8.687-8.467 1.722-10.619 6.187-4.904 3.312-.78.3-.338.1-.32-.216.571-.373.069-.22-.069-1.875-.54-.948-1.997-3.243-.454-.27-4.93.657-5.096.727-.289.067-.69.44-7.01 5.913-1.726 2.4 2.828 4.444 2.742-1.317.817-.033.117.236.117 2.178-.15.763-.431 1.892-3.7 1.91-.21-.37-5.358-2.654-8.435-3.532-2.756-.88-1.053-1.84-.808-1.252.118-.506.808-3.193.32-.694 1.71-2.703.82-.152 2.568-.423 2.045.085 1.187-1.826.155-.337-1.205-6.879-.556-2.534-.869-.963-3.292-5.627-.086-.252.017-.155.236-.505 3.874-4.343 2.434-.423.288-.574.936-1.27 1.163-.961 1.052.303h.17l.184-.271.521-1.335-.287-.642-.288-.304-1.304-.844-1.112-.928-2.268-2.484-.117-.17-5.433-2.787-1.544.034-5.097-.085-1.11-.152-1.156-.71-.49-.658-.066-.523.338-1.318.385-.862-.05-.608-.236-.355-.435-.087-5.218 1.151-.219-.136-.368.018-.935.304-.102.033-.725.388-.219.034-2.56.067h-.339l-.437-.117-.733-.541 1.373-11.559 2.883-8.902 1.98-4.868.034-5.44-2.83-2.837-.893-.525-2.359-.88-.709-.203-.336-.016-.987.355-.538.32-1.61 1.016.371-.237.816-3.87.236-1.623.067-.962-.538-2.08-.751-1.316-.1-.136-1.695-.913-.538-.084-.1.05-1.61.252-1.39-.777-9.017-6.538-1.003-2.45-.438-9.92.05-2.873.052-.388.74-1.065.801-.423.22-.186-1.458-2.534-2.149-1.96.456-3.548-.54-1.557-.842-.928-.363-.168-1.484-.524-5.517-1.066-5.503-4.24-3.052-4.057 3.66 1.928 2.316.033 3.167-7.856.1-.371-4.059-2.703-3.203-1.286-2.485-.692-.456-.186-.261-.203-.808-2.485 3.606-7.636 1.06-.728 1.627-1.08 1.545-.762 1.912-.27 1.253-.744 1.197-1.083.177-.22 1.281-2.465 2.376-4.869.303-.776.134-1.114-1.457-3.735 2.874-6.539-.086-.34-.335-1.08-4.316-1.963-3.723-.876-2.52 3.296-1.206 2.245-3.388 4.445-4.616 6.014-.302.118-8.147 1.827-10.726.1-2.931-1.268-.86-.625-.278-2.348-.389-12.187.43-2.144-.075-.491-.355-.911-1.162-1.116-3.386-2.653-9.411 4.9-4.912-2.414-4.955 3.818-.218 2.245-.313 2.097-.166.542-2.454 2.095-1.559.22-5.35.407-.792-.812.051-.302-.49-.493-3.773-.997-.698-.152-.658.424.79 1.721 1.038 5.12 8.308 6.27 3.47 2.687 2.487 7.384-.236 2.807.38 5.32-.767 1.557-1.779 7.114.137.37.869 1.624 1.248 1.098.445.186.572.033 1.928.627 1.981 1.03-1.021 1.353-.76.947-1.609 1.69-.37.303-.841.406-.58.101-1.03-.069-.27.101-3.523 2.35-.682.642-.54.777-.085.541.185.911.39 1.15-4.806-.507-3.892-1.42-4.658-1.014-.961-.118-2.2 1.64-2.712 2.6-6.412 4.647-2.545.592-3.606 2.247-.491-.996-1.744-.455-1.66-.238-2.434-.186-.271.018-3.621 2.771-.626.844-1.001 1.488-1.828-.694-2.874-1.218-1.641-.861-.39-1.606-2.24-3.667h-.438l.068-.22 1.494-1.132 5.887-1.96 5.08-1.556-.3-6.625-3.135-2.939-3.707-.71-.1-.049-1.963-1.405-.455-.775-.48-1.59-.27-1.232.018-.186 4.356-9.292 1.676-1.131-2.172-2.232-.257-.32-.114-.945.067-.744.151-.608 3.353-3.584-1.112-4.054-1.524-2.689-4.44-2.718-2.504.607-.42.27-2.115.946-3.52-.54-8.09-4.934-2.477-7.113-.843-1.792-.32-.422-.243-.254-7.34-2.89-.378-.169-1.247 1.557-.953 1.655-.605 1.284-.741 2.418 1.075.743 2.201 1.183-.202 1.082-2.872 5.085-3.691 1.843-.513.034-.423.05-2.704 1.554-6.705 4.141-5.925 4.392-.977.83-.547 1.098-.424.796-1.659.877-1.627.168-1.282.136-.648.928-1.407 1.658-7.988-.592-2.064-.134-4.128-.459-3.406.761-.96.898-.355.422-1.104 1.59-3.353.117-2.219-2.517-.967-2.62-.236-1.232-.234-1.352.084-.778 2.2-5.003 1.052-2.347 1.694-2.283.167-3.414-.79-2.99-6.489-12.503-.135-.238-.405-.355-1 .627-.879 1.673-.817 1.757-1.6 1.083-.517.186-16.528-4.683-2.125-.793-5.358-3.92.069-.474.57-3.126.389-1.943 1.254-4.614.658-6.539-.691-6.437 3.367-2.772 1.686-.54 2.546-.423.691.017 10.415.625 8.442 1.42 2.03.693.288.39.033.1.582.338 2.79.743.117-.033.387-.389.953-1.317 1.323-11.509.639-6.572.876-9.21 1.746-6.422 3.353-4.561 6.57-9.986 2.2-6.725.896-2.839.352-1.827-.84-11.1.504-5.509-1.846-1.502-.22-1.336-.067-1.352 1.374-3.785 1.272-2.264 1.4-3.296.616-8.737 1.775-7.586 1.08-3.38.133-.404.153-.154.851-.303h4.584l-.57-.22-3.61-1.03-1.978-.459-1.373-.219-4.939-.44-11.138-.354-3.235-.456-.64-.388-.446-.575-1.18-2.196-.302-.81.136-.456 1.565-2.704.212-4.173 2.502-20.38 5.35 2.433 1.557 2.215 3.06-3.076 1.694-1.826-1.592-2.856-1.079-.642-2.628-1.757-.81-1.048.455-1.435 7.313-7.605 1.932-1.926 4.33-3.16 1.76-1.233 4.492-1.589 2.148-.49 1.96-.235 2.638-.237 11.898.98.565.203.961.56.22.301.816.56 1.148.573.731.018 2.807-.524 6.285-2.044 6.716-1.91.632-.118.96-.135.707.069.017.253.902.236 1.828.048 1.962-.185 5.03-1.52 9.865-.88 5.08.56 4.55.726 1.56.796.388.473-.068.76-.136.371-.715 1.013-.153 1.167.55 3.631.352 1.386.845 2.214 4.59.64.454.558.827 1.25.92 1.792 5.348 12.589v.168l-.084.524-.168.574-.413 1.42-.454.93-1.44.742-1.433.54-3.42 1.25-.65.17-1.464-.05-1.576-1.234.118 3.296.166 1.488.202.845.389 1.065.497 1.082.979 1.3 1.272 1.385.624-.253 1.323-.88.301-.067 1.425-.05 1.113.32 1.593 2.045 1.929 2.805 1.018 1.623.086.167-.033.39.336.675.22.236 1.034.44 1.721.404 1.253.154.59-.07.988-.504.806-.61.28-.301 1.08-1.22.916-1.299.743-1.317 1.17-2.773.522-1.232.203-1.266.371-5.949-.12-2.485-.114-.355-.389-.794-.237-.27-.699-.406-2.503.98-.875.252-3.404-.64.773-6.659.404-2.653.12-.489.664-1.422.523-.744 1.49-1.486 1.494-1.181 2.095-.778 1.914.185 2.232 1.47.693.998 1.186 2.23 1.458 2.18 1.779.98 5.94 2.686.337.07.64-.085.732-.017 2.25.388 1.206.203 3.058 1.892.202.22.153.423.262 1.537-.035.119-.295.27-.556.406.538.76 2.173 2.906v.288l-.093.32-.588.846.27.371.513.321 2.905.32.287-.018 4.08-4.326.151-.828-1.431-6.201 1.71-7.943-.1-.152-2.681-.422-8.595-.44-1.533.053zm44.01 79.605l-.425-.911-2.2-2.67-1.086-.777-.505-.018-1.827 1.165-7.5-.22-6.007-3.06-6.74-3.31-10.322-1.232-11.974-6.474-.438-1.384-.017-1.082-.034 1.165.355 2.097.632 1.366.506.897 1.17 1.723 2.469 1.994 3.791 1.826 1.274.54 1.448.204 1.223.322.57.49.407.81 2.51 6.708.236 2.112 1.458.997 3.124 3.38.785 1.08.1 1.014.101 4.175.776.811.867.744.49.118 1.678-.574.588-.236 2.15.017 8.518 2.958 4.955 1.944 5.181-4.445.085-3.143-.607-7.62-1.256-1.962.135-.203.22-.118 1.541-.574 1.594-.644zM512.764 279.541l-1.643-2.013-.17-.183v-.29l.692-.609.608-.252 2.13-.085 1.19.05 1.085.153 2.808.625.986.288.353.185 1.961 1.37.088.76-.27.068-2.595-.964-6.127-1.571-.236.016-.151.118-.405.694-.304 1.64zm14.788 5.068l-.167-.018-.523-.235-.406-.268-.337-.389-.151-.372-.684-2.687.018-.61 1.154-1.384.573.71.655 3.378-.033 1.707-.099.168zm-32.904-2.113l-.843-.152-.28-.168-.334-.644.018-.625.435-.897.97-1.216.455-.438.42-.27.968-.305 1.68-.066 2.4.066 3.791.337.692.104 2.158.59.623.658.084.237-.084.067-5.855 1.1-5.89-.373-1.408 1.995zm-20.213 4.528l-.356-.068-.572-.473-.236-1.435.034-1.165.118-.457 1.144-1.57.314-.27.994-.508.69-.118 5.403-.034 4.271.22 1.551.186.395.117.64.236.572.34.204.303.05.777-.033.167-.067.018-1.264.085-.017-.085.2-.203-.017-.085-.1-.033-3.385-.22h-.373l-2.528.22-3.709.356-.454.152-3.47 3.547zm-3.691.204l-2.2-.086-2.569-.304-2.217-.505-.514-.777.017-.167.137-.155 2.343-.963.403-.084h.523l3.32.727.22.118.503 1.789.069.254-.035.153zm-27.738 2.568l-1.018-.861-.424-.607-.086-.306.204-.37.49-.355.597-.302 2.25-1.015 1.476-.388.875-.119 11.392.05 1.708.05.844.221.398.202.285.812-.068.235-1.41.506-.952.306-12.216 1.52-3.167.27-1.178.151zm-24.747 4.293l-.936-.07-.184-.016-.54-.184-.8-.526-.101-.27.1-.22.547-.152 3.348-.321 11.037-1.098h4.98l1.392.303.2.253.085.236-.016.405-.27.37-.093-.252-.136-.067-2.384-.154-.995-.033-1.189.033-5.637.203-7.447 1.15-.894.271-.067.14zm-15.443 16.847l-.827-1.724-.49-.321-.832.05-.691.253-.102.22v.474l.167.49.202.152-.017.067-.185.052-1.034-.17-4.147-3.308-.706-1.084-.27-1.368.133-.66.252-.404.153-.154.455-.167 8.352-2.534.435-.019.876.12 1.054.454 2.808 2.113.832.879.084.254-8.416 2.381 2.013 1.808 1.07 1.302-.086.15-.882.678-.201.016z"/>
            <path d="M806.942 251.243l7.291-4.95 4.728-2.813 1.616-.69.694-.168 3.484-.84 1.05-.085 7.9-.371.447.269.575.59 5.386 6.028-.337 3.014.05.874.54 1.28.947.876.973.505.88.287.871-.085.236-.102 1.903-1.294.727-.538.278-.422 2.598-.606 3.772 1.631 2.005.91-.101 1.43.186.37.972.758 2.122 1.245 1.25.639 2.367-4.057.558-1.6.917-8.905 1.441-2.912.206-.305.634-.571 2.886-1.648 1.361-.457.524-.336.763-.706.278-.387 4.4-6.8.132-1.854-.085-.401-1.04-1.669-.335-.37h-.39l-.474.423-2.09 2.089-.92 1.63-1.203 1.652-1.209 1.496-2.76 3.335-.1.05-.117-.101-.235-1.397-.034-.84.184-.81 1.025-1.97 2.783-3.803 12.103-9.919.338-.1.862-.084.887-.051 5.44-.185.27.033 1 .456 1.173.353 1.53.355 1.854.234 1.614.051 1.42-.1.89-.221 2.04-.637 11.18-4.428 6.62.992 4.712.608 2.396-5.406 3.162-6.045.508-.723 1.597-1.447 2.58-1.802 5.606-3.485 1.835-1.113.785-.571.847-.69 1.01-1.027.741-.91.93-1.497 6.733-12.61 4.379-8.603 3.536-6.043 2.809 2.29 1.355.571.736.187 6.519.84 5.708.656 11.606-.302 6.918-.49 2.105-.25 2.876-.068 2.157.235.187.1.1.185.05.32-.115.167-4.095 2.727-.634.354-3.004.774-6.798.505-4.67.15-1.649-.117-.201-.065-.357-.304-.718-1.094-.407-1.078-.425-.218h-.085l-2.468.116-5.21 1.33-4.95 3.098-14.31 5.185-1.487 1.229-4.391 10.267-.49 2.981.05 3.99.067.117 3.57 2.425 1.7.622 1.886.118 1.596-.286.576-.32.018-.319-.475-.387-.557-.286-1.98-.405h-.746l-.286-.118-.94-1.834-.118-1.363.718-1.583 5.093-5.775 7.477-5.739 9.565-4.613 8.097 1.632 7.491 3.403 3.137-.572.602-.388 2.174-1.919.338-.336.339-.658.134-.722.016-1.532.94-2.459.087-.236 2.226-1.953.388-.303 6.014-2.255 3.551.354 6.58 9.562-1.26 2.864.27 1.262 2.756 8.888 4.014 4.48 2.763-1.55 1.109-.537h.27l9.802 4.66.237.238.688 1.161 2.51 5.237.406.943.357.622.288.185.296-.017.438.961 3.518-.033 3.553 1.345.034.153-2.706 2.373.22 1.078.304.32.481.05.83-.539.373-.37.365-.033 1.97 1.228.153.118.235.454 1.05 2.256.015 1.465.152.455 1.803 2.929.584.504.589.27 2.379.421.304-.084.397-.253.05-.1-.116-.386-.702-.943-.744-1.044-1.06-2.492-.015-.319 1.48-1.213.523-.185 14.126-4.68 5.657-1.698 6.232 6.176 1.008 1.13.878 1.399.341 1.043.066.57.017 6.668 5.302 10.859 6.27 6.547 1.19 1.667.678 1.096.203.538-.05.387-.609.944-.528.556-.166.1-.288-.084-.618.017-.609.27-.558.488-1.293 1.398-2.896 3.317-2.324 3.384.133.623.923 1.836.321.299 9.313 5.726 3.28 2.423 2.51 2.29.61.27 10.861 3.854 2.14.691 1.665.252 5.388.12.542-.036.338-.22 1.716-1.512 1.346-1.5.643-.975.219-.235.688-.034 1.081.252.602.252 1.336 1.16.668 1.82 1.715 9.091 3.17 10.153.585 6.027-.634 4.51-.017.185.403 1.566 1.142 3.114 1.326 3.384.274.202 2.596 3.62.584 3.534 1.986 7.846 4.077 11.702.458 1.11-.71-.153-.5.033-8.034 3.367-.256 1.484-.987 2.86-3.24 4.512-1.293.422-4.008.639-9.33-.319-1.77-.202.29-1.938.167-.758.77-1.279 2.513-3.03 1.172-1.06 1.627-1.7 1.717-2.053 1.259-1.668 1.617-2.625.679-1.566.217-.76.854-3.128.034-.844-.387-4.527-.672-1.096-1.166-.773-10.133-.623-1.154 2.223-6.205.2-4.297-.673-5.438.96-.93.405-2.588-1.043-2.361-5.018-1.547-5.269-8.002-9.226-.83.202-.583 1.01-.118.505-.405 3.08.018.523.252 2.206 2.189 1.97-4.396 3.872-4.297.32-2.792 2.205-1.523 1.363-10.538 10.067-.337.793-1.89 4.511-.752 2.559.399 2.07.473 2.879.018.185-.102.152-3.416 4.58-7.578 7.928-1.125.489-.574-.167-1.734-2.594-.205-1.414-.1-.322-.626-.856-.34-.185-5.624-.086-1.75.828-2.91 2.506-.575.81-.302 1.195-.17 1.954.018.807-.205 1.078-.784 1.38-2.377-.353-.29-.32-1.308-2.796-.373-1.01-.49-.907-3.098.403-.288.05-3.617 1.752-.696.639-11.216 12.173-.482.253-.254.032-3.315-1.414-.235-.202-.018-.1.432-.658 1.49-1.16 1.665-.994-.034-.27-.339-.807-.064-.067-1.096-.32-11.653.32-2.85.925-.135.1-.033.236-1.85.707-1.33.49-1.87-.201-.606-1.096-3.941-4.075-5.422-5.033-1.245-.22-12.28-1.145-2.825.607.067.826-.32.338-5.202.623-3.961-4.446-.813-2.272-1.564-1.263-2.976-1.6-1.182-.558-.973-.269-.881-.587-3.178-.96-6.184-4.714-.533.034-8.845 1.8-2.376.86-2.724-.37-2.46-.455-3.317 4.715.253 2.828-.59.792-5.997 4.258-.617.387-8.02 2.912-5.134.37 1.767 2.963.212.555-.043.185-.337.37-8.844 1.97-1.008.166-1.115-2.323-2.726-1.532-1.633-.116-4.38.067-.906.691-6.198 5.623 1.093 6.515-1.025 4.04-.525 1.564-1.376.962-2.462-.085-2.614-.471-1.027-.472-.048-.406-1.278-.942-5.404.642L853.83 388l-8.99-.522-.288-.556-.336-.454-1.501-1.618-.912-.638-.989-.489-5.692-2.274.87-.317.882-.877.1-.32.474-1.497-.067-.557-.235-.37-1.25-.69-.906-.085-1.43-.336-1.868-.454-4.586-3.385-1.075-1.078-1.835-2.476-3.66-7.054-3.9-8.855-2.866-.76-4.129-1.06-2.227 1.718-.616 1.194.067.153-.067.436-1.801 1.18-1.768 1.161-1.368.774-4.255-1.616-1.066-.64-1.75-1.582-.556-.877-.807-1.041-1.956-2.341-.999-.943-1.631-1.28-.371-.236-.31-.133-6.336.033-1.684.167-1.084.387-1.057.656 2.841-12.896.982-2.035 1.599-.928.81.05 1.039.437 2.21.473 6.133-4.628.481-.506 1.608-1.753 3.433-4.022 10.488-13.838.642-3.872 2.243-3.097-1.134-6.027-2.125-2.306-1.428-.69-1.803-.372-.27.069-.354.202-.053.288-.634.183-2.004.102-.355-.153-2.445-1.482-6.09-5.894.67-4.966.288-2.389-.102-.808-.541-1.432-.314-.605-1.59-3.94-.033-2.88 2.278-3.62 8.355-5.842 4.193.303 1.514-3.401-1.59-4.93zm225.628-123.759l-.931.572-2.824 2.29-2.055 2.356-.356.556-4.788 11.869-.116.32-.146 1.398.213.034.763-.252.371-.303 4.777-4.58 1.05-2.692-.255-.961-.424-1.416-.05-.22.085-.183 2.646-3.739 1.666-.471.17.05.32.69.244 1.938-.034.488-.176.942-.524 1.6-1.183 2.104-.447.608-.39.908-.574 3.248.07 1.65 4.48-2.12 3.317-1.902 10.928 4.479.252.068.184-.017 3.011-.371 2.971-1.196.184 8.25-.22 4.479-.236.153-.592.017-2.707.067-4.28-1.363-1.105-.54-6.386-3.703-.371-.42.034-.523.523-4.984-5 .186-5.327.22-1.801.403-5.27 1.498-1.43.827.974 4.242.725 1.396 3.231-.183 2.53.236 4.009 3.616-1.371 2.61-.38.22-3.586 1.246-1.85.336-2.038.405-1.852 4.106.017.876.07.221.546.301 8.494 1.852 1.075.22-2.31 1.416-9.497 4.577-.246.354-.22.642-.71 3.904.07 1.666 2.68 7.912.194.388 24.806 8.282 2.038-1.53.424-.522.22-.422.05-.2-.118-.945-.66-1.497-1.362-1.583-.153-.068h-.903l-.253.32-.137.269.086.387-.069.204-1.031.89-1.26.626-.593.049-.582-.675-.051-1.917 6.698-7.054 5.27-5.035 1.684-1.246.523-.202 16.072-1.954.667.118 2.225 3.653.067.186.018.74-.303.692-.116.202-1.282.962-.1.065-1.512.776-.02 2.455 3.42-.892 1.431-2.828 1.936-3.973-1.109-2.643-2.833-4.578-2.022-1.651-2.048-1.43-.186.22-.353.185-1.034.117-1.986.1-.314-.033-.454-.286-.661-.59-1.616-1.9-1.766-3.318-.408-1.043-.509-1.783-.176-2.325.176-.893.306-.538.254-.355.15-.185 2.531-2.844 3.366-2.814.896-.453.331-.067.98-.707.905-1.852.235-1.683-.389-3.366-.633-.81-1.1-1.01-2.284-1.497-.406-.136h-.725l-2.84.271-.678.067-3.637.758-.506.218-3.267 1.029-4.617.839-1.025-.069-1.65-.4-.625-.222-.77-.505-.473-.318-1.334-1.348-1.176-1.549-.838-1.734-.677-2.423-.22-1.365.07-.52.556-1.65.55-.758.272-.185.861-.406.635-.166.627-.05.455-.201.659-.574.397-.757.56-2.172-.018-.1-.576-.81-.394-.42-4.873.436-7.19 2.023-1.322.025zm-19.943 35.339l.202.501h.155l.288-.401.288-1.112 1.75-9.698 1.262-6.196 3.653-1.835-4.761-1.684-2.902 16.533-.221 1.667-.016.858.117.539.185.828zm7.764 2.388l6.8-3.737.83-.656.186-.236-.457-1.465-.406-.505-2.09-.96-.38-.167-1.1-.134-1.073.27-1.05.705-1.345 1.785-.253.571-1.7 3.956-.048 1.062.099.251.22.1 1.767-.84zm-15.307 1.516l-.235-.067-.34.018-.297.1-.372.234-.184.202.017.22.437.42.398.354 1.066-.067 5.165-1.819 1.067-.926.567-.605-.803-.876-.357.084-4.534 1.7-.582.673-.83.993-.183-.638zm81.946 41.381l-.813-.875-.389-.27-.822-.2-.523.05-1.056.286-1.166.622-.771.609-.235.336-.27.571.068 2.137.558 1.687.338.42 3.18 3.536.34.219.82 7.998 5.927 9.173.168.253.288.17.306.047 6.082-2.928.077-.05.64-1.753-.034-.185-2.003-2.979-.593-2.626-.018-.084.119-.167 5.565.487 2.47 2.123 4.313 4.78.405.524.304.605.669 1.766-.119 8.199-5.794-1.012-1.19-2.439-.947-3.15-.247-.218-.728-.32-1.19-.151-3.019.79-.222.084-.203.153-.584 1.212-.27 2.172.05.387.289.656.483.404 1.97 2.373.575 1.364 1.26 3.67.049.775-.685 1.785-.523 1.312-.371.32-1.7 1.027-2.005 1.076-2.056 1.029-.669.135-.641-.033-.424-.067-1.211 2.458 1.193 1.145 1.905.825 2.239.557 1.667-.168 4.16-.725 4.398-1.194.515-.218 6.657-3.402 11.994-1.245.515.018.337.067 2.157-9.596-6.249-5.102-6.85-6.264-8.221-7.692-1.752-1.029-2.36-1.212-.582-.27-.56-.134-1.632-.27-1.616-.57-2.935-1.652-.853-.503-1.766-1.483-1.755-1.785-1.253-1.43-.387-.571-2.788-6.37zm-224.197 38.285l1.131-3.502.349-1.92-.088-.84-.123-.302-.426-.202-1.497-.355-1.691.253-.55.151-.797.32-3.753 1.968-2.36 1.803-.416.944.087 1.648.228 1.043.39.843.369.488.576.472.582.118 5.658 1.043 2.331-3.973zM693 316.47l.711-3.6.67-2.458.4-1.423 1.145-3.314.367-.5.622-.034-.154.822.203 1.054 2.689 3.28 1.666 1.54.833.367 1.196-.585 5.574-6.997.587-.887.518-.888-.017-.519.114-1.205 1.781-.1 1.964.05.394.318 1.522.334.794.084h1.186l7.713-5.974 1.274-3.078-.787-.987 2.266-1.49 6.771-3.28.45.068.315.133 2.033 1.154-.2 1.355-.962 2.243.228 7.398 1.186 1.407 2.525 3.43-.36 1.054-.067.167-1.981 4.217-3.25 2.628-1.03 1.003-.468 1.876.101 3.297 1.344 3.834.337.317 5.525 3.867.6.132.752-.1-.217.988.385 1.253 5.9 6.345.852 1.64-.232.017-.3.15-3.512 1.926-.585.318-.392.402-.302.435-.954 2.357-.382.404-.296.201-.582.084-5.075-.218-.603-.133-.7-.47-4.021-3.798-2.783-3.182-.585-.803-.812-.92-2.784-1.657-.875 1.172-.955 2.058-.284 1.439-4.455 3.281-.67.05-2.499-2.094-3.342-3.18-1.178-1.455-.518-.354-.402.253-2.03 2.26-1.312.987-.402.183-5.39-5.557-.118-.938-1.513-3.53-1.312-1.355.485-3.515v-4.468zM578.538 321.007l.932-.583.294-.718.12-.415-.07-1.233-.104-.532-.202-.484-3.484-5.945-1.4-2.115 1.572-1.865 1.502-.117 8.754.432 2.73.417.103.15-1.742 7.827 1.46 6.115-.157.816-4.152 4.262-.292.018-2.963-.317-.52-.315-.277-.365.6-.832.101-.301v-.3l-2.222-2.863-.583-.737zm42.014 63.654l-2.237-2.632-1.11-.766-.513-.017-1.862 1.148-7.64-.217-6.117-3.013-6.865-3.264-10.516-1.215-12.195-6.38-.447-1.365-.016-1.066-.034 1.148.362 2.067.643 1.348.513.884 1.193 1.698 2.516 1.966 3.86 1.797 1.295.535 1.48.199 1.244.317.583.483.41.799 2.559 6.611.239 2.082 1.485.983 3.183 3.33.799 1.067.102 1 .102 4.113.79.799.884.734.497.116 1.71-.567.601-.233 2.188.017 8.677 2.916L613.96 404l5.278-4.38.086-3.1-.619-7.511-1.277-1.932.136-.201.224-.115 1.571-.566 1.64-.6-.448-.934z"/>
            <path d="M1152.57 341.314l-.34 3.273 1.703 5.25 1.322-.034 1.04.202.526 1.467.118.793-1.567 3.443-3.897 5.87-.831.39-.271.237-.534 3.356-.235 1.537.018.387.432 1.689.204.64 1.668 2.16-.415 4.085-.12.842-.88 5.096-1.077 3.612-.934 1.567-.404.506-5.228 5.45-1.958 1.875-2.695 2.276-1.505.795-1.28.42-3.406 2.294-2.346 2.228-.438 1.467.05.252.457 2.635 1.753 6.257.559 1.132-.168 2.092-1.194 1.96-1.27 1.736-.757 1.772.051 1.03.101.287.567 1.015.27.287 1.102.49 2.947.234 6.007 2.378 12.512 8.1 2.447 2.328 2.568 2.968 2.727 3.242.119.151.39.64.287 1.114 3.356 3.189 1.567 1.061 2.922 1.925 1.316.657 2.294 1.132 1.38.693.493.167.785.152.508.271 2.77 1.874.687.742 3.744 4.775.253.472.34 12.418-.221 1.063-.223.423-2.762 4.808-1.202 1.62-2.522 1.756-.457.32-.508.591-.323.725-.167.812-.585 3.66-.134 1.217 1.668 2.563.423.88.553 4.267 2.397 8.96.115.405.306.354 1.516 1.689.32.303.662.32 1.176-.068.508.102 7.556 1.89.154.067.466.354.339.439 1.584 2.21.186.303.034.37-.354 10.226-.087.708-.755 1.469-1.312 1.651-.22.425-.019.557.483 4.1.644 1.33.508.71.804.828.357.236 1.168.1.992.302.678.356.958.69.66.66 1.518 2.43.05.505-.694 5.247-.089.203-.567 1.163-2.278 3.848.203.118.44.963-.286 9.567-1.553 5.415-4.707 6.429-1.854 1.554-2.719 2.8-.569.642v.117l.05 1.872.085.83 1.315 2.007.32.49.272.185 1.635.473 4.569 10.04.794 1.771 2.465 2.733 3.626 2.717.543.355 1.109.895.889 1.045 1.085 2.246.804 6.731-1.279 4.303-1.432 2.177-1.569-1.267-1.318 1.216-1.044 3.745-.168.423-.253.37-.756.878-.271.1-5.115.505-.855-.116-.678-.154-.235-.27-.704-1.196-.235-1.063-3.541-1.366-11.132 3.93-.576.406-.202.574.017.607.135.86-.526-.287-5.512.708-6.965 3.914-4.694-1.62-6.437-.827-4.912.153-2.075-.338-.635.1-3.4 4.91-2.421 7.085-2.279 8.81-4.271 5.584-12.051 2.463-.526.086-4.472-.136-2.534.946-3.288 1.62-1.346.91-4.972-.606-.814-.17-1.33-.724-.543-.691-.744 1.079-5.313.151-3.184.086-.56-.068-4.649-1.382-7.877-4.81-3.44-2.785-3.703-3.273-.94-.725-7.268 3.88-4.2 3.713.015.237.171 1.702-2.738.762-.822.2-3.658-.084-.34-.641-.356-1.012-2.448-2.92 1.235-5.888.358-8.318-.253-1.079-.358-1.082-1.804-4.386-2.99-6.53-.72-1.3-4.236-2.262-.304.491-.524.506-1.18.76-.922-.506-3.862-6.192 10.335-6.834.83-.895 2.237-4.015v-.22l-.06-.762-.746-1.502-.438-.402-.77-.694-5.32-18.679-.018-.404-.019-.354 2.788-.44-.034-.995-.219-.978-1.162-1.147-.661-.423-1.45-.067.104 1.061-.544.34-3.287 1.33-3.777-.336-.253-.033-.476-.302-4.853-4.997-7.812-4.133-1.703.608-.83-.034-3.879-.976-7.896-4.525-.77-2.293-.558-.034-2.9-1.5-2.566-1.435-1.11-.707-3.195-1.47-1.48.018-.712.945-.253 2.16-2.913 2.06-1.23.202-6.344-.962-11.556-4.47-7.355-4.557-2.667-3.003-4.243-5.5-3.346-5.13-4.685-5.99 2.932-6.615-.372-6.429.44-3.948.203-.76.915-2.851 1.871-4.102.17-.27.396-.185 1.905-3.828-1.04-5.47-.644-4.554-.304-2.634 1.39-3.44.922-1.636.493-1.486-.594-5.214-8.885-3.07-.288 1.5-.07.234-.507.746-1.787.521-1.887.304-1.385-1.638-2.929-3.458-.067-.069.067-1.197 2.846-11.356 1.449-2.597.66.185.678.034 2.608-1.906.662-5.873-.034-.927-.44-1.417-1.906-2.854-1.99-3.238-.05-.167.678-7.088.56-1.822 1.075-2.06 2.35-1.163.32-2.885-1.973-7.814-.154-.435-1-.66-2.371-1.062-2.482 1.114-1.465.76-2.634.877-1.347-3.171.05-1.082.397-1.03.22-.27-1.193 1.099-13.174 1.553-.457-.085-8.36-2.684-5.753-2.329-.56-.287-.355-.354-.408-.793-.101-.776.085-.32.304-.64.83-.879.856-.724.221-.303.154-.44.033-.387-.05-.439-.155-.423-.387-.488-8.295-4.793-.356-.186-.61-.285-.635-.221-.865-.136-.271.051-1.583.929-1.194.827-.492.135-.846-.153-.35-.219-5.716-4.538-.39-.407-.22-.455-.086-.608.085-.49 1.38-1.837.168-.271.034-.321-.117-.388-.34-.287-.372-.203-.33-.085-.778-.067-.407.067-2.244.912-.96-.034-7.03-1.688-1.016-.302-.905-.641-1.857-1.957-1.135-1.267-.585-.455-.66-.32-.83-.068-.654.067-3.26.91-.619.169-.439.254-1.652 1.265-2.717 1.45-.736.017-.373-.067-.457-.254-4.787-4.891-1.838-2.21-.119-.321-.05-.522-.049-2.33 9.005.523 4.42-3.477 5.412-.64 1.281.944.05.407 1.026.473 2.618.472 2.466.085 1.38-.964.525-1.567 1.027-4.05-1.095-6.53 6.21-5.635.905-.693 4.385-.067 1.638.117 2.727 1.537 1.117 2.327 1.009-.168 8.86-1.974.339-.37.04-.185-.213-.557-1.77-2.97 5.143-.37 8.029-2.92.621-.387 6.003-4.27.594-.793-.253-2.833 3.32-4.725 2.467.455 2.726.37 2.38-.86 8.858-1.807.535-.032 6.193 4.724 3.186.963.88.589.972.272 1.187.557 2.98 1.603 1.57 1.265.81 2.278 3.967 4.455 5.21-.625.323-.338-.069-.827 2.83-.608 12.302 1.147 1.243.22 5.429 5.045 3.95 4.084.609 1.098 1.87.203 1.333-.489 1.853-.71.036-.234.133-.1 2.857-.93 11.672-.319 1.091.32.07.068.337.827.034.252-1.67.996-1.49 1.165-.432.656.016.102.237.2 3.32 1.418.253-.032.484-.255 11.234-12.2.695-.64 3.626-1.755.288-.051 3.1-.404.491.91.373 1.012 1.311 2.802.288.32 2.382.357.79-1.385.203-1.08-.018-.81.167-1.958.306-1.197.575-.812 2.912-2.512 1.756-.829 5.632.086.34.184.628.86.1.32.202 1.418 1.737 2.6.577.167 1.126-.49 7.59-7.947 3.425-4.588.1-.154-.017-.185-.474-2.885-.4-2.077.757-2.563 1.888-4.522.338-.794 10.557-10.089 1.524-1.368 2.794-2.208 4.304-.321 4.406-3.882-2.195-1.974-.253-2.21-.018-.523.407-3.089.117-.506.585-1.011.83-.203 8.015 9.247 1.553 5.28 2.363 5.028 2.59 1.047.932-.406 5.446-.96 4.305.672 6.219-.202 1.15-2.227 10.15.625 1.169.776.67 1.098.389 4.539-.034.844-.855 3.139-.221.758-.678 1.569-1.619 2.631-1.26 1.67-1.731 2.06-1.617 1.703-1.177 1.063-2.516 3.037-.77 1.281-.169.76-.288 1.942 1.77.203 9.345.32 4.013-.64 1.3-.422 3.241-4.521.99-2.87.254-1.486 8.05-3.375.5-.033.644.164zm-94.521 116.663l-.998 1.687-1.061 1.368-.744.571-.621.339-.696.22-1.16-.034-1.456-.084-1.84-.37-8.97.27-1.803 3.558-.05.17.22.488.831.964.583.454.168.237.034.217-.1.61-1.754-.135-.806-.153-1.991-.86-.795-.457-.833.235-2.675 1.79-.068.64-.678 9.82.083.977 2.602-.504 2.525 1.789-3.593 4.673-.669.49-.729 1.082-.455.877v2.43l.728.842.64 1.112-.962 1.671-.806.811-1.591.862.27 1.23.372.303 3.304 2.058 3.163.204 1.04-.1-.875-.187.138-1.03 3.557-2.228 2.527-.946.336-.085 1.905-.135 5.397 1.149 1.583 2.074 3.041-1.519 4.719 4.608 3.21.236-.372-5.147.05-.27.153-.153 2.625-1.23 1.153-.522.838-.254 1.202 2.954 6.066 1.925 11.31 3.188 2.016.42 2.55-.876.626-1.112.085-.573-.235-.557-.39-.018-.838-.255.018-.404 2.898-2.413 1.093-2.734 1.304-3.948-2.465-2.549-1.433-.1-4.065-2.65-2.583-.742-1.211-5.029-2.567-5.585-5.703-6.006-7.471-13.87-1.413-.744-1.282.979-.931 1.267-.974 2.261-.696 1.89-.94.287-1.71-.929-.905-.79z"/>
        </g>
    </g>
</svg>
