<svg xmlns="http://www.w3.org/2000/svg" width="21" height="27" viewBox="0 0 21 27">
    <g fill="#7BDAE3" fill-rule="nonzero" stroke="#7BDAE3" stroke-width=".5">
        <path d="M10.758 13.014L10.82 13l.113.01.064.005.097.023.014.01.066.062.042-.018-.056.076-.016.054.04.098.07.11.057.088.032.042-.005.08-.005.092.026.016.029.033.028.003.025-.002.039-.014.02-.01.216.068.015.002.215.005.046-.001.024-.005.092.003.14.055.008.01.001.011-.009.064.018.034.001.014.06.02-.017.017-.003.005v.005l.016.022.023.022.01.003.013.007.044.04.015.017.002.01-.002.005-.014.023-.023.038-.05.072-.026.04-.018.02-.009.006-.016.006h-.001l-.025-.03-.007.001-.007.006-.011.018-.02.034-.003.027.052.042.053.001.031-.015h.008l.029.013.052.054.037.083v.01l-.018.042-.01.017-.043.008.027.116.017.013.03.014.002.01.129-.004.028-.024.008-.007.012-.026.006-.006.21.034.053.032.01.041.006.046.005.019.16.051.06.017.093-.02.068-.018.028.009.115.074.072.053.009.008.078.102.006.018v.008l.002.03.032-.014.011-.003.108-.018h.008l.12.04.037.017-.002-.024.008-.01.009-.01.023-.019.003.004.047.06.015.03.009.036h.001l.02-.013.007-.004.024-.032.106-.233.002-.01.002-.035-.016-.02-.013-.009-.043-.032-.009-.057.054-.085.1-.05h.003l.257.081.096.036.013.009.006.009.008.03-.004.022-.003.042.01.06.083.063.08.03.08.021.012.056.02.077.004.009.022.037.009.009.018.012-.027.042-.093.03-.048.01-.019-.005-.063.01-.107.027-.009.005-.048.042-.001.042-.031.09-.007.002-.042.013-.001-.002-.019-.025-.02-.008h-.052l-.01.004-.054.043v.049l-.145.053-.045-.005-.019-.025-.015.033-.026.184-.002.035v.018l.001.01.083.15.027.026.098.027-.007.043-.036.05-.003.003-.068.072-.065.015h-.005l-.121.052-.108.048-.017.008-.008.005-.01.028.066.02.012-.01h.023l.003.001.008.014-.005.018-.004.003-.007.004-.028.003-.012-.005-.038.026-.083-.01-.132.007.015-.096-.014-.104-.025-.027-.013.004-.004.003-.045.042-.002.027-.075.079-.007.002-.024.012-.013.007-.104.15-.004.01v.004l.024.061.01.017h.031l.038-.004.027.026.066.063.008.017.002.009-.011.018-.062.058-.054.03-.02.017-.016.023.005.007.016.016.053.038-.09.04-.136.05-.417.058h-.007l-.01-.006-.018-.018-.014-.016-.01-.008-.013-.006-.044.01-.005.003-.005.008-.006.027v.007l-.015.014-.063.02-.02-.01-.055-.064-.022-.04-.019-.074-.058.007-.066-.04-.004-.006-.003-.019-.001-.07.005-.054.015-.022h.014l.003-.004.009-.022v-.005l-.019-.028-.01-.017-.01-.007-.116-.023-.052.007-.006.003-.036.039-.007.025-.074.06-.05.024-.004-.005-.015-.005-.014.005-.007.008-.005.021v.007l.004.072.023.017.014.005.01.028.04.256v.002l-.067.233-.103.018-.032.063-.003.005-.027.001-.074-.072-.023-.035-.001-.003-.003-.017.003-.02.014-.015.011-.01.019-.014.014-.005.001-.02-.045-.08-.054-.047h-.03l-.025.005-.004.004-.013.04-.039.016-.045.016-.013-.002-.12-.022-.045-.05-.038-.068-.018-.02h-.233l-.25.105-.008.032.006.103.003.013.012.01.184.132.006.002.02.005.043.014.02.01.014.018.001.047-.007.02-.005.006-.023.016-.023.006-.01-.001-.094-.022-.08-.02-.02-.003-.01.007-.002.008.001.057.005.002.005.06-.015.026-.006.003-.01.001-.174-.065-.061-.015-.007-.015-.014-.04-.022-.097.012-.121.008-.095-.101-.024-.134-.05-.076-.085-.01-.04-.008-.035-.03.015-.03.014-.063-.006-.005-.001-.018-.025v-.02l-.014-.082-.08-.175-.018-.017-.018-.015-.156-.067-.048-.066-.062-.082-.018-.002-.221.024-.06.068-.034.034-.012.006-.01.003-.006-.33.006-.012.013-.021.007-.008.06-.051-.025-.07-.026-.046-.01-.008-.042-.004-.072-.005-.016.005-.081.032-.008.01.001.021.041.052-.018.042-.03.006-.037-.006-.109-.02-.002-.03.002-.09.01-.016.023-.033.046-.058.042-.09.016-.042v-.011l-.006-.05-.03-.038.044-.015.01-.003.004-.005v-.016l-.004-.033-.013-.024v-.019l.012-.06.004-.012.037-.03.015-.012.054.008.046-.002.024-.039.054-.139v-.027l-.033-.2-.048-.163.02-.043.005-.01.005-.003.009-.005.028-.003.048.005.077.01.042.024.01.012.01.008.016.004.013-.001.057-.008.009-.006.006.001.017-.007.009-.005.018-.022-.005-.006.02-.04.006-.017-.018-.031-.017-.018-.007-.008-.03-.02-.06-.022-.006-.146-.02-.042-.046-.097-.003-.009.015-.02.087-.02.035.036.012.045.01.015-.001.001.012.024h.02l.006-.008v-.086H9.71l-.012-.018-.001-.009.014-.045.01-.01.013-.006.02-.015.011-.027-.009-.02-.041-.01-.044-.045-.02-.016-.027-.016-.055-.02-.152-.078-.03-.098-.064-.027-.114-.042-.04-.052-.048-.116-.02-.074-.004-.034.006-.03.007.004.007-.002.017-.007.102-.07.222-.13.178-.037.267-.184.087-.07.005-.005.05-.076.005-.01.008-.028-.002-.004-.014-.006.03-.066.023-.04.079-.02.006-.001.028.01.052.021.014.007.024.015.013.01.04.06.02.01.081-.01.152-.04.031-.06.07-.187.009.002.039-.006zM11.304 4.896l.026.103-.027.073-.076-.007-.152.126-.04.078v.062l.028.084.006.013.01.031.002.017-.005.052-.013.107.11.126.045.032.007.004.036-.003.012-.004v-.006l.007-.004.005-.002.033.008.026.015.038.05.02.13-.04.066-.012.083-.19.298-.062.086-.03.038-.008.011-.112.1-.04-.01-.018-.01-.015-.001-.03.02-.017.044-.052.277.002.001-.002.002-.013.009-.01.005-.014-.002-.12-.041-.016-.008-.027-.019-.024-.02-.07-.042-.171-.093-.047-.03-.015-.035-.109-.137-.007-.027.004-.022-.014.002-.01-.002-.102-.084-.006-.007-.025-.083-.002-.071.009-.04.019-.023.06-.056.036-.092.001-.003.007-.023-.047-.074-.022-.03-.004-.16.018-.05.004-.028-.038-.025-.006-.003-.008-.002-.124.071-.042.032.015.022-.024.066-.141.13h-.022l-.015-.002-.028-.008-.007-.006-.036-.001-.033.002-.002.026v.011l-.009.02-.01.018-.103.152-.022.012-.015-.008-.03-.033-.05-.07-.004-.024.003-.017h-.011l-.007.011-.021.072-.008.03-.012.054-.013.078-.049-.006-.048-.02-.155-.12-.066-.061-.012-.021-.012-.03-.01-.043-.003-.055-.003-.016-.012-.035-.023-.065-.01-.02-.028-.038-.068-.059-.025-.027-.017-.028-.022-.044-.022-.064-.053-.134-.015-.033-.068-.116-.053-.045-.103-.052-.055-.01-.06.002-.105-.002-.093-.007-.03.001-.024.005-.007-.09-.005.002-.043.025-.01.004h-.013l-.01-.005-.03-.03-.056-.053-.027-.045-.02-.058-.008-.038-.04-.11-.06-.113-.01.002-.01-.002-.001-.007.044-.043.034-.023.028-.006.072.02.014.011.013.017.019.003.024-.008.015-.007.007-.006.007-.01.007-.013.004-.02.005-.023V4.521l-.004-.013-.093-.228-.007-.01-.02-.008-.008-.001-.027.006-.012.009-.036.028-.015-.011-.032-.024-.004-.006-.016-.035-.03-.096-.002-.016V4.11l.007-.02.031-.077.019-.047.003-.014.009-.12.001-.024V3.8l-.007-.002.006-.005v-.01l-.002-.02-.004-.015-.008-.017-.01-.017-.006-.004-.008-.003h-.11l-.023.002-.07.006-.03.034-.018.025.002.003.014.004h.004l.002-.002h.001l-.001.005-.004.004-.004.002-.01.001-.012-.001-.13-.08-.015-.013-.016-.036-.003-.018.001-.025.008-.05.006-.027.01-.03.006-.013.003-.004.027-.016.001.03.036.03.016-.001.005-.002.076-.055.004-.003.002-.007v-.038l-.002-.018.015-.083.193-.04.037.005.04.023.032-.01.037-.02.031-.02.16-.158.003-.005.019-.036.005-.038V3.02L8 2.994l-.037-.096-.186-.312-.086-.145-.034-.024-.053-.03-.034-.04-.01-.014-.064-.196-.023-.13-.025-.062-.004-.006-.065-.091-.061-.08-.001-.008.011-.123.043-.116.053.002.02.002.012.007.035.028.158-.01.02-.004.022-.002h.016l.118.01.079.008.016.006.008.003.09.05.025.021v.008l.012.009.02.013.026.004.048.004.038-.012h.04l.01.003.022.008.085.042.06.033.009.022-.01.016-.007.013v.015l.005.015.02.06.136.017.03-.003.042-.045.005-.006.002-.022.076-.017.032.016.04-.018.038-.013.027-.015.15-.157.013-.003.063.026-.012.023-.03.065.124.06.096.046.172.229.03.018.025.01H9.5l.003-.003.047-.12-.003-.006.005-.017.006-.01.003-.004.03.023.05.04.032.067.098.363-.002.074-.005.104v.184l-.002.016-.048.098-.006.009-.018.025-.03.03-.047.032-.075.045-.05.03-.013.003-.007-.006-.005-.008h-.018l-.01.002-.007.005-.004.005.02.048.009.016.01.013.015.01.008.003.058-.01.02-.005.008-.007.055-.028v-.003l.022-.008.149-.042.11-.026.011-.002h.015l.014.003.043.033.02.018.04.049-.013.027-.03.054.005.02.022.13-.036.035-.016.039-.004.02.04.062.009-.042.067-.174.014-.017.132-.077.03-.007h.016l.018.003.035.01.049.018.361.212.021.014.043.033.01.01.015.026.007.018-.002.001.003.01.06.076.012.012.007.004.016.006h.018l.078-.005.011-.002.016-.006.021-.01.016-.011.054-.051.02-.026.034-.046.051-.054.073-.066.035-.01.237-.013-.008.122-.013.028-.002.01.004.08.018.23.022.194-.001.003-.003.003-.075.073-.02.016-.093.077-.086.094-.076.113-.013.012-.015.01-.014.007-.065-.014-.01-.002-.013-.012-.092.115-.007.01-.005.011-.005.021-.002.016v.01l.003.018.02.057.017.037.011.021.013.019.006.007.016.011.013.003h.055l.006-.001.026-.008.01.002.014.008.012.012.01.014.005.017v.007l-.003.036.003.027.015.008.01.001h.011zM6.843 1.343l-.032.098-.027.089-.008.048-.008.07-.006.081-.018.314v.024l.015.043.01.015.003-.002.003-.006.001-.014.007-.268-.004-.008-.004-.016v-.005l.005-.052.012-.047.008-.011.061-.048.018.018.003.006.042.027.041.035.013.006h.007l.08-.048.05-.05-.002-.003-.01-.003-.016-.001-.062.003-.016-.003-.008-.004-.053-.056-.002-.001-.047-.058-.012-.204.033-.077.014-.022.028-.027.003-.001.035-.01.037-.027.046-.105-.001-.003-.003-.003-.062-.03L7 1 6.99 1l-.005.002-.014.011-.004.005-.013.024-.055.153-.01.032-.046.116zm.245.735h-.015l-.056.012L7 2.097l-.012.011-.016.02-.012.024-.015.044-.002.028.002.014.005.01.006.007.116.067.024.008.029.002.094.004h.012l.007-.004.053-.132-.017-.082-.004-.01-.027-.021-.032-.013-.013-.004-.009-.003-.02-.001-.025.01-.009.004-.047-.002zm-.32.31v.008l.008.026.036.068.019.034.02.038.006.003.01.002H6.9l.002-.001.035-.02.003-.004.009-.026-.001-.004-.003-.001-.035-.02-.03-.055-.036-.121-.004-.026.005-.017.008-.017.03-.034-.003-.004-.005-.002-.012.006-.07.077-.01.014-.011.032-.001.028-.004.016zm.5.124l.106-.031.014-.01.01-.015.005-.02.006-.036-.005-.002-.183.084-.048.023-.004.014.002.005.03.03.067-.042zm-.123.176l-.008.002-.006.01.001.01.008.02.005.008.05.065.01.01.026.001.016-.008.004-.012V2.77l-.024-.063-.004-.01-.003-.003-.01-.006-.02.01-.045-.01zm.16.3l.015.017.01.003.019-.001.03-.007.025-.009.007-.005.01-.013.032-.084.017-.048.003-.05-.007-.006-.018-.003-.016.002-.065.024-.009.003-.075.037-.01.007-.007.01-.001.008v.04l.004.016.005.01.006.012.004.003.02.034zm.441-.092l-.091.07-.012.017V3.081l.02.018.016.01.023.006.063.007h.027l.037-.036.016-.024.002-.004.044-.078v-.006l-.007-.044-.009-.013-.027-.007-.065-.003-.037-.011zm3.844-.025l-.014-.006-.005-.006-.003-.005-.005.002-.01.009-.022.03-.018.03-.01.02-.02.054-.01.034-.003.011-.009.117.004.019.004.007.045.036.007.004.012.002.001-.002-.001-.001v.001h-.003l-.011-.004-.028-.021v-.021l.006-.007.067-.027.03.011.012.006.012.006.004.009.008.028-.002.032-.004.044.147.032.226.003H12L12 3.313l-.001-.02-.037-.093-.03-.075-.091-.165-.094-.057-.157-.033zM7.457 4.599l-.013-.005-.023-.014-.035-.025v-.017l.009-.02.014-.016.012-.01.015-.008.013-.006.018-.004h.017l.02.01.002.002-.01.104-.02.008-.02.001zm-1.391-.56l.05-.006.004.03-.038.077-.031-.003-.013-.003L6 4.052l.002-.012.023-.018.019-.008.022.024zM12.89 7.02l.041-.019L12.94 7l.014.001.007.002.007.004.006.006.002.008v.007l-.004.005-.025.038-.002.01.002.012.004.01.007.008.107.092.006.005.016.003.009-.003.022-.017.03-.019h.005l.016.002.012.005.011.005.007.004.154.098.008.01.002.009.001.009v.008l-.003.009-.004.006-.016.015-.016.018-.005.013-.002.006.002.016.008.016.006.008.01.005.108.048.156.055.008.002.246-.032.022-.023-.004.006-.007.021-.001.022.025.065.049-.018.027-.016.046-.022.045.021.018.014.003.009.037.16-.006.058-.044.024-.02.042-.01.037-.013.145.001.004.037.066.036.058.008.03v.018l-.012.12-.048.04-.013-.002-.012-.003-.027.053-.053.232-.002.024.002.002.054.07.026.034.035-.006.033-.011.01-.015.001-.005.006-.03.165.062.011.106-.009.03-.017.034-.026.07.006.054.012.093.02.112-.036.078-.008.004-.003.006-.035.084-.017.058-.004.015-.008.081.007.131-.055.136.088.122.062.105.08.112.049.062.137.093.215.091.119.02.023-.004.054-.043.005-.044.013-.019h.028l.059.03.02.014.049.03.054.03h.01l.014.048.148.092.072.02h.015l.032-.012.146.085.09.102.009.006h.005l.07.008.061-.028.01-.007-.001-.021.027.001.012.009.022.023.004.02v.02l-.051.01v.015l.1.382.014.014.008.008.014.03.001.016v.005l-.042.082-.015.018-.193.14-.064.01-.196.01h-.002l-.284.006-.028-.011-.003-.002-.021-.017-.03-.012-.01-.003-.016-.004h-.03l-.011.008-.008.01-.004.008-.003.019-.02.06-.007.006-.024.02-.025.02-.047.026-.06-.046-.01.037-.06.032-.225.07-.068.008-.076.001-.02.003-.157.09-.103.101-.006.078-.073.173.011.047.03.11.005.002v.003l.007.023.03.178.005.052-.04.016-.048.028.05.147.038.06.012.062.001.008.012.08-.001.235.06.014.01.005.016.02-.001.012-.02.018.068.066.042.032-.048.082.007.055.04.031.01.008.015.02-.001.033-.002.01-.095.224-.022.03-.007.005-.017.013-.002-.001-.007-.035-.014-.027-.042-.06-.003-.002-.02.017-.008.01-.008.01.003.023-.033-.016-.108-.04-.007.001-.096.017-.01.003-.03.014v-.03l-.001-.007-.006-.017-.07-.099-.007-.007-.065-.05-.103-.073-.025-.009-.06.018-.085.019-.054-.016-.142-.05-.004-.018-.006-.043-.01-.04-.046-.031-.188-.033-.006.006-.01.025-.008.007-.025.023-.116.003-.002-.008-.026-.014-.015-.012-.025-.112.04-.008.008-.017.016-.04v-.01l-.033-.08-.047-.052-.025-.011h-.008l-.028.014-.047-.002-.047-.04.004-.026.017-.033.01-.017.007-.006h.005l.023.028h.001l.014-.005.008-.007.016-.02.024-.037.044-.07.021-.036.012-.023.002-.004-.001-.01-.014-.016-.04-.038-.011-.007-.01-.003-.02-.021-.014-.021v-.005l.002-.005.016-.016-.054-.02v-.013l-.017-.033.008-.061v-.011l-.008-.01-.125-.052-.083-.004-.02.005h-.042l-.193-.004-.014-.002-.192-.066-.019.01-.035.014-.022.002-.025-.003-.026-.032-.023-.015.004-.088.004-.078-.028-.04-.05-.085-.063-.106-.036-.094.014-.052.05-.073-.038.017-.058-.06-.013-.01-.087-.022-.058-.005-.1-.009-.056.013-.01-.004-.003-.001-.009-.014-.037-.066-.004-.013-.007-.042-.003-.027.007-.018-.028-.072-.09-.146-.031-.018-.021-.048-.008-.092v-.113l.004-.016.01-.016.065-.058.012-.005h.01l.006-.005.03-.052.004-.011v-.024l-.002-.022-.003-.009-.016-.02-.024-.012-.027-.01v-.059l.023-.036.038-.014-.112-.091-.05-.078.126-.014.053-.057.001-.005.001-.009-.004-.014.003-.031.057-.02.03-.006.151-.002h.008l.028.007.054-.002.042-.01.01-.004.029-.022.015-.003.103-.003.05.005.004.003.009-.1.011-.063.061-.047.056-.05.036-.058.004-.01.002-.047-.003-.011-.002-.003h-.005l-.026.003h-.014l-.02-.013-.011-.01-.006-.006-.004-.01-.002-.014.004-.025.012-.034.009-.017.01-.007.03-.015.02-.006.033-.007.017-.026.001-.002v-.003l-.014-.031-.043-.065-.04-.045-.043-.051-.001-.003-.013-.134.037-.056.016.005.006-.002.033-.017.025-.021.001-.006.001-.046-.001-.013-.019-.02-.023-.021-.006-.003-.01-.002-.039-.026-.135-.189-.025-.06.018-.05.067-.04.052.003-.054-.07-.04-.054-.022-.042-.01-.025-.01-.044.005-.071v-.001l-.083-.177-.112-.174-.078-.063-.078-.234.002-.019.005-.02-.007-.073v-.007l.016-.071.061-.02.08-.017.182-.005.085-.101.006-.014v-.005l-.003-.015.002-.025.005-.021.01-.012.007-.004h.01l.277.012.116.025.023.025.01.01.003.011v.01l.001.003.003.003.01.002.094.01.034-.01.17-.09.004-.006.027-.038.053-.055.033-.02.037-.01h.025l-.023-.06.017-.105.006-.033.01-.023.025-.006.003.002.011.017.02.012.022.002v-.002l.075-.118v-.003z"/>
        <path d="M16.148 12.02l.072.126.017.01.022-.015.01-.01.005-.01.079.046.013.026.056.133.033.09.007.022.005.022-.007.17-.023.12.046.06.006.02.007.013.067.002.016-.004.05-.016-.003-.035v-.004l.078-.076.135-.08.018.015.068.067.064.057.146.098.087.028.01.002.06-.002.098-.003.014-.022.01.014.024.015.016.003.092.013.025-.02.061-.032.047-.02.083.003.01-.001.224-.05.079-.114.042-.18.045-.145.063-.1.012-.002.038.007.092-.003.12.017.086.033.13-.08.102-.014.01.005-.003-.017v-.012l.004-.012.01-.008.207-.08.066.027.004.022.013.024.005.006.012.003.016.002.095-.01.005-.002.014-.018.005-.007.003-.009.02-.076.024-.025.029.026-.03.063v.005l.037.098.013.017.032.013.026.008.026.002.028-.003.007.001.244.1.007.003.049.029.003.003.013.023.037.07V12.628l.144.34.02.065-.001.095-.034.087-.007.04-.058.466-.007.053-.025.04-.021.08.008.009v.003l-.006.034-.022.105-.036.12-.009.016-.045.063-.041.057-.042.09-.01.078-.013.079-.004.023-.01.007-.043.004h-.014l-.063-.011-.163-.068-.061-.027-.003-.025.025-.079-.025-.122-.063-.2-.04-.042-.157-.146-.016.011.005.022-.003.047-.141.022-.015.002h-.005l-.137-.056-.005-.003-.006-.006-.028-.037-.006-.006h-.005l-.02.001-.012.015-.008.02-.055.19.002.006.108.104.007.006.014.006.104.03.02-.006.011.006.01.007.007.013.004.03-.02.082-.157.062-.333.184-.058.035-.033.044-.017.007-.25.088-.025.002-.055.005.008.015.007.103-.002.014-.01.026-.074.054-.018.006-.035.006h-.004l-.012-.005-.017-.012-.01-.004-.055-.014h-.005l-.207.03-.029.004-.215.141.005.017.007.03-.001.004-.055.135-.027.019-.057.08-.115-.063-.063-.006-.175.147-.1.12.003.023-.056.147-.044.01-.092-.031-.164.015-.018.008-.004.002-.002.006-.012.07-.005.066.004.024.005.012v.016l-.001.002-.003.012-.006.012-.06.081-.012.01-.063.041-.022-.009-.087-.061-.124-.087-.02-.012-.001.001-.157.104-.11.067-.033.005-.15.021-.133.04-.22.303-.063.1-.057.124-.006.024-.008.09.004.015.004.005.007.003.006.007.01.023-.004.061-.009.007h-.023l-.023-.003-.029-.007-.006-.003-.003-.005-.024-.042-.008-.018.001-.008.016-.008.005-.004.006-.026-.007-.053-.172-.272-.034-.042-.014-.001h-.059l-.08.004-.012.01-.014-.021-.06-.024-.132-.043-.034-.007-.013-.01.01-.056.006-.056.002-.014-.077-.086-.02-.02-.027-.007-.047-.036-.015-.015-.004-.007.014-.023.018-.016.048-.028.055-.056.01-.018-.001-.008-.007-.016-.06-.061-.024-.025-.034.005h-.027l-.009-.017-.022-.059v-.003l.004-.011.093-.143.011-.007.022-.011.006-.003.067-.076.002-.026.04-.04.004-.003.01-.003.023.025.013.1-.013.092.117-.007.074.01.034-.024.01.004.026-.003.006-.003.003-.003.005-.018-.007-.013-.003-.001h-.02l-.01.01-.06-.02.01-.027.006-.005.015-.007.096-.046.109-.051h.004l.058-.014.06-.07.003-.003.032-.046.007-.042-.088-.026-.023-.026-.075-.144v-.01l-.001-.016.002-.034.023-.177.014-.031.017.024.04.005.13-.052-.001-.044v-.003l.049-.041.009-.003H15l.017.007.017.024v.002l.039-.012.006-.003.027-.085v-.04l.044-.042.008-.004.096-.027.056-.01.017.005.042-.008.083-.03.024-.04-.016-.012-.008-.008-.02-.036-.004-.008-.017-.074-.01-.054-.072-.02-.071-.029-.074-.06-.009-.058.002-.04.004-.022-.007-.029-.006-.009-.01-.008-.087-.034-.229-.078h-.003l-.089.048-.041-.032-.068-.066.02-.018.001-.013-.016-.019-.01-.005-.06-.014v-.235l-.01-.08-.002-.008-.012-.062-.037-.06-.05-.145.048-.029.04-.016-.006-.052-.03-.178-.006-.022v-.003l-.005-.002-.03-.11-.012-.047.073-.172.006-.078.103-.1.157-.09.02-.004.075-.001.068-.008.224-.07.06-.032.009-.036.06.045.047-.025.025-.02.024-.02.006-.006.02-.06.004-.02.004-.007.008-.01.01-.008h.03l.016.003.01.004.03.011.021.017.003.002.028.011.283-.006h.002l.195-.01zM1.048 19.13l.014.006.204.04.038.003.126.005.205-.023.123-.022.018-.007.039-.014.005-.002.015-.01.006-.006.017-.012.008-.003.022-.007.087-.022.055-.014h.013v-.001l.001-.001.004-.002.088-.033.01-.003.058.005.028.003-.003.006-.004.013v.003h.004l.048-.012.015-.009.016-.011.076.031.095.055.177.06.022.004.023-.005.032-.011.013-.008.005.006.01.013.014.019v.003l.002.016.004.08-.014.097-.048.01-.011.004v.003l.006.018.004.008.073.03.003.016-.008.027v.007l.144.053.021-.004.036-.01.013.007-.017.008-.021.08v.001l.017.008-.015.042-.017.015-.01.008-.018.005-.04.013-.083.035-.029.024v.003l-.001.011.03.056.025.022.052.048.005.004.008.004h.028l-.016.016-.126.064-.01.004-.021-.004-.028-.014-.042-.011-.12-.007-.012.002-.02.005-.017.012-.006-.002-.025-.009-.014-.005-.037-.023-.028-.03-.024.047-.047.03-.02.004-.009-.003-.008-.005-.006-.009-.02-.069-.006-.026.002-.01-.036-.035-.064-.031-.067-.016-.04-.007-.117-.008-.041.016-.004.004.013.007.016.015.017.035-.002.006-.004.007-.028.028-.049.005-.16-.018-.033-.023-.016-.025.042-.033-.015-.024-.061-.023.002-.034-.001-.003-.038-.059-.056-.03-.046-.017-.01-.006-.026-.021-.01-.01-.04-.046-.002-.003-.044-.11-.002-.008.003-.004.02-.01.017-.003-.012-.012-.015-.01-.014-.007-.124-.06-.067-.017-.049.007-.01.003-.019.002h-.036l-.014-.011L1 19.169l.002-.004.007-.008zM5.288 14.794l-.028.03-.004.012-.002.016v.028l.029.143.004.008.011.006.038.02v.017l-.012.035-.024.053-.008.02-.025.054-.006.013-.025.003-.034-.006-.033-.01-.016-.031-.038-.015h-.01l-.02.005-.012.004-.076.083-.017.032-.015.072v.01l.018.037.023.03-.056.145-.01.023h.017l.169.104.085.143.006.012.003.005.023.066.002.012.001.057-.064.034-.067-.025-.021-.003-.029.008-.031.038.007.015.054.048.011.007.003.005-.053.055h-.01l-.032-.007-.058-.031-.14.055-.01.005-.019.013-.049.06-.002.003.002.039.012.015.017.01.025.017.032.027.004.01-.013.089-.01.012-.073-.02-.012-.004-.133.102-.064.034-.03.005.022.057.173.224.015.01.009.002.01.001.107-.003.064-.01.01-.002.224-.079.132-.055.081-.025.03-.002.033.005.06.011.018.007.037.033.022.022.014.02.025.034.04.034.024.025.012.016.014.024.016.035v.028l.02.056.004.016v.015l-.003.01-.01.02-.01.016-.005.01-.004.016v.011l.006.024.072.166.01.015.031.042.017.03.09.085.01.07-.02.03-.004.008-.003.005-.013.018-.015.011-.013.007-.013.005-.048.01-.022.007-.015.008-.018.01-.02.014-.004.004-.006.01-.003.008-.005.028.003.014.052.152.016.027.05.07.017.035-.003.034-.013.02-.004.015v.023l.004.01.014.025.035.13.002.018.014.095-.008.005-.007.007-.003.009v.01l.004.008.005.005.008.007.008.003.018.003.022-.001.032-.001.017.003.012.005.01.011.004.01v.01l-.025.061.005.068.002.025-.001.017-.008.027-.012.025-.02.026-.015.015-.014.01-.015.01-.016.013-.007.01-.005.01v.018l.005.011.006.007.007.004.033.01.008.004.01.01.008.01.004.016-.001.013-.004.006-.043.02-.057.059-.015.013-.046.027-.018.01-.016.013-.012.013-.009.016-.006.018-.001.021v.001H5.731l.005.052-.077.304-.006.015-.014.021-.022.025-.032.032-.023.031-.011.02-.015.034-.006.027-.006.041-.003.01-.003.008-.013.028-.01.016-.01.013-.012.012-.035.025-.05.037-.014.007-.009-.017-.005-.009-.005-.003-.111-.012-.01.004-.032.001-.027-.005-.097-.036-.052-.022-.003-.008-.021-.024-.023-.021-.16-.071-.104-.028-.043-.003-.031-.014-.157-.022-.11.023-.009.002-.062.003-.124-.006-.093-.033-.142-.08-.03-.019-.044-.035-.067-.12v-.023l.006-.036-.006-.042-.102-.048-.076.013-.064.01-.034.009-.002.014.002.009.006.008h-.031l-.008-.006-.005-.006-.058-.077-.029-.035-.032-.09v-.017l.001-.005.032-.04.092-.056.044-.02.019-.008.012-.013.019-.025.017-.067-.018-.015v-.003l.022-.128.02-.013-.015-.01-.04.016-.022.005-.161-.085v-.01l.01-.044-.004-.025-.08-.05-.005-.01-.006-.03v-.005l.012-.008.053-.015.015-.154-.004-.13-.002-.024v-.006l-.015-.03-.012-.022-.006-.009-.013.013-.036.017-.026.008-.024-.004-.195-.097-.105-.089-.084-.05-.018.018-.017.014-.053.018-.004.002v-.006l.005-.02.002-.01-.03-.005-.064-.007-.012.004-.097.052-.004.003-.002.002v.003h-.013l-.061.022-.097.035-.024.011-.01.006-.017.018-.007.01-.017.016-.006.004-.043.022-.02.01-.136.037-.226.037-.14-.009-.042-.005-.225-.065-.015-.008-.045-.064v-.004l.003-.005.043-.057.013-.014.007-.003h.017l.008-.005.008-.007.04-.038.185-.278.048-.151v-.019l-.02-.124-.062-.04-.047.029h-.052l-.057-.032-.008-.006-.099-.09-.18-.102-.056-.061-.107-.164-.014-.029-.01-.023-.038-.086L1 16.544l.01-.089.064-.211.08-.061-.011-.125.006-.04v-.002l.005-.007.239-.141.011-.027.038-.075.014-.004.03-.007.07.033.091-.022.046.003-.022-.032-.015-.024-.006-.015-.023-.079-.01-.04.06-.012.069.057.002.002.023.032.155-.022.15-.047.04.04.005.006.122.047.102.026.096-.028.024.004.018.004-.029-.046-.03-.052-.004-.176.103-.062.012.008.077.048.022-.007.076-.032.06-.229.008-.04.069.01.023.002.054-.025.006-.004.035-.033.028-.032.083-.013.168-.035.053-.014.032-.03.003-.002.011-.043.004-.014.009-.017.008-.004h.016l.002.009v.013l-.002.046-.001.012.094.001.052-.01.026-.007.089-.026.043-.021.006-.01.016-.062.001-.047-.003-.043.015-.03.016-.014.062-.002.066.02.008-.006.029-.012.419-.138.015-.012.034-.04.011-.026-.005-.046-.01-.01-.03-.024.02.005h.01l.05-.018h.004l.077-.064.04-.053-.018-.147.014-.016.077-.061L4.62 14l.041.007.075.05-.016.022-.014.026-.017.045-.003.012v.008l.002.014.074.018.036.009.157.082.008.006.009.01.017.04v.017l-.008.062-.002.006-.012.011-.001.02-.003.027.007.028.01.014.019.022.008.009.047.042.047.046.012.012.005.047-.01.044.085-.027.04.01.022.018z"/>
        <path d="M8 11.875l-.04.068-.116.146-.098.168-.135.11-.13.11-.02.033-.018.032-.018.003-.084-.006-.018-.006-.009-.006-.005-.007-.017-.052.022-.056-.036-.062-.088-.039-.036.002-.067.017-.048.017-.087.039-.02.022v.014l.005.02.076.131.017.004.01.006v.007l.007.042-.025.078-.005.002-.104-.007-.126.003-.114.031-.15.049-.09.06-.033.022-.033.042-.079.119-.017.027.062.091.007.007.01.003.022.002.003-.001.03-.021.138-.065.02-.002h.029l.025.038.004.008.022.202.005.065-.002.012-.008.02-.086.197-.097.039h-.013l-.034-.008-.023-.01-.051-.008-.085-.006-.005.004-.038.015-.004.002-.023.02-.016.015-.013.02v.006l.003.01.032.103.02.046.011.028-.014.023-.012.012-.03.027-.043.05-.026.029-.003.005v.007l.009.012-.005-.002h-.018l-.003.002-.012.007-.002.004-.018.082-.13.205-.034.038-.004.004-.016.003-.005-.001-.124-.068-.006-.002-.03-.001h-.005l-.006.006-.287.293.012.031.012.026.024.048.024.036.005.03-.001.01-.061.118-.022.032-.03-.04-.022-.02-.038-.01-.08.029.009-.048-.004-.05-.012-.013-.044-.049-.045-.045-.008-.01-.018-.023-.009-.015-.006-.03.002-.03.001-.02.012-.012.002-.006.007-.067v-.018l-.016-.044-.008-.01-.008-.006-.15-.088-.033-.01-.07-.019-.002-.014v-.01l.003-.012.016-.049.014-.027.015-.024-.071-.053-.04-.008-.013.007-.072.066-.014.017.017.157-.038.057-.072.068-.004.001-.047.019h-.01l-.02-.005.03.026.009.01.005.05-.01.027-.033.043-.014.013-.397.148-.027.012-.008.008-.063-.022-.058.002-.015.015-.014.032.002.046v.05l-.016.067-.006.01-.04.023-.085.027-.024.008-.049.01h-.09l.002-.012.001-.05v-.014l-.001-.009h-.015l-.008.003-.009.019-.003.015-.01.046-.003.002-.03.032-.05.015-.16.037-.078.014-.027.035-.033.035-.006.005-.051.026-.022-.002-.065-.01-.007.043-.057.244-.073.035-.02.007-.073-.051-.011-.009-.098.066.003.189.03.056.027.049-.017-.004-.023-.004-.091.029-.096-.028-.116-.05-.004-.006-.04-.043-.14.05-.147.023-.022-.033-.002-.003-.066-.06-.057.013.01.042.022.085.006.016.014.026.021.034-.044-.003.01-.038v-.004l-.015-.028-.074-.09-.003-.064.018-.033.01-.025.016-.079.003-.022-.003-.035-.006-.015-.051-.091-.015-.024-.034-.022-.006-.009-.007-.007-.077-.014h-.037l-.003.002-.016.011-.03.013-.002.001-.003-.001-.06-.088-.01-.017-.014-.05-.002-.048.002-.008.1-.098.024-.114-.104-.029-.027-.036.005-.002.033-.014-.023-.023-.015-.021-.03-.052-.007-.016-.004-.014-.04-.108-.01-.01-.006-.004-.135-.079-.08-.14.048-.164.007-.024.03-.012.032-.01.012.001.002.009.032.016.032-.081-.003-.024-.01-.01-.007-.018-.002-.016.013-.046.003-.007.01-.011.005-.008.001-.012-.023-.01-.041-.019-.073-.027-.004-.043.002-.045.018-.039.008-.027v-.004l-.016-.002-.12-.01-.076.02-.027-.034-.043-.098-.018-.095L1 13.585l.002-.002.092-.043.189-.063.238-.167.03-.09.072-.033.012-.005-.028-.027-.033.013-.051.024-.015.01-.004.007-.006.006-.011.005-.01.004h-.02l-.014-.005-.016-.034-.003-.102.036-.108.218-.288.071-.08-.03-.113.02-.1.015-.05.01-.072v-.02l-.015-.126-.02-.043-.078-.134-.02-.016-.1-.119.008-.034-.005-.142-.097-.047-.01-.014-.002-.003-.057-.198-.045-.222.046-.079.134-.062.066.003.148-.02.059-.04.15.006.007.002.021.01.02.014.09.06.06.054.038.023.013.002-.032-.11-.001-.011.008-.03.005.001.064.029.147.002.028-.016.044-.024.088-.036.175-.062.018-.005.015.01.01.016.044.045.021-.007.037-.025.038-.027.038-.042.08-.108.008-.02V10.7l-.002-.043-.006-.025-.136-.12-.073-.041.045-.11.047-.078.172-.058.017-.002.023-.024.012-.012.013-.052.004-.025.056-.063.232-.152.077-.047.064-.002.02-.032.008-.008.018-.018.064-.015.079.01.04.002.15.008.027-.033.013-.018.024-.003.03-.003.032-.017.008-.016.01-.021.02-.017.112-.087.127-.082.051-.03.008-.002h.01l.07-.037.055-.1.004-.022-.042-.023-.02-.015.014-.047.011-.026.018-.033.024-.03.007.003.14.057.004.005.006.008.016.036.047.14.154.098.067.01.04-.018.008-.005.047-.012.085.053.029.054.02.08-.063.07-.003.013-.001.014.002.019.005.006.041.044-.032.023-.082.184v.003l.004.025.01.031.008.015.037.028.002.001.07.014.06.058.006.131-.097.031-.111.039-.029.022-.001.005h.008l.043.072.007.032.031.017.055.024.035.014.019-.03.012-.017.068-.054h.006l.046.003.031.005.033.009.01.02.068-.045.049-.012.121-.092.052-.051.042-.032.018.002.088.02.074.028.091.01-.007-.023-.003-.018.001-.01.01-.016.013-.012.067-.047.005-.002.02.001.011-.002.016-.008.007-.006.03-.033.015-.019.02-.026-.038-.02-.037-.013h-.01l-.01-.005-.023-.021-.016-.032-.003-.008.034-.14.014-.031-.007-.105.005-.056-.048-.146-.066-.053-.157-.124-.02-.101-.015-.034.012-.009.014.003.071.02.01.01-.001.006.015.016.101-.008.03-.004.047-.042.003-.01.006-.042.004-.044.094-.076.093.048L6.53 9l.064.052.022.022.007.018.001.01-.008.043.007.24.006.047.016.012.056.025.204-.002.154-.036.006-.002.088-.119.064-.088.023-.044.048-.065.07.017.083.039.006.021.001.007-.054.13.028.073-.003.022-.006.015-.045.097-.024.048-.004.004-.023.022-.023.014-.037.005-.029.015-.031.022-.02.014-.069.151.016.05.005.003.008.004.048.014.06.025.078.054-.002.007-.06.155h-.044l-.07-.039.058.08.104.085.105.02.028.01.007.004.016.019.01.03-.008.07.04.04.028.05-.004.003-.015.008-.014.021-.001.008v.057l.007.196.02.049.17.129.027.015.03-.005H7.768l.032.019.002.003.014.026.01.04v.02l-.005.032-.016.076-.007.005.03-.02.01-.006.02-.007h.006l.013.004.045.017.017.01.054.057v.107l-.038.097-.055.176-.026.228.014.01.008.003h.007l.048-.001h.004l.014-.009h.002l.018-.006h.007z"/>
        <path d="M5.427 5.871L5.4 5.806l-.035-.09v-.099l.002-.02.111-.34.015-.041.03-.079.065-.085.025-.024.053-.016.038-.01L5.737 5l-.001.016.002.01.004.009.043.053.083.062.029.02.019.009.021.006.046.006.15.012.048-.01.008-.003.002-.002v-.004L6.2 5.18l.061-.014.016.001.063.016-.014-.02-.023-.058-.012-.037.024-.011.026-.01.025-.004h.03l.094.006.107.001h.06l.057.007.104.046.053.039.07.102.015.029.054.117.022.055.022.039.018.024.025.024.069.052.029.033.01.018.023.056.012.03.003.015.003.048.01.037.012.027.013.018.066.054.158.105.049.017.05.005.079.011v.085l-.01.066.025.026.028.067.002.017.1.105.008-.003.025-.019.038-.043.007-.004.01.006.022.028.062.06.047.04.012-.001.083-.062.005-.028.018-.039.016-.022.052.032.015.017.011.015.052.06.075.072.013.01.011.002.095.004.01-.002.006-.004.007-.007.018-.045.006-.008.007-.008.01-.006.066-.036.006-.003h.004l.047.026.174.08.071.038.025.018.027.016.017.007.121.036.015.001.01-.004.012-.008.002-.001-.001-.002.02-.012.02-.007.03-.003h.117l.006.002.007.004.03.024.018.018.036.044.015.02.01.016.032.03.02.012.078.03.025-.014.033-.022.033-.022.001-.009v-.003l.01-.022.041-.032.076.02.053.014.072.166.067.133.034.047.02.02.084.064.035.008.026.006.017.002.023.013.004.007.001.01-.008.029-.002.006-.016.016-.016.006.104.043.019.009.016.012.028.03.006.009.006.01v.044l.001.01.003.006.033.041.088.092.009.005.007.001h.013l.05-.027.03-.024.009-.005.01-.003.06-.017.013-.001.015.001.012.006.011.009.02.023.035.037.017.012.018.006.13.031.017.001.003.004v.003l-.073.109-.001.001-.022-.002-.02-.01-.01-.017h-.003l-.024.004-.01.021-.007.03-.017.096.024.056h-.026l-.036.009-.033.019-.052.05-.026.035-.004.005-.168.083-.033.01-.093-.01-.01-.002-.003-.002V8.1l-.005-.01-.009-.01-.022-.022-.115-.023-.272-.012h-.01l-.008.004-.01.011-.005.02v.022l.002.014v.005l-.007.012-.084.093-.178.005-.079.016-.06.018-.016.065v.006l.006.068-.004.018-.003.018.078.215.077.057.11.16.082.162v.001l-.006.066.01.04.01.023.023.038.038.05.054.064-.051-.002-.066.036-.019.047.026.055.133.172.038.025.01.001.006.003.023.02.018.018.002.012-.002.042-.001.006-.024.019-.033.015-.005.002-.017-.004-.036.051.012.123.002.003.042.047.04.04.042.06.013.03v.004l-.018.023-.031.007-.021.005-.03.014-.01.007-.008.016-.012.031-.003.023.002.012.004.01.005.005.011.009.02.012h.014l.026-.003h.005l.001.003.004.01-.002.044-.005.008-.035.054-.055.045-.06.044-.011.057-.01.093-.002-.003-.05-.005-.102.003-.015.003-.028.02-.01.004-.041.009-.054.002-.028-.007h-.007l-.148.002-.03.006-.057.017-.003.029.004.013v.008l-.002.005-.052.052-.124.013.05.072.11.084-.038.012-.023.033v.054l.027.01.023.01.016.02.003.008.002.02v.022l-.003.01-.03.048-.005.004h-.012l-.011.005-.063.053-.01.014-.005.015v.104l.008.084.02.044.031.017.089.134.027.067-.006.015.003.026.006.038.004.012.037.06.01.013v.002l.012.003-.003.006-.034.004-.008-.001-.062.166-.027.052-.135.035-.071.01-.017-.01-.036-.054-.011-.007-.022-.014-.012-.006-.046-.02-.025-.008-.005.001-.07.019-.02.035-.027.057.013.007v.002l-.006.025-.004.01-.045.067-.004.003-.076.062-.236.163-.157.033-.196.115-.09.062-.015.006-.007.002-.005-.004.01-.007.001-.004v-.035l-.01-.018-.038-.06-.008-.006-.091.012-.094.014-.006.001-.013.009-.13.11-.031.045.052.084.051-.025h.015l.002.004.002.04-.002.015-.008.035L7.58 13l-.004-.007-.099-.05-.156-.066-.05-.016-.02-.035-.015-.023.002-.01.015-.06.006-.013.032-.05.015-.003.047-.008.038.002.022-.035.003-.006-.022-.129-.01-.047-.017-.018-.06-.106-.002-.004v-.003l.005-.01.071-.081.045-.008.006-.01.017-.025.021-.018.02.006h.003l.003-.005.01-.025-.005-.012-.006-.006-.024-.016-.02-.017-.042-.047-.002-.003-.1-.052h-.124l-.02-.004-.021-.013-.01-.012v-.01l.006-.025.007-.016-.001-.011-.005-.007-.008-.002-.096.022-.004-.003h-.007l-.017.006-.002.001-.014.007h-.004l-.047.002h-.006l-.008-.002-.014-.01.026-.217.053-.167.037-.09v-.103l-.052-.053-.017-.01-.043-.016-.013-.004h-.007l-.018.006-.01.006-.03.02.007-.005.015-.072.005-.03.001-.019-.01-.039-.014-.025-.002-.002-.031-.017-.01-.002-.002.001-.03.005-.025-.015-.167-.122-.018-.046-.008-.186v-.054l.001-.007.014-.02.015-.008.004-.003-.027-.048-.04-.037.009-.066-.01-.03-.016-.017-.007-.003-.027-.01-.102-.02-.102-.079-.056-.076.068.036h.042l.059-.146.002-.007-.075-.051-.06-.024-.045-.013-.009-.004-.005-.003-.015-.047.067-.143.02-.014.03-.02.028-.014.036-.005.023-.014.022-.02.003-.005.024-.046.044-.09.005-.015.003-.021-.027-.07.053-.123-.002-.006-.006-.02-.08-.037-.068-.017-.047.062-.022.042-.063.083-.085.113-.006.002-.15.035-.198.001-.055-.023-.015-.012-.006-.044-.007-.228.008-.04-.001-.01-.007-.017-.021-.02-.063-.05-.174.091-.09-.045-.092.072-.004.042-.006.04-.003.01-.045.038-.03.005-.098.007-.015-.015.001-.006-.009-.009-.07-.019-.012-.002-.013.008.015.032.02.096.153.117.064.05.046.139-.005.052.007.1-.014.03-.033.133.003.007.016.03.023.02.008.004h.01l.037.012.036.02-.019.025-.014.018-.03.031-.006.006-.016.008-.01.002-.02-.002-.005.002-.065.044-.012.012-.01.015-.002.01.004.017.007.022-.09-.01-.071-.027-.086-.019-.018-.002-.04.03-.05.05-.12.087-.046.01-.067.043-.009-.019-.032-.008-.03-.005-.046-.003h-.005l-.067.052-.011.016-.019.028-.034-.013-.053-.023-.03-.016-.007-.03-.042-.069h-.008l.002-.004.027-.021.109-.037.094-.03-.006-.123-.058-.055-.068-.014H4.25l-.036-.027-.009-.014-.009-.03-.005-.023v-.004l.081-.174.031-.021-.04-.042-.005-.006-.002-.018.002-.014.002-.011.062-.067-.02-.076-.028-.05-.082-.051-.047.011-.008.005-.039.018-.065-.01-.15-.093-.045-.133-.016-.034-.005-.008-.005-.004-.136-.054-.007-.004-.023.03-.017.03-.011.025-.014.045.02.014.04.022-.003.02-.053.096-.069.034H3.53l-.008.002-.05.029-.124.077-.11.083-.017.015-.01.02-.008.016-.03.016-.031.003-.024.003-.012.017-.026.031-.147-.01-.038-.003-.077-.009-.063.014-.017.017-.007.008-.02.03-.062.002-.041-.047-.018-.05-.005-.022-.004-.026.002-.014.04-.094.02-.044.031-.043.003-.064-.014-.056-.12-.234-.003-.004-.007-.007-.019.012-.016.031-.015.033-.03.02-.01.004-.305-.088-.039-.015L2 9.201l.001-.01.01-.058.008-.036.023-.087.012-.122-.012-.12.062-.053.031-.01.047-.008h.013l.192.012.156.027.038.013.005.007v.002l.011.006.052.014h.002l.007-.007.018-.025.024-.216.012-.123.016-.172.033-.12.062-.086.121-.187.04-.126.017-.054.007-.034-.016-.208.01-.103-.035-.028-.004-.025v-.025l.025-.071.023-.043.026-.062.011-.163.033-.142.02-.064.003-.007.002-.003.016-.006h.085l-.01-.004-.067-.02-.037-.008-.025-.004-.092-.008-.206-.007-.06-.008L2.7 6.61l-.008-.01-.022-.042-.006-.015.003-.008.029-.05.004-.08.046-.38.099.045.028.041.057-.057.031-.035-.03-.053-.019-.012-.049-.033-.015-.02.009-.027.135-.142.036-.036.08-.06.032-.022.083-.03.04-.01.036-.004.049-.004.22.018.01.004.018.01.004.006.015.01.021.011h.014l.052-.01.116-.038.124-.035.012-.003.017-.002.014.001v.005L4 5.548l.034.001.037-.003.092-.029.183-.016.094.01.084.014.029.015.007.009-.001.014-.003.007-.013.019-.003.022.01.068.007.026.015.041.085.012.008.01.016.024.017.034.099.236v.003l-.002.01-.003.01-.008.027-.008.017-.027.014-.026.01-.063.024-.012.003-.027-.001-.03-.023.003.062.003.027.003.016.008.02.009.02.018.025.023.026.012-.005.024-.016.006-.002h.026l.02.005.03.039.036.052.019.03.001.004v.007l.006.013.004.004.02.008.03.008.024.003.01-.001.02-.01.014-.011.005-.006.02-.023.017-.024.014-.025.022-.052.01-.023.003-.024.007-.111-.002-.047-.003-.006-.007-.015-.004-.005-.013-.008-.046.019-.016.004-.063-.012.014-.124.007-.05.003-.01.012-.026.01-.014.027-.028.028-.022.038-.014.036.003.041.028.013.018.022.042.027.04.033.02.11.05h.017l.014-.001.042.007.022.004.056.036.004.004.003.008.005.028-.001.003-.005.005-.01.007.01.014.04.055v.005l-.002.006-.011.016.005.007.01.006.053.006h.005l.076-.081.002-.016-.026-.116.032-.149-.002-.003-.05-.008-.159-.008-.028.001zm.813 1.492l-.007-.017-.041-.05-.02-.015h-.01l-.033.022-.139-.005-.11-.057-.125-.062-.191-.023-.221-.121-.009-.026v-.02.021l.006.04.012.025.01.017.02.032.046.038.07.034.024.01.027.004.022.006.01.009.008.015.047.126.004.04.027.018.058.063.014.02.002.02.002.078.014.015.016.014.01.002.03-.01.011-.005h.04l.157.056.092.036.096-.083.001-.059-.01-.143-.024-.037.002-.003.004-.003.029-.01.03-.012zM4.27 5.376l-.03-.065-.004-.006v-.01l.013-.02.011-.008.04-.003.022.002.02.005.052.02.018.01.006.006.037.045.001.024-.005.003-.048-.032-.113-.051h-.004l-.003.004-.008.023-.005.053zm.337.05H4.6l-.025-.005-.019-.005-.016-.007-.007-.007L4.5 5.35l.001-.012.054-.026.027.013.03.065v.033l-.006.003zm-.672-.017l-.016-.004-.005-.004-.006-.015V5.37l.008-.022.018-.029.009-.01.008-.007.017-.007.031-.002.045.002.07.008.013.003.04.014.011.015.002.006-.002.002-.108.026-.109-.009-.026.048zm-.374.06l-.006-.001-.01-.01-.005-.026V5.41l.003-.009.02-.029.007-.005.018-.01.013-.002h.1l.079.004.028.003.008.002.011.005.01.006.005.006V5.399H3.84l-.024.001V5.4l.004-.004v-.001l-.002-.001-.063-.004h-.007l-.047.004-.068.007-.008.002-.065.067zm-.068.061l-.04-.003-.048-.012-.04-.019-.01-.029v-.006l.002-.006.044-.036.007-.003h.01l.061.027.004.004.01.068v.015zm-.512.024l-.02-.023-.007-.016-.002-.008.004-.01.01-.009.01-.008.042-.027.027-.01.016-.003.21.001.032.001.016.006.007.006.006.021-.002.006-.026.014-.017.008-.226.04L3 5.55l-.021.004zm-.458.108l-.017-.003h-.003l-.01-.008-.015-.02-.002-.012.002-.009.01-.006.062-.012.204-.044h.092l.025.012.004.01.002.01v.016l-.006.014-.001-.01-.003-.002-.044-.007H2.782l-.104.009-.138.046-.017.01v.006zm-.285.255l-.015-.032-.01-.006h-.015l-.013.005-.002.004v.01l.004.008.003.003v.001l-.003.001-.02-.003-.076-.062-.013-.02-.005-.026.002-.012.005-.008.003-.002.008-.004.154-.047h.009l.016.002.02.008.051.04.015.016.002.005-.156.045.038.034.02.024-.002.003-.016.013h-.004zM11.54 4.4l.136-.094.089-.054.03-.013.013-.003.065-.016.02-.001.147-.007.008.005.01.01.101.115-.006.058.001.016.01.025.018.016.018.01.016.005.017-.001.004-.002.036-.025.013-.01.005-.008.049-.012.07.031.038.018-.002.027.003.007.018.014.04.024.023.012.045-.077.01-.03.017-.17.027-.055.004-.006.012-.01.054-.032.025-.009.01-.006.014-.013.005-.008.082-.13.003-.034-.002-.008-.02-.032-.005-.007h-.008l-.009.008-.039.04-.017.031-.022.031-.023.029-.051.063-.002.001-.002-.002-.005-.026v-.016l.003-.016.02-.037.051-.072.226-.189.006-.002.016-.001.017-.001.102-.004h.005l.018.01.022.006.029.007.034.004.03.001.027-.002.017-.004.038-.012.208-.084.124.019.088.011.045-.103.059-.114.01-.014.029-.028.048-.034.105-.066.034-.021.015-.011.015-.013.02-.02.013-.017.017-.029.126-.24.082-.163.066-.115.052.044.026.01.013.004.122.016.107.013.216-.006.13-.01.039-.004.053-.001.04.004.004.002.002.003v.006l-.001.004-.077.051-.012.007-.056.015-.126.01-.088.002-.03-.002-.004-.001-.007-.006-.013-.02-.008-.021-.008-.004h-.001l-.046.002-.098.025-.092.06-.267.098-.028.023-.082.195-.01.057.002.076.001.002.067.046.031.012.036.002.03-.005.01-.006v-.006l-.008-.008-.01-.005-.038-.008h-.014L14.25 3.4l-.017-.035-.003-.026.014-.03.095-.11.14-.109.178-.088.151.031.14.065.058-.01.012-.008.04-.037.007-.006.006-.013.002-.013v-.03l.018-.046.002-.005.041-.037.008-.006.112-.042.066.006.123.182-.023.055.005.024.051.169.075.085.052-.03.02-.01h.005l.183.089.005.004.012.022.047.1.008.018.007.012.005.003h.005l.009.018h.065l.067.025v.003l-.05.045.004.02.006.007h.009l.015-.01.007-.007h.007l.037.023.002.002.005.009.02.043v.028l.003.008.033.056.011.01.011.005.044.008.006-.002.008-.005v-.002l-.002-.007-.013-.018-.014-.02-.02-.047v-.006l.028-.023.01-.004.263-.089.106-.032.116.117.02.022.016.026.006.02.001.011v.127l.1.206.116.125.023.031.012.021.004.01v.008l-.012.018-.01.01-.003.002-.006-.001h-.011l-.011.005-.01.01-.025.026-.054.063-.043.064.002.012.017.035.006.006.174.109.061.046.047.043.012.005.202.074.04.013.031.005.1.002h.011l.006-.005.032-.029.025-.028.012-.019.005-.004h.012l.02.004.012.005.025.022.012.034.032.173.06.193.01.115-.011.086v.003l.007.03.021.059.025.064.005.004.048.069.011.067.037.15.076.222.009.02-.013-.002h-.01l-.15.065-.004.028-.019.054-.06.086-.024.008-.075.012-.174-.006-.033-.004.005-.037.003-.014.015-.024.046-.058.022-.02.03-.032.033-.04.023-.031.03-.05.013-.03.004-.014.016-.06v-.016l-.007-.086-.012-.02-.022-.015-.189-.012-.022.042-.115.004-.08-.013-.102.018-.017.008-.049-.02-.044-.095-.029-.1-.15-.176-.015.004-.01.02-.003.009-.007.058v.01l.005.042.04.038-.081.073-.08.006-.053.042-.028.026-.197.192-.006.015-.035.086-.014.048.007.04.009.054v.004l-.002.003-.063.087-.142.15-.02.01-.012-.003-.032-.05-.004-.027-.002-.006-.011-.016-.007-.004-.105-.001-.032.016-.055.047-.01.016-.006.022-.003.037v.016l-.004.02-.014.027-.045-.007-.005-.006-.025-.053-.007-.02-.009-.017-.058.008h-.005l-.067.034-.013.012-.21.232-.009.004-.005.001-.061-.027-.005-.004v-.002l.008-.012.028-.022.03-.019v-.005l-.006-.015-.001-.002-.02-.006-.218.006-.053.018-.003.002v.004l-.035.014-.025.009-.035-.004-.011-.02-.074-.078-.101-.096-.023-.004-.23-.022-.052.012.001.015-.006.007-.097.012-.074-.085-.015-.043-.03-.024-.055-.03-.022-.011-.018-.005-.017-.011-.059-.019-.115-.09-.01.001-.165.035-.045.016-.05-.007-.046-.009-.062.09.004.054-.01.015-.113.08-.011.008-.15.055-.096.008.033.056.004.01v.004l-.007.007-.165.037-.019.004-.02-.045-.051-.029-.03-.002-.083.001-.017.013-.115.107.02.124-.019.077-.01.03-.026.018-.045-.002-.05-.009-.018-.008-.001-.008-.024-.018-.101.012-.082.066-.168-.01-.006-.01-.006-.01-.028-.03-.017-.012-.018-.01-.107-.043.017-.006.016-.016.002-.006.009-.029-.002-.01-.004-.007-.023-.014-.017-.001-.027-.007-.035-.008-.085-.065-.02-.02-.035-.047-.068-.134-.073-.169-.053-.014-.077-.02-.042.033-.011.022v.011l-.034.023-.033.022-.026.015-.079-.031-.02-.012-.033-.03-.01-.017-.015-.02-.037-.044-.018-.018-.03-.025-.008-.004-.005-.003-.119.001-.031.003-.02.008-.02.012.053-.245.018-.039.03-.017h.015l.02.009.041.009.114-.088.01-.01.03-.033.064-.077.195-.263.012-.073.042-.06-.021-.114-.04-.044-.026-.013-.034-.007-.005.002-.007.003v.006l-.012.003-.038.002-.006-.003-.046-.028-.114-.112.013-.094.005-.046-.002-.015-.01-.027-.006-.012-.03-.075v-.054l.042-.07.156-.11.079.005.028-.064-.03-.094zm4.212-2.353l-.017.011-.053.044-.038.044-.007.011-.09.226-.002.006-.002.026h.004l.014-.004.007-.006.089-.087.02-.05-.005-.02-.008-.026-.001-.004.002-.004.049-.07.031-.01.003.001.006.013.005.037v.01l-.004.017-.01.03-.022.04-.008.012-.008.018-.01.061v.032l.085-.04.061-.037.204.085.005.002h.004l.056-.008.055-.022.004.156-.004.086-.005.002h-.01l-.051.002-.08-.026-.021-.01-.12-.07-.006-.008v-.01l.01-.095-.093.003-.1.005-.033.007-.098.029-.027.015.018.081.014.027.06-.004.047.005.075.068-.026.05-.007.004-.067.024-.034.006-.038.008-.035.078v.017l.002.004.01.006.159.035.02.004-.044.027-.177.087-.004.007-.004.012-.014.074.002.032.05.15.003.008.463.157.038-.03.008-.01.004-.007.001-.004-.002-.018-.012-.028-.026-.03-.003-.002h-.016l-.005.006-.003.006.002.007-.001.004-.02.017-.023.012h-.011l-.011-.012-.001-.037.125-.134.098-.096.032-.023.01-.004.3-.037.012.002.042.07v.003l.001.014-.005.013-.003.004-.024.018-.001.002-.029.014v.047l.064-.017.026-.054.037-.075-.021-.05-.053-.088-.038-.031-.038-.027-.003.004-.007.004-.02.002-.036.002h-.006l-.009-.006-.012-.012-.03-.036-.033-.063-.008-.02-.01-.034-.003-.044.004-.017.005-.01.005-.007.003-.003.047-.054.063-.054.017-.008.006-.002.018-.013.017-.035.005-.032-.008-.064-.012-.016-.02-.019-.043-.028-.007-.003h-.014l-.053.005-.012.001-.068.015-.01.004-.06.02-.087.016-.02-.002-.03-.007-.012-.005-.014-.01-.009-.005-.025-.026-.022-.03-.015-.032-.013-.046-.004-.026.001-.01.01-.032.01-.014.006-.003.016-.008.012-.003.012-.001.008-.004.012-.011.008-.014.01-.042v-.002l-.01-.015L16.001 2l-.091.008-.134.039h-.025zm-.372.672l.003.01h.003l.006-.008.005-.021.033-.185.023-.117.069-.035-.09-.032-.054.314-.004.032v.016l.002.01.004.016zm.145.045l.127-.07.015-.013.004-.005-.009-.027-.008-.01-.039-.018-.007-.003-.02-.003-.02.005-.02.014-.025.034-.005.01-.031.076-.001.02.002.005.004.001.033-.016zm-.286.058l-.004-.002h-.007l-.005.003-.007.007-.004.006v.006l.009.013.007.01.02-.002.096-.053.02-.027.011-.018-.015-.025-.007.002-.084.05-.011.02-.016.028-.003-.018zm1.53.758l-.016-.017-.007-.005-.015-.004-.01.001-.02.006-.021.012-.015.011-.004.007-.005.01.001.041.01.032.007.008.06.067.005.005.016.152.11.174.004.005.005.003h.006l.113-.055h.002l.012-.034-.001-.004-.038-.056-.01-.05v-.002l.001-.003.104.01.046.04.08.09.008.01.006.012.013.034-.003.156-.108-.02-.022-.046-.018-.06-.004-.004-.014-.006-.022-.003-.057.015-.004.002-.003.002-.011.024-.005.04v.008l.006.013.009.007.037.045.01.026.024.07v.015l-.012.034-.01.025-.007.006-.031.02-.038.02-.038.02-.013.002h-.012l-.007-.002-.023.047.022.022.036.015.042.01.03-.002.078-.014.082-.023.01-.004.124-.065.224-.023h.01l.006.001.04-.182-.116-.097-.128-.12-.154-.146-.032-.02-.044-.022-.011-.005-.01-.003-.031-.005-.03-.01-.055-.032-.016-.01-.033-.028-.033-.034-.023-.027-.007-.01-.052-.122zm-4.185.728l.02-.067.007-.036-.001-.016-.003-.006-.008-.004-.028-.007-.031.005-.01.003-.015.006-.07.038-.044.034-.008.018.001.031.005.02.007.016.007.01.01.008.011.003.106.02.044-.076zM9.388 13.874l-.007.028.005.03.018.066.044.104.038.046.105.037.058.025.028.087.141.07.051.017.025.015.018.015.04.039.04.009.008.018-.01.024-.019.014-.011.005-.01.01-.014.04.001.007.011.017.007-.001.001.053-.001.024-.006.007h-.018l-.011-.021v-.001l-.008-.014-.011-.04-.033-.032-.08.019-.014.017.003.008.041.087.02.037.006.13.055.02.028.018.006.007.016.016.016.028-.005.015-.018.035.004.006-.017.02-.008.004-.016.006h-.006l-.007.005-.053.007-.013.001-.014-.004-.01-.007-.008-.01-.04-.022-.07-.01-.045-.004-.027.003-.008.004-.004.003-.005.01-.019.038.046.145.03.179v.024l-.05.124-.022.035-.043.001-.05-.006-.014.01-.034.027-.004.01-.011.054v.017l.012.022.003.03v.013l-.004.005-.008.003-.041.012.028.035.005.044v.01l-.014.037-.039.081-.043.052-.02.03-.01.013-.002.08.002.028.1.018.034.005.029-.005.016-.038-.038-.046v-.019l.006-.01.076-.028.015-.004.066.004.04.004.009.007.024.041.022.062-.055.046-.007.007-.012.02-.005.01.006.294.001.023-.01.05-.014.04-.028.041-.109.115-.05.028-.036.03-.037.021-.037.015-.047.006-.07-.028-.023-.019-.11.032-.01.048-.018.065-.005.01-.02.019.02.03.008.017.003.05-.003.033-.003.012-.014.024-.023.023-.05.045-.022.008-.003.001h-.021l-.053.019-.004.005-.01.016-.022.039-.028.072-.003.012-.004.004-.049.003h-.024l-.094-.023-.034-.011-.036.076-.011.103.02.123.008.037.013.031v.025l-.012.036-.158.027-.041.005H8.34l-.017-.013-.057-.13-.004-.005-.009-.002-.3-.057-.415.112-.004.002-.016.019-.023.036-.014.075-.02.04.04.033.01-.002.017.001.016.005.004.002.01.008.004.008.011.118-.048.027.01.014.002.007.011.092.005.086.003.062.012.092.003.007.022.029-.028-.003-.007.001.001.02.004.043.003.012.008.008.134.132h.012l.024.006.007.002.006.004.036.16-.05.13-.015.008-.042.113-.025.21.027.05-.005.05.003.002-.012.03-.005.006-.016.013.05.027.01.007.018.042v.013l-.01.013-.028.007-.046-.052-.035-.008-.174.055-.008.003-.032.023-.049.055-.011.021-.007.02.023.02.017.026-.2.179-.008.005L7.16 20l-.058-.003-.015-.002-.018-.02-.01-.026.012-.026.054-.113.072-.025.071-.063-.006-.038.005-.02h-.074l-.2-.038-.014-.005-.072-.03-.044-.03-.058-.232.011-.006.003.006.013.005.004-.004.015-.03-.003-.014-.03-.007-.122.03-.052.015-.01.018.002.024.006.012.02-.003.027.123v.015l-.003.017-.02.033-.054.04-.029.002-.009-.002-.014-.006-.028-.02-.02-.027-.011-.035-.063-.08-.045-.038-.017-.014-.031-.004-.009.001-.01.002-.032.016-.005.002-.015-.036-.05-.072-.015-.028-.05-.155-.003-.014.006-.03.002-.007.006-.011.004-.004.02-.015.016-.01.015-.007.022-.008.046-.01.012-.005.013-.007.014-.011.013-.019.003-.005.004-.01.02-.03-.011-.07-.087-.089-.016-.03-.03-.043-.01-.015-.069-.17-.006-.025v-.011l.004-.016.004-.01.01-.018.01-.02.002-.01v-.015l-.003-.016-.018-.058-.001-.029-.015-.035-.015-.025-.011-.017-.022-.025-.04-.036-.024-.035-.013-.02-.022-.022-.035-.033-.018-.008-.057-.012-.033-.004-.028.002-.078.024-.128.058-.217.08-.009.003-.061.01-.103.003-.01-.001-.01-.003-.014-.01-.167-.228L5 17.868l.03-.006.06-.034.129-.105.012.005.071.02.01-.013.011-.09-.004-.011-.03-.027-.025-.019-.016-.01-.011-.015-.002-.04.002-.004.047-.06.018-.013.01-.006.135-.057.057.033.03.007h.01l.051-.056-.003-.005-.011-.008-.052-.05-.007-.014.03-.04.028-.008.02.003.065.026.062-.035v-.058l-.003-.012-.023-.068-.002-.005-.006-.012-.082-.147-.163-.107h-.016l.01-.023.053-.15-.022-.03-.017-.038v-.01l.015-.074.016-.032.074-.086.011-.004.019-.005h.01l.037.015.015.032.032.01.033.007.023-.003.006-.013.024-.056.009-.02.022-.055.012-.036v-.017l-.036-.02-.012-.007-.003-.008-.029-.147v-.028l.002-.017.005-.012.027-.03.023-.03.062-.113.001-.01-.005-.03-.025-.033-.024-.046-.012-.025-.013-.03.293-.28.006-.005.006-.001h.03l.006.003.126.065.006.001.016-.003.004-.004.035-.036.132-.196.019-.078.001-.004.013-.007.002-.002h.019l.005.002-.008-.012v-.007l.002-.005.026-.028.045-.047.03-.026.012-.011.015-.022-.011-.027-.021-.044-.033-.099-.003-.01v-.005l.014-.02.016-.013.024-.02.004-.002.039-.014.004-.004.087.006.052.008.024.01.034.008.014-.001.098-.037.088-.188.008-.02.003-.012-.005-.061-.023-.194-.004-.008L7 14.168H6.97l-.021.001-.141.062-.03.02h-.027l-.009-.003-.007-.007-.063-.087.017-.026.08-.114.035-.04.033-.022.091-.057.154-.046.116-.03.129-.003.106.006.005-.001.025-.074-.006-.041-.002-.007-.01-.005-.016-.004-.078-.125-.005-.02v-.014l.02-.02.089-.037.049-.016.068-.017.037-.002.09.038.036.059-.022.054.018.049.005.007.008.006.02.006.085.005.018-.003.018-.03.02-.032.134-.105.137-.106.1-.16.119-.14.04-.066.101-.021.008.002.005.006.001.012-.007.016-.007.025.001.01.01.012.022.014.022.002.098.002h.03l.105.052.003.003.044.047.021.018.025.016.006.006.005.012-.01.025-.003.005h-.003l-.02-.006-.023.019-.018.024-.006.01-.047.008-.075.083-.005.01v.002l.002.005.063.106.017.019.011.048.023.13-.003.006-.023.035-.04-.002-.049.008-.016.003-.033.051-.006.013-.016.06-.002.01.016.024.02.035.053.017.164.066.103.05.004.007.072-.036.008-.036.003-.014-.002-.041-.002-.005h-.016l-.053.026-.055-.084.034-.046.135-.112.014-.008.005-.001.099-.014.095-.012.01.005.038.061.01.018.002.036-.002.004z"/>
        <path d="M9 6.526l.013-.064.012-.044.007-.025.02-.06.007-.008.01-.001-.002.015.004.018.048.059.03.028.014.006.022-.01.1-.125.01-.016.01-.016-.001-.01.002-.02.032-.003.035.001.007.006.027.006.014.001h.021l.138-.106.023-.055-.014-.018.04-.026L9.75 6l.008.001.006.003.036.02-.004.024-.017.04.004.133.021.025.046.06-.007.02-.001.003-.035.075-.058.047-.019.018-.008.033.002.06.024.068.006.005.098.07.011.002.013-.002-.003.018.006.022.106.113.015.03h-.004l-.006.003-.062.034-.01.006-.008.007-.005.008-.017.042-.007.007-.005.004-.01.001-.091-.004-.011-.002-.012-.009-.072-.067-.05-.057-.01-.015-.015-.016-.05-.03-.015.021-.017.037-.005.026-.08.058-.012.001-.045-.037-.06-.057-.02-.026-.01-.006-.007.004-.036.04-.023.018-.008.003-.096-.099-.002-.016-.027-.064-.023-.024.008-.063v-.08zM7.15 6.144l.02-.006.005-.007.003-.004-.002-.013-.002-.005-.004-.005-.07-.062-.028-.022.032-.019.03-.001.175.004.055.005.002.001-.035.081.029.063-.003.008-.083.044h-.006l-.06-.003-.01-.003-.005-.004.012-.008.002-.003v-.003l-.045-.03-.011-.008zm.841.657l-.045-.028-.022-.007h-.01l-.037.011-.153-.002-.123-.031-.137-.034-.21-.012-.244-.066L7 6.618v-.011L7 6.619l.007.021.013.014.01.01.024.017.05.02.078.018.026.006.03.002.024.003.012.005.008.008.051.069.005.021.03.01.063.035.016.01.002.01.002.043.016.008.018.008.01.001.034-.006.012-.002h.044l.173.03.101.02.106-.045.001-.032-.012-.078-.025-.02.002-.002h.005l.031-.007L8 6.81l-.009-.01zM17.983 6.667l-.006.064.033.102h.025l.02.003.01.029.003.015-.03.067-.076.114-.016.008-.005.004-.01.066-.005.03v.007l.009.033.004.012.032.042-.008.08-.003.016-.017.1-.02.07-.019.03-.007.01-.102.106-.038.036-.052.045-.03.015-.024.008-.066.045-.046.043-.008.029V7.9l.01.052.034.121.01.022-.003.041-.023.038-.024.034-.015.034v.02l.003.006.01.02.006.005.021.01.058.004.116.047.243.157.047.045.05.058.053.063.002.003.008.013.005.021.065.062.03.02.057.038.026.013.044.022.027.014.01.003.015.003.01.005.053.036.014.015.072.093.005.009.007.241-.004.021-.005.008-.053.094-.024.031-.048.034-.01.007-.01.011-.005.014-.004.016-.011.071-.003.024.033.05.008.017.01.083.047.174.002.008.006.007.03.033.006.005.013.007.023-.002.01.002.146.037.003.001.009.007.006.009.031.043.004.006v.007l-.006.199-.002.013-.015.029-.025.032-.004.008v.011l.009.08.012.026.01.014.015.016.007.004.023.002.02.006.012.007.019.013.013.013.03.048v.01l-.013.101-.002.004-.011.023-.044.075.004.002.008.019-.005.186-.03.105-.092.125-.036.03-.052.055-.011.012v.039l.002.016.026.04.006.009.005.003.032.01.089.195.015.034.048.053.07.053.01.007.022.017.017.02.021.044.016.131-.025.084-.028.042-.03-.024-.026.023-.02.073-.003.008-.005.007-.015.018-.005.001-.099.01-.017-.002-.013-.003-.004-.005-.014-.023-.005-.021-.068-.027-.216.077-.011.008-.004.01v.013l.003.016-.01-.005-.107.014-.135.076-.091-.032-.125-.016-.095.003-.04-.007-.013.002-.066.096-.047.138-.044.17-.083.11-.234.047-.01.002-.086-.003-.05.019-.063.031-.026.018-.097-.012-.016-.003-.025-.014-.01-.014-.015.021-.103.003-.062.002-.011-.001-.09-.027-.153-.094-.067-.054-.071-.064-.019-.014-.14.076-.082.072v.005l.004.033-.053.015-.016.003-.071-.001-.007-.013-.007-.02-.047-.056.024-.115.007-.161-.005-.021-.007-.021-.035-.086-.058-.127-.014-.025-.082-.044-.006.01-.01.01-.023.014-.018-.01-.075-.12.2-.133.016-.017.044-.078v-.005l-.001-.014-.015-.03-.008-.007-.015-.014-.103-.363v-.008l-.001-.007.054-.008v-.02l-.005-.019-.022-.022-.013-.008-.028-.002.002.021-.01.007-.065.025-.073-.006h-.005l-.009-.007-.094-.097-.152-.08-.033.012h-.016l-.075-.02-.153-.088-.015-.044-.01-.001-.057-.03-.05-.027-.021-.014-.062-.029h-.029l-.014.02-.005.041-.056.04-.024.004-.123-.019-.224-.086-.143-.09-.051-.057-.083-.107-.065-.1-.09-.117.056-.128-.007-.125.009-.077.004-.015.017-.055.037-.08.003-.005.008-.004.037-.074-.02-.107-.013-.088-.006-.051.027-.067.018-.032.01-.029-.012-.101-.172-.06-.006.03-.001.004-.01.014-.035.01-.036.006-.027-.032-.057-.067-.001-.001.001-.024.055-.22.028-.05.013.003h.013l.05-.037.014-.114-.001-.018-.009-.027-.037-.056-.038-.063-.001-.003.013-.138.01-.035.022-.04.045-.023.007-.056-.039-.152-.003-.009-.02-.012-.045-.021-.048.022-.029.014-.05.017-.027-.061.001-.021.008-.02.004-.005-.023.02-.255.031-.01-.002-.161-.052-.112-.045-.01-.006-.008-.007-.008-.015-.002-.015.002-.006.006-.013.016-.017.017-.014.004-.006.003-.008v-.016l-.003-.009-.008-.01-.16-.092-.008-.004-.012-.005-.012-.005-.017-.002h-.005l-.03.019-.024.016-.01.002-.016-.003-.006-.004-.111-.088-.008-.008-.004-.009-.002-.012.002-.01.027-.035.003-.005v-.006l-.002-.008-.006-.006-.007-.004L12.7 7.8l-.015-.001h-.008l-.043.019-.019-.001-.136-.033-.02-.006-.018-.012-.036-.038-.022-.025-.01-.009-.014-.006-.016-.001-.012.001-.064.018-.012.003-.008.005-.032.024-.053.029h-.014l-.007-.001-.01-.005-.092-.095-.036-.043-.002-.007-.001-.01L12 7.561l.175.01.085-.067.105-.013.025.018.001.008.02.01.05.009.049.001.026-.018.01-.03.02-.08-.02-.127.12-.11.017-.013h.085l.032.001.053.03.021.046.02-.004.172-.038.006-.007.001-.004-.004-.01-.034-.058.1-.008.155-.056.012-.008.117-.083.011-.015-.005-.056.065-.091.047.008.053.008.046-.017.172-.035h.01l.12.091.062.019.017.011.02.006.022.01.058.031.03.025.016.044.077.087.101-.012.006-.007v-.016l.054-.012.239.023.024.004.105.098.077.08.011.02.037.005.025-.01.036-.014.001-.004.003-.002.055-.018.226-.006.022.006v.001l.007.016.001.005-.032.02-.03.022-.008.013V7.3l.005.004.065.027h.005l.009-.005.218-.237.013-.013.07-.034h.006l.06-.009.01.018.007.02.026.054.005.006.046.007.016-.027.004-.02v-.016l.002-.039.006-.023.012-.016.056-.048.034-.017.11.002.006.004.012.016.002.007.004.027.034.05.01.004.023-.01.147-.154.066-.09.002-.002v-.004l-.01-.056-.007-.04.014-.05.037-.088.007-.016.204-.196.03-.026.054-.043.084-.006.085-.076-.043-.038-.004-.043v-.01l.007-.06.002-.01.012-.02.016-.004.155.18.03.102.046.098.05.02.018-.007.106-.019.083.013.121-.004.022-.043.197.012.023.015.013.021.007.089v.016l-.017.061-.004.015-.013.03-.032.052-.024.032-.034.04-.031.033-.023.02-.049.06-.015.025-.003.015-.005.037.034.004.181.007.078-.013.025-.008.063-.088.02-.056.004-.029.156-.065.01-.001.012.003zm-1.832 2.269l-.02.032-.02.027-.015.011-.012.007-.013.004h-.023l-.028-.002-.036-.007-.174.005-.035.069v.003l.004.01.016.019.011.008.003.005.001.004-.002.012-.034-.003-.016-.003-.038-.016-.016-.01-.016.005-.052.035-.001.013-.013.19.002.02.05-.01.049.035-.07.09-.013.01-.014.021-.009.017v.047l.014.017.013.021-.019.033-.015.016-.031.016.005.024.007.006.064.04.062.004.02-.002-.017-.003.002-.02.07-.044.048-.018.007-.002.037-.002.105.022.03.04.06-.03.09.09.063.005-.007-.1v-.005l.004-.003.05-.024.023-.01.016-.005.023.057.118.037.22.062.038.009.05-.017.012-.022.002-.011-.005-.011h-.007l-.017-.005V9.74l.057-.047.021-.053.025-.077-.047-.05-.028-.002-.079-.051-.05-.015-.024-.097-.05-.109-.11-.117-.145-.27-.027-.014-.025.02-.018.024-.019.044-.014.037-.018.005-.033-.018-.017-.015z"/>
        <path d="M15.448 9.1l.014.015.026.018.014-.006.01-.037.015-.045.014-.025.02-.02.021.015.114.276.086.12.04.111.018.1.04.015.06.053.023.002.037.051-.02.079-.016.054-.044.048v.008l.012.005h.006l.004.012-.002.011-.01.023-.038.017-.03-.008-.172-.064-.092-.038-.019-.06-.013.006-.017.01-.04.025-.002.003-.001.005.006.103-.05-.005-.07-.092-.047.03-.024-.04-.082-.024-.029.003-.005.002-.038.019-.054.044-.002.02.013.004-.016.002-.048-.004-.05-.04-.006-.007L15 9.87l.024-.018.012-.016.015-.033-.01-.022-.01-.017v-.049l.006-.017.011-.022.01-.01.055-.092-.038-.036-.04.01-.001-.02.01-.195.001-.013.04-.036.013-.004.013.009.03.017.012.003.027.003.001-.013v-.004l-.003-.005-.009-.009-.012-.019-.004-.01.001-.003.027-.071.137-.005.028.007.022.002h.017l.01-.004.01-.007.012-.011.016-.027zM13.488 15.384l.031.006.023.02.086.087-.001.014-.008.055-.01.058.013.01.04.006.15.043.066.024.015.021.05.048.041.087-.002.006-.002.003-.024.019-.032.007-.014.014-.033.039.005.01.043.037.11.057.009.007.037.039.047.056.034.068-.002.012-.006.02-.023.021-.011.032v.017l.006.05.008.041.003.006.018.02.003.002.024-.007.017.005.034.025.052.052-.01.068.129.02.111.11.138.078.057.001.033.006.048.025.02.03.095.157-.002.114-.01.009-.02.023-.075.136-.02.057-.01.11-.005.022-.143.096-.002.009.002.008.012.044.016.025.063.087.006.007.008.004.016.004.15.042.005.002.014.054.026.174.092.193.033.045.013.011-.011.013.032.02.041.014.018.002.005-.014.003-.003h.01l.01.015.003.007.005.046.004.069v.018l-.002.004-.02.026.058.085.23.177.01.041-.006.024.05.09.016.008.038.012.169.024h.022l.005-.003-.007-.02-.012-.014-.003-.023.02-.002.028.003.099.016.01.002.053.028.069.063.068.086.196.254.03.04.055.048.032.024.008.004h.012l.002.098.03.03.037.025.028.016.059.023.02-.006.024-.009.046-.011h.014l.016.006.082.057.047.036.107.116.02.028.022.074.033.14.037.024.147.096h.007l.022-.004-.002-.029-.004-.014-.003-.017.001-.03.05-.018.116.005.01.005.005.006.085.09.036.045.025.056.022.048.039.043.011.004h.03l.062-.003.01-.005.014-.013h.02l.195.279.043.087-.02.072-.022.07-.03.053.043.074.04.186.001.054-.045.148-.154.21-.007.006-.048-.012-.098-.05-.009-.006-.168-.104-.18-.066-.013.053-.006.01-.026.029-.036.03-.017.007-.066.02.025.03.002.004.024.088-.002.006-.042.127-.009.017-.009.033v.012l.001.006.026.04.005.016v.01l-.003.012-.042.162-.007.016-.005.009-.009.009-.17.17-.018.014-.132.085-.013.007-.015.003-.167.002-.095.052-.017.006-.025.005-.04-.001h-.021l-.02.003-.131.07-.011.007-.011.011-.006.01-.011.024-.008.013-.077.088-.012.01-.013.008-.014.006-.01.002-.063.004-.096.015-.007.002-.01.007-.007.01-.001.006-.002.022-.003.01-.032.067-.03.036-.005.006-.073.056-.087.07-.017.02-.004.006-.001.01.01.06.006.025.01.023.022.027.097.077.067.054.027.027.014.017.01.017.002.008.031.12.008.014.009.008.08.015.017.007.007.006.031.043.076.115.094.165.007.015.002.015-.003.01-.087.15-.125.244v.006l.002.007.018.02.03.02.112.009.032-.003.01-.004.024-.017.005-.006.003-.006-.003-.004.008-.014.005-.002.017-.001.066.031.01.007.049.06.072.172.004.015-.006.025-.01.01-.044.05-.062.094-.003.022-.019.146v.005l.005.005.01.009.012.004.01.007.003.009.005.074v.024l-.092.097-.007.003-.006-.001-.089-.035-.027-.012-.099-.054-.258-.17-.023-.022-.025-.04-.012-.033.004-.011.024-.063.033-.033-.09-.182-.05-.015-.13-.034h-.041l-.028.006-.131.028-.01.003-.018.024-.03.063-.163.08-.031.003-.082-.08-.06-.08-.004-.009-.176-.018-.06-.022-.008-.005.005-.015-.16.059-.04-.116.013-.021.015-.036-.005-.015-.015-.02-.017.006-.145.138-.004.113.039.082.01.033.016.064v.007l-.001.008-.005.007-.005.003-.046.01-.125-.003-.11-.01-.051-.03-.095.027-.121-.015-.13.017-.11.04-.039.067-.007.005-.034-.003-.094-.016-.327-.002-.04-.006-.06.037-.003.005-.038.08-.004.037V25.051l.004.01.002.045-.036.037-.008.004-.148.032-.116-.01-.022-.006-.016-.02-.008.004-.008.006-.046.051-.006.012-.057.064-.184.159-.019.032-.005.013-.011.032-.014.017-.026.015-.007.002-.097.01-.009-.001-.005-.007.003-.014.037-.062.03-.027-.006-.013-.005-.003-.102-.003-.115.044-.012.006-.043.024-.116.057-.178.008-.023-.001-.04-.008-.021-.01-.004-.039.005-.015.003-.004.02-.003.009-.009-.004-.03-.053-.061-.078-.078-.11-.023h-.007l-.016-.008-.005-.013.002-.045.015-.014.066-.049-.046-.064-.074.008-.13.05-.08-.015-.164-.065-.007-.02v-.01l.001-.007-.002-.009L10.7 25l-.042-.003-.027.03-.015.03v.006l-.02.048-.01.001-.105-.004-.082-.016-.066-.041-.016-.011.015-.021.02-.025.008-.033-.001-.027h-.01l-.073.011-.004.002-.013.021.004.247.022.058.006.006.006.002.014-.006.022.01.016.019.003.025.011.127-.134.175-.163.202-.05.048-.1.06-.092.033-.15.026h-.01l-.004-.013-.001-.017.008-.03.008-.025.088-.198.021-.026.025-.034.001-.004-.002-.028-.016-.021-.005-.002-.106-.011-.03.022v.035l.001.013-.009.008-.154.048-.053-.164.019-.036.02-.008.004-.003.023-.036-.03-.051-.03-.038-.064-.071-.069-.027-.03.008h-.017l-.005-.002-.013-.013-.071-.118V25.102l.007-.027-.008.007-.073.038-.025.01-.113.004-.137-.064-.001-.007.004-.012.005-.003.005-.002.006-.007.005-.01.004-.062-.009-.028-.05-.03H8.79l-.055.002-.027.02-.022.03-.084.113-.128-.039-.107-.043-.03-.019-.01-.027.089-.066.042-.028.079.007.002.012.003.007.009.006.014.005.105-.005.185-.183.002-.004.161-.009.183-.002.01-.017.036-.043.008-.008.005-.003.045-.007.087.016.001.001.011.019.001.003.03.116-.003-.01.014-.037.013-.014.02-.026.016-.009.023.005h.007l.037-.033.023-.073v-.02l-.086-.204-.001-.12.034-.001.044-.04-.01-.025-.014-.01-.018-.02-.017-.036-.016-.082-.005-.114v-.024l.007-.059.013-.046-.027-.017-.011-.01-.009-.008-.007-.013-.005-.02.002-.019.004-.015.004-.008.006-.006.009-.005.024-.005.022-.005.002-.034.008-.06.014-.023.018-.018.006-.022.009-.079-.002-.097-.006-.111-.028-.024-.028-.03-.003-.005-.009-.021-.029-.091v-.016l-.01-.022-.011-.057-.005-.026-.041-.29-.033-.03-.096-.146-.027-.05-.013-.065.05-.116.005-.007.041-.073.01-.056-.006-.023-.01-.015.053-.004.111-.062.032.024.039.044.077-.016.16-.136-.007-.018-.008-.017.052-.026.008-.004.016-.002.032.014h.02l.021-.003.036-.02.003-.128-.002-.02-.032-.187-.044-.059-.04-.054-.019-.026.002-.044.002-.007.028-.08.136.042.021.006.16-.033.055-.003.011.008.005.006.002.01-.033.07-.015.01-.003.007.001.008h.035l.074-.023.049-.053.011-.014-.01-.021h-.008l-.021-.02-.023-.084-.002-.028-.085-.027h-.007l-.01-.106.024-.01.04-.102.002-.002.011-.168.005-.201-.013-.061-.017-.02-.003-.005-.043-.043-.024-.065-.005-.011-.206-.145-.14-.058-.005-.034v-.023h.005l.014-.006-.045-.218-.07-.123-.057-.023-.05-.026-.087-.057-.01-.012-.001-.005.007-.203.032-.089-.018-.028-.066-.141-.003-.011-.002-.01.01-.115.011-.02.077-.003.023-.01.009-.015.002-.007-.02-.055-.039-.074-.04-.128-.004-.002-.034-.043-.002-.02.001-.007.008-.015.013-.012-.01-.045-.027-.058-.022-.036-.038-.007-.011.003-.052.047-.001.003.008.01.022.02.021.005-.018.03-.006.007-.073.079-.012.004-.136.008-.051-.011-.007-.004-.027-.026.005-.023.014-.014.005-.012.001-.004.006-.137-.006-.036v-.004l-.024-.072-.004-.01-.009-.001-.015.001-.01.002-.058-.089-.008-.032-.08-.273-.023-.023-.057-.055-.037.012-.142.047-.089.05-.03.014-.018.002-.048-.026-.017-.023.013-.046.004-.002.018-.01.002-.01.021-.195-.004-.032-.041.019-.144.135-.004.003h-.008l-.009-.005-.086-.054-.01-.008-.008-.013-.002-.007.002-.012.005-.02v-.008l-.002-.007-.01-.008-.007-.006-.008-.003-.043.005-.006.005-.014.017-.022.035-.042-.017-.187.009-.076.008-.014.002-.01.004-.003.007v.02l.016.06.05.083.03.043.02.003.025-.002.01-.003.002-.053-.005-.017.012-.02.03.008.035.058.015.055-.025.108.017.016-.007.018-.022.027-.05.01-.078-.025-.1-.014-.043.06-.023.036.019.026.002.008-.081.1-.02.01-.04.012-.02.005-.043.008h-.166l-.007-.002-.032-.012-.03-.054.027-.227.046-.122.016-.008.055-.14-.04-.174-.006-.004-.008-.002-.026-.006H7.27l-.146-.143-.01-.009-.002-.013-.004-.047-.001-.02.007-.002.03.003-.023-.03-.004-.008-.013-.1-.003-.067-.005-.093-.013-.099v-.007l-.013-.015.053-.03-.012-.126-.004-.01-.01-.008-.006-.002-.017-.005-.02-.001-.01.002L7 16.656l.022-.042.015-.081.025-.04.018-.02.004-.002.453-.121.325.062.01.003.004.004.063.14.018.015h.006l.046-.005.171-.03.014-.039v-.026l-.015-.034-.008-.04-.022-.132.011-.112.04-.082.037.012.102.025h.027l.053-.004.004-.003.003-.014.031-.078.024-.042.01-.017.005-.006.057-.02h.026l.025-.01.054-.048.026-.025.014-.026.004-.013.003-.036-.003-.053-.008-.019-.024-.032.023-.021.006-.01.019-.07.011-.053.12-.033.025.02.076.03.052-.006.04-.016.04-.024.04-.032.053-.03.119-.124.031-.045.016-.043.01-.054-.001-.025.009-.002.012-.006.034-.032.06-.066L9.69 15l.018.002.062.078.048.065.158.063.018.015.017.017.082.168.013.08v.018l.018.025h.006l.062.007.032-.014.03-.014.008.033.01.038.077.082.134.049.103.023-.01.092-.01.116.021.094.015.038.006.014.062.015.175.063.01-.002.006-.002.015-.025-.005-.057-.004-.003-.002-.055.003-.007.01-.007.02.004.08.018.095.02.01.002.023-.006.023-.015.005-.006.008-.02-.002-.044-.014-.018-.02-.01-.043-.013-.02-.005-.007-.002-.185-.127-.012-.01-.003-.012-.006-.1.007-.03.252-.1.224-.002h.005l.006.002.019.018.038.066.045.048.12.02.014.003.046-.016.04-.016.012-.037.004-.004.025-.005h.03l.055.044.046.078-.002.02-.014.004-.019.014-.01.009-.015.016-.004.018.004.016v.004l.024.033.074.07.028-.001.003-.005.032-.062.104-.016.068-.225v-.002l-.04-.246-.01-.028-.016-.005-.023-.015-.004-.07v-.007l.005-.02.008-.008.014-.005.015.005.004.005.05-.023.074-.058.008-.024.036-.038.006-.002.053-.007.117.022.009.007.01.016.02.027v.004l-.01.023-.002.003H12.4l-.015.02-.005.052.002.069.003.018.003.006.067.039.059-.007.018.071.022.039.057.06.02.01.063-.019.015-.013v-.007l.006-.025.005-.009.005-.003.044-.01.013.007.01.007.014.016.02.017.01.006h.006l.42-.056.138-.048z"/>
        <path d="M6.281 18.66l.029.012.005.001h.144l.038-.007.018-.004.034-.01.017-.01.07-.095-.002-.007-.016-.024.02-.034.037-.056.087.013.068.023.043-.008.02-.026.006-.016-.016-.016.022-.1-.012-.052-.03-.054-.027-.007-.01.017.004.017-.001.05-.01.002-.02.002-.019-.002-.025-.041-.044-.078-.014-.057v-.017l.003-.008.008-.003.013-.002.065-.007.163-.009.036.016.02-.032.01-.016.006-.005.038-.004.007.002.006.006.008.008.003.006v.008l-.006.018v.011l.001.007.007.012.008.007.075.051.008.004h.006l.004-.002.125-.127.035-.017.005.03-.019.183-.002.009-.016.008-.003.003-.011.042.015.023.042.023.015-.002.026-.013.078-.046.122-.044.032-.012.05.052.02.022.07.255.006.03.05.083.009-.002.013-.001.008.002.003.008.02.068.001.004.005.033-.005.128v.004l-.005.012-.012.013-.004.02.023.025.006.004.044.01.118-.007.01-.004.064-.074.005-.006.016-.028-.019-.005-.019-.018-.007-.01.002-.003.044-.044.01-.003.033.007.02.034.023.054.008.041-.011.012-.007.014-.001.006.001.019.03.04.004.002.035.12.033.07.018.051-.002.007-.008.014-.02.01-.067.001-.009.02-.009.107.002.009.002.01.058.133.015.026-.027.082-.007.19.001.006.009.01.075.054.044.024.05.022.06.115.04.203-.013.006H8.53v.022l.005.031.122.054.178.136.004.011.021.06.038.04.002.005.015.019.01.057-.003.188-.01.157v.002l-.036.096-.02.009.007.1.006-.001.074.025.002.027.02.078.018.019h.007l.009.019-.01.013-.043.05-.063.02-.03.002-.002-.008.003-.006.013-.01.029-.065-.002-.01-.004-.005-.01-.008-.047.003-.14.031-.017-.006-.118-.039-.025.075-.002.006-.001.041.016.025.035.05.038.055.028.175.002.019-.003.12-.031.018-.02.003H8.58l-.027-.013-.015.002-.007.003-.045.025.007.016.006.017-.139.127-.066.015-.034-.041-.027-.022-.097.057-.046.004.01.014.004.022-.009.052-.035.069-.004.006-.044.108.011.061.024.047.083.137.028.028.036.27.004.025.01.053.009.02v.015l.025.086.007.02.003.004.025.028.024.023.005.104.001.09-.007.074-.005.021-.016.017-.012.02-.007.058-.002.031-.019.004-.02.005-.008.005-.005.006-.004.007-.004.015-.001.017.004.018.006.013.008.008.01.008.023.016-.011.044-.006.055v.023l.004.106.013.077.016.033.015.02.013.009.008.024-.039.036h-.03l.002.114.075.19v.018l-.02.069-.032.031H8.25l-.02-.004-.013.007-.02.023-.006.013-.012.035.002.009-.025-.108-.001-.004-.01-.017v-.001l-.076-.016-.04.008-.004.002-.007.008-.03.04-.01.015-.158.003-.14.008-.002.004-.16.17-.091.005-.013-.004-.007-.006-.003-.007-.002-.01-.068-.007-.037.026-.077.062h-.06l-.025-.003-.01-.005-.01-.005-.041-.048-.023-.058-.004-.026-.012-.024-.019-.028L7 24.701l-.143-.048-.028-.008-.018-.001-.012.002-.038.006-.007.001-.016.01-.015.004h-.01l-.008-.004-.026-.015-.06-.033-.078-.056-.03-.028-.023-.024-.015-.027-.005-.016-.004-.026.002-.005v-.012l-.002-.003-.018-.017-.223-.154-.061-.04-.008-.004-.01-.019-.009-.007-.044-.008-.012.02-.006.014v.004l.004.008.072.078.022.019.016.012.096.068.004.001.015-.002h.009l.048.043.075.166.012.049-.046.03-.04.006-.074-.032-.067-.037-.011-.007-.014-.005-.072-.017-.013-.002-.052-.006h-.008l-.01.002-.035.015-.034.019-.013.009-.014.014-.023.014-.036.018-.085.026h-.006l-.037-.023-.134-.122-.029.055-.008.001-.017-.007-.111-.05-.003-.01-.03-.108.008-.027.019-.022-.034-.057-.047-.043-.068-.023.008.035-.011.019-.006.008-.027.019-.008-.004-.017-.026-.009-.105-.082-.017-.022.033-.012.037-.094.021-.044.008-.031.027-.034.046-.094.17-.015.062.001.005.012.022.116.088.006.002.114-.049-.004-.018.012-.008.04-.017.017-.004.075-.007h.007l.01.003.043.061v.01l-.01.028-.044.094-.026.029-.016.015-.03-.005-.008-.016.006-.022.008-.003.002-.005-.001-.008-.004-.006-.022-.025-.037-.02-.001-.001-.034-.008-.109.09.04.052.01.017.001.003-.016.012-.044.015-.054.015-.014.002-.195-.017-.01-.002-.005-.002-.007-.004-.048-.046-.005-.007-.004-.01v-.011l.006-.028-.001-.003-.006-.007-.018-.009-.054-.015-.093-.019-.015-.002-.008.002-.006.003-.181.11-.01.01-.004.007-.002.008-.003.027-.006.012-.012.01-.008.004-.134.018h-.006l-.121-.028-.098-.041-.03-.048-.005-.005-.011-.005h-.007l-.103.003-.042.043-.006.012-.03.034-.015.008-.078.03-.112.033-.008.001-.024-.002-.022-.01-.005-.004-.036-.04-.02-.033.008-.005.014.005.072-.031v-.01l-.004-.028-.01-.03-.17-.046-.126-.174-.006-.01-.004-.013-.002-.01L3 24.471l.003-.012.003-.006.047-.039.006-.007.008-.012.008-.02.004-.02v-.011l-.005-.017-.028-.088-.002-.013.002-.025.003-.011.027-.067.036-.087.006-.021L3.12 24l-.002-.018-.01-.029-.002-.012v-.02l.004-.017.053-.145.053-.078.014-.02.015-.03.004-.014v-.02l-.01-.038-.008-.019-.013-.024-.062-.082-.005-.007-.002-.009v-.01l.005-.133.001-.013.018-.096v-.014l.004-.009.045-.103.005-.01.064-.087.069-.098.005-.013.01-.033.02-.07.02-.113.003-.01.006-.015.012-.015.013-.01.05-.02.013-.008.006-.007.005-.006.005-.011.002-.01v-.009l-.02-.119-.003-.027v-.018l.002-.022.004-.02.006-.02.062-.159.067-.143.009-.013.01-.02.002-.017v-.013l.002-.109-.002-.027-.007-.034v-.014l.001-.01.005-.013.078-.16.004-.007.007-.007.035-.016.043-.025.015-.012.139-.168.022-.11.004-.01.004-.004.014-.007h.012l.073-.02.101-.075.023-.021.02-.026.013-.02.007-.017.005-.024.008-.038.013-.039.017-.05.01-.027.012-.027.026-.05.098-.162.01-.01.008-.005.058-.02.012-.007.047-.037.03-.026.013-.013.009-.014.008-.016.012-.028.003-.01.002-.01.006-.042.006-.028.013-.036.01-.02.021-.032.029-.032.02-.026.013-.023.005-.016.07-.314-.004-.054h-.008l.001-.022.006-.019.008-.016.01-.013.015-.014.016-.01.042-.029.015-.013.051-.06.04-.022.003-.006.001-.013-.003-.017-.007-.01-.01-.01-.007-.005-.03-.01-.007-.004-.005-.007-.004-.012-.001-.013v-.006l.005-.01.006-.01.015-.015.013-.01.013-.01.015-.015.017-.027.01-.026.008-.028.001-.017-.001-.026-.005-.07.022-.064v-.01l-.002-.01-.01-.012-.01-.005-.017-.003h-.03l-.018.002-.017-.003-.007-.004-.008-.006-.004-.006-.004-.007v-.011l.003-.01.007-.007.006-.005-.012-.098-.002-.018-.032-.136-.013-.026-.003-.009-.001-.011v-.013l.004-.015.012-.022.002-.034.005-.003.03-.015.01-.003h.008l.029.003.016.014.042.04.06.08.01.035.02.026.026.021.013.006.009.003.027-.002.05-.041.02-.034.003-.016v-.016l-.026-.124-.018.003-.007-.012v-.024l.008-.019.05-.015.114-.03.028.007.004.015-.015.03-.003.003-.013-.004-.002-.006-.01.006.054.233.042.03.067.032.014.004.189.04h.07l-.005.02.006.037-.068.065-.067.024-.051.114-.011.027.008.026.018.02.014.003.054.002h.004l.007-.006.189-.181-.016-.026-.022-.02.006-.02.011-.022.046-.055.03-.023.008-.004.164-.055.034.008.043.053.026-.007.009-.013v-.013l-.016-.043-.01-.007-.047-.027.015-.013.005-.007.011-.03-.003-.002.004-.05zm-.836 5.908l-.024-.08-.008-.01-.084.007.007.094.021.022.068-.01.024-.003-.004-.02z"/>
    </g>
</svg>
