<svg xmlns="http://www.w3.org/2000/svg" width="59" height="60" viewBox="0 0 59 60">
    <g fill="none" fill-rule="nonzero">
        <path fill="#65FED1" d="M50.411 8.87l-3.916 3.856-5.655 5.7a15.762 15.762 0 0 1 3.424 17.19 15.79 15.79 0 0 1-14.59 9.739 15.79 15.79 0 0 1-14.588-9.738 15.762 15.762 0 0 1 3.424-17.19L35.943 1.018C33.695.5 31.186.355 28.489.442c-3.573.116-8.349 1.35-11.53 2.695-3.182 1.344-8.02 5.73-8.02 5.73a29.274 29.274 0 0 0-7.833 28.412 29.31 29.31 0 0 0 20.861 20.84 29.347 29.347 0 0 0 28.443-7.826c11.452-11.436 11.452-29.982.001-41.422z"/>
        <path fill="#6EFFD1" d="M40.84 18.426l9.571-9.56c-11.452-11.438-30.019-11.438-41.47 0l9.57 9.56c6.166-6.158 16.163-6.158 22.33 0z"/>
        <path fill="#2BE5FF" d="M45.152 26.463c1.49 7.382-2.45 14.787-9.41 17.681a15.8 15.8 0 0 1-19.191-5.788 15.761 15.761 0 0 1 1.957-19.93L36.004 1.023c-.366 0-3.308-.729-8.139-.55-4.83.18-5.91.652-11.314 2.857C13.772 4.463 8.94 8.866 8.94 8.866c-11.451 11.44-11.451 29.987 0 41.427.179.179.36.355.541.528 15.629 14.84 41.088.182 36.447-20.853l-.776-3.505z"/>
    </g>
</svg>
