<?xml version="1.0" encoding="utf-8"?>
<!-- Generator: Adobe Illustrator 21.0.0, SVG Export Plug-In . SVG Version: 6.00 Build 0)  -->
<svg version="1.1" id="Layer_1" xmlns="http://www.w3.org/2000/svg" xmlns:xlink="http://www.w3.org/1999/xlink" x="0px" y="0px"
	 viewBox="0 0 182 60" style="enable-background:new 0 0 182 60;" xml:space="preserve">
<style type="text/css">
	.st0{fill:#65FED1;}
	.st1{fill:#6EFFD1;}
	.st2{fill:#2BE5FF;}
	.st3{enable-background:new    ;}
	.st4{fill:#112233;}
</style>
<title>Group 3</title>
<desc>Created with Sketch.</desc>
<g id="Final">
	<g id="_x30_4_x5F_Kein-Suchergebnis-" transform="translate(-31.000000, -44.000000)">
		<g id="Group-3" transform="translate(31.000000, 44.000000)">
			<path id="_Path_3" class="st0" d="M50.4,8.9l-3.9,3.9l-5.7,5.7c4.5,4.5,5.9,11.3,3.4,17.2s-8.2,9.7-14.6,9.7s-12.1-3.8-14.6-9.7
				c-2.4-5.9-1.1-12.7,3.4-17.2L35.9,1c-2.2-0.5-4.8-0.7-7.5-0.6C24.9,0.6,20.1,1.8,17,3.1s-8,5.7-8,5.7C1.4,16.2-1.6,27.1,1.1,37.3
				C3.8,47.5,11.8,55.4,22,58.1c10.2,2.7,21.1-0.3,28.4-7.8C61.9,38.9,61.9,20.3,50.4,8.9z"/>
			<path id="_Path_" class="st1" d="M40.8,18.4l9.6-9.6C39-2.6,20.4-2.6,8.9,8.9l9.6,9.6C24.7,12.3,34.7,12.3,40.8,18.4L40.8,18.4z"
				/>
			<path id="_Path_5" class="st2" d="M45.2,26.5c1.5,7.4-2.5,14.8-9.4,17.7s-15,0.5-19.2-5.8s-3.4-14.6,2-19.9L36,1
				c-0.4,0-3.3-0.7-8.1-0.5S22,1.1,16.6,3.3c-2.8,1.1-7.6,5.5-7.6,5.5c-11.5,11.4-11.5,30,0,41.4c0.2,0.2,0.4,0.4,0.5,0.5
				C25.1,65.7,50.6,51,45.9,30L45.2,26.5z"/>
			<g class="st3">
				<path class="st4" d="M94.8,27.7c0,2.2-0.7,4-2,5.4c-1.4,1.4-3.1,2.1-5.3,2.1c-2.1,0-3.9-0.7-5.2-2.1c-1.3-1.4-2-3.2-2-5.4v-3.2
					c0-2.2,0.7-4,2-5.4c1.3-1.4,3.1-2.1,5.2-2.1c2.2,0,3.9,0.7,5.3,2.1c1.4,1.4,2.1,3.2,2.1,5.4V27.7z M91.8,24.5
					c0-1.5-0.4-2.7-1.2-3.7c-0.8-1-1.9-1.4-3.2-1.4c-1.3,0-2.3,0.5-3.1,1.4s-1.1,2.2-1.1,3.7v3.2c0,1.5,0.4,2.7,1.1,3.7
					c0.8,1,1.8,1.4,3.1,1.4c1.4,0,2.4-0.5,3.2-1.4c0.8-1,1.2-2.2,1.2-3.7V24.5z"/>
				<path class="st4" d="M98.9,35V24h-2v-2.2h2v-1.5c0-1.5,0.4-2.6,1.2-3.4c0.8-0.8,1.9-1.2,3.3-1.2c0.3,0,0.6,0,0.9,0.1
					c0.3,0,0.6,0.1,1,0.2l-0.3,2.3c-0.2,0-0.3-0.1-0.5-0.1c-0.2,0-0.4,0-0.6,0c-0.6,0-1.1,0.2-1.4,0.5c-0.3,0.4-0.5,0.9-0.5,1.6v1.5
					h2.7V24h-2.7v11H98.9z"/>
				<path class="st4" d="M108,35V24h-2v-2.2h2v-1.5c0-1.5,0.4-2.6,1.2-3.4c0.8-0.8,1.9-1.2,3.3-1.2c0.3,0,0.6,0,0.9,0.1
					c0.3,0,0.6,0.1,1,0.2l-0.3,2.3c-0.2,0-0.3-0.1-0.5-0.1c-0.2,0-0.4,0-0.6,0c-0.6,0-1.1,0.2-1.4,0.5c-0.3,0.4-0.5,0.9-0.5,1.6v1.5
					h2.7V24h-2.7v11H108z"/>
				<path class="st4" d="M121.7,35.3c-1.9,0-3.4-0.6-4.5-1.8c-1.1-1.2-1.7-2.8-1.7-4.7v-0.5c0-1.9,0.6-3.5,1.7-4.8
					c1.1-1.3,2.5-1.9,4.1-1.9c1.8,0,3.1,0.5,4.1,1.6c0.9,1.1,1.4,2.5,1.4,4.3v1.7h-8.2l0,0.1c0,1,0.4,1.9,0.9,2.6
					c0.6,0.7,1.3,1,2.4,1c0.8,0,1.5-0.1,2.1-0.3s1.1-0.5,1.6-0.8l1,1.9c-0.5,0.4-1.2,0.8-2,1.1C123.8,35.1,122.8,35.3,121.7,35.3z
					 M121.4,23.9c-0.7,0-1.3,0.3-1.8,0.9c-0.5,0.6-0.8,1.3-0.9,2.2l0,0.1h5.2v-0.3c0-0.8-0.2-1.5-0.6-2.1
					C122.9,24.2,122.3,23.9,121.4,23.9z"/>
				<path class="st4" d="M132.3,21.8l0.2,1.9c0.4-0.7,1-1.2,1.6-1.6c0.7-0.4,1.4-0.6,2.2-0.6c1.4,0,2.4,0.4,3.2,1.3
					c0.8,0.8,1.2,2.1,1.2,3.9V35h-3v-8.3c0-1-0.2-1.7-0.6-2.1c-0.4-0.4-1-0.6-1.9-0.6c-0.6,0-1.1,0.1-1.5,0.4
					c-0.5,0.3-0.8,0.6-1.1,1.1V35h-3V21.8H132.3z"/>
				<path class="st4" d="M149.7,35.3c-1.9,0-3.4-0.6-4.5-1.8c-1.1-1.2-1.7-2.8-1.7-4.7v-0.5c0-1.9,0.6-3.5,1.7-4.8
					c1.1-1.3,2.5-1.9,4.1-1.9c1.8,0,3.1,0.5,4.1,1.6c0.9,1.1,1.4,2.5,1.4,4.3v1.7h-8.2l0,0.1c0,1,0.4,1.9,0.9,2.6
					c0.6,0.7,1.3,1,2.4,1c0.8,0,1.5-0.1,2.1-0.3c0.6-0.2,1.1-0.5,1.6-0.8l1,1.9c-0.5,0.4-1.2,0.8-2,1.1
					C151.8,35.1,150.8,35.3,149.7,35.3z M149.4,23.9c-0.7,0-1.3,0.3-1.8,0.9c-0.5,0.6-0.8,1.3-0.9,2.2l0,0.1h5.2v-0.3
					c0-0.8-0.2-1.5-0.6-2.1C150.9,24.2,150.3,23.9,149.4,23.9z"/>
				<path class="st4" d="M164.2,24.5l-1.3,0c-0.6,0-1.1,0.1-1.4,0.4c-0.4,0.2-0.7,0.6-0.9,1V35h-3V21.8h2.7l0.2,1.9
					c0.3-0.7,0.8-1.2,1.3-1.6c0.5-0.4,1.1-0.6,1.8-0.6c0.2,0,0.3,0,0.5,0c0.2,0,0.3,0.1,0.4,0.1L164.2,24.5z"/>
			</g>
			<g class="st3">
				<path class="st4" d="M94.8,58h-3v-7.6h-8V58h-3V40.2h3V48h8v-7.8h3V58z"/>
				<path class="st4" d="M106.6,58c-0.1-0.3-0.2-0.7-0.3-1c-0.1-0.3-0.1-0.6-0.1-1c-0.4,0.6-0.9,1.1-1.6,1.6
					c-0.7,0.4-1.4,0.6-2.2,0.6c-1.4,0-2.4-0.4-3.2-1.1c-0.7-0.7-1.1-1.7-1.1-2.9c0-1.3,0.5-2.3,1.5-3c1-0.7,2.4-1.1,4.3-1.1h2.3
					v-1.2c0-0.7-0.2-1.2-0.6-1.6c-0.4-0.4-1-0.6-1.7-0.6c-0.7,0-1.2,0.2-1.6,0.5c-0.4,0.3-0.6,0.7-0.6,1.3h-2.9l0-0.1
					c-0.1-1,0.4-2,1.4-2.8c1-0.8,2.3-1.2,3.9-1.2c1.5,0,2.8,0.4,3.7,1.2c0.9,0.8,1.4,1.9,1.4,3.4V55c0,0.5,0,1.1,0.1,1.6
					c0.1,0.5,0.2,1,0.4,1.5H106.6z M102.9,55.9c0.7,0,1.4-0.2,2-0.6c0.6-0.4,1-0.8,1.2-1.3v-2h-2.4c-0.9,0-1.5,0.2-2,0.6
					c-0.5,0.4-0.7,0.9-0.7,1.5c0,0.5,0.2,0.9,0.5,1.2C101.9,55.7,102.3,55.9,102.9,55.9z"/>
				<path class="st4" d="M120.8,56.1c-0.4,0.7-0.9,1.2-1.6,1.6c-0.6,0.4-1.4,0.6-2.2,0.6c-1.4,0-2.5-0.5-3.3-1.4
					c-0.8-0.9-1.2-2.3-1.2-4.2v-7.9h3v7.9c0,1.2,0.2,2,0.6,2.4s0.9,0.7,1.7,0.7c0.7,0,1.3-0.1,1.8-0.4c0.5-0.3,0.9-0.6,1.1-1.1v-9.5
					h3V58H121L120.8,56.1z"/>
				<path class="st4" d="M134.4,54.4c0-0.5-0.2-0.8-0.6-1.1c-0.4-0.3-1.1-0.6-2.2-0.8c-1.6-0.3-2.8-0.8-3.6-1.4
					c-0.8-0.6-1.2-1.5-1.2-2.5c0-1.1,0.5-2.1,1.4-2.8s2.2-1.2,3.7-1.2c1.6,0,2.9,0.4,3.8,1.2c0.9,0.8,1.4,1.8,1.4,2.9l0,0.1h-2.8
					c0-0.5-0.2-1-0.6-1.4c-0.4-0.4-1-0.6-1.7-0.6c-0.7,0-1.3,0.2-1.6,0.5c-0.4,0.3-0.6,0.7-0.6,1.2s0.2,0.8,0.5,1.1
					c0.4,0.3,1.1,0.5,2.2,0.7c1.7,0.3,2.9,0.8,3.7,1.4c0.8,0.6,1.2,1.5,1.2,2.5c0,1.2-0.5,2.2-1.5,2.9s-2.3,1.1-3.9,1.1
					c-1.7,0-3.1-0.4-4.1-1.3c-1-0.9-1.5-1.9-1.4-3l0-0.1h2.8c0,0.8,0.3,1.3,0.8,1.7c0.5,0.3,1.2,0.5,1.9,0.5c0.8,0,1.4-0.1,1.8-0.4
					S134.4,54.9,134.4,54.4z"/>
				<path class="st4" d="M143.2,46.5c0.4-0.6,1-1.1,1.6-1.4s1.3-0.5,2.1-0.5c1.4,0,2.5,0.4,3.3,1.3c0.8,0.9,1.2,2.2,1.2,4.1v8h-3
					v-8.1c0-1-0.2-1.8-0.6-2.3c-0.4-0.5-1-0.7-1.9-0.7c-0.6,0-1.1,0.1-1.6,0.4c-0.5,0.2-0.8,0.6-1.1,1V58h-3V39h3V46.5z"/>
				<path class="st4" d="M162.7,58c-0.1-0.3-0.2-0.7-0.3-1c-0.1-0.3-0.1-0.6-0.1-1c-0.4,0.6-0.9,1.1-1.6,1.6
					c-0.7,0.4-1.4,0.6-2.2,0.6c-1.4,0-2.4-0.4-3.2-1.1s-1.1-1.7-1.1-2.9c0-1.3,0.5-2.3,1.5-3c1-0.7,2.4-1.1,4.3-1.1h2.3v-1.2
					c0-0.7-0.2-1.2-0.6-1.6c-0.4-0.4-1-0.6-1.7-0.6c-0.7,0-1.2,0.2-1.6,0.5c-0.4,0.3-0.6,0.7-0.6,1.3h-2.9l0-0.1
					c-0.1-1,0.4-2,1.4-2.8c1-0.8,2.3-1.2,3.9-1.2c1.5,0,2.8,0.4,3.7,1.2s1.4,1.9,1.4,3.4V55c0,0.5,0,1.1,0.1,1.6
					c0.1,0.5,0.2,1,0.4,1.5H162.7z M159.1,55.9c0.7,0,1.4-0.2,2-0.6c0.6-0.4,1-0.8,1.2-1.3v-2h-2.4c-0.9,0-1.5,0.2-2,0.6
					c-0.5,0.4-0.7,0.9-0.7,1.5c0,0.5,0.2,0.9,0.5,1.2S158.5,55.9,159.1,55.9z"/>
				<path class="st4" d="M171.8,58h-3V39h3V58z"/>
				<path class="st4" d="M179.1,41.6v3.2h2.4V47h-2.4v7.3c0,0.5,0.1,0.9,0.4,1.2c0.2,0.2,0.5,0.3,0.9,0.3c0.2,0,0.3,0,0.5,0
					c0.2,0,0.3-0.1,0.4-0.1l0.3,2.2c-0.3,0.1-0.6,0.2-0.9,0.3c-0.3,0.1-0.7,0.1-1.1,0.1c-1.1,0-1.9-0.3-2.6-1
					c-0.6-0.6-0.9-1.6-0.9-3V47h-2v-2.2h2v-3.2H179.1z"/>
			</g>
		</g>
	</g>
</g>
</svg>
