<?xml version="1.0" encoding="UTF-8"?>
<svg width="182px" height="60px" viewBox="0 0 182 60" version="1.1" xmlns="http://www.w3.org/2000/svg" xmlns:xlink="http://www.w3.org/1999/xlink">
    <!-- Generator: Sketch 47.1 (45422) - http://www.bohemiancoding.com/sketch -->
    <title>Group 3</title>
    <desc>Created with Sketch.</desc>
    <defs></defs>
    <g id="Final" stroke="none" stroke-width="1" fill="none" fill-rule="evenodd">
        <g id="04_Kein-Suchergebnis-" transform="translate(-31.000000, -44.000000)">
            <g id="Group-3" transform="translate(31.000000, 44.000000)">
                <path d="M8.68151817,8.90933816 L12.5372657,12.8252987 L18.2372185,18.4802001 C22.7484003,13.9637425 29.5331692,12.6124574 35.4276753,15.0564715 C41.3221814,17.5004855 45.1655468,23.2584689 45.1655468,29.6453787 C45.1655468,36.0322885 41.3221814,41.7902718 35.4276753,44.2342859 C29.5331692,46.6783 22.7484003,45.3270149 18.2372185,40.8105573 L0.830059048,23.3776761 C0.309406069,25.6250861 0.165572095,28.1341774 0.253083604,30.8316005 C0.368983728,34.4040641 1.60349655,39.1799222 2.94773483,42.3618069 C4.29197311,45.5436917 8.67726931,50.3807103 8.67726931,50.3807103 C16.0511287,57.918164 26.9010698,60.9096566 37.0901797,58.2145787 C47.2792896,55.5195007 55.2370272,47.5532693 57.9292316,37.3532841 C60.621436,27.1532988 57.633133,16.2917769 50.1037159,8.91004706 C38.6680024,-2.54158716 20.1214805,-2.54158716 8.68151817,8.90933816 Z" id="_Path_3" fill="#65FED1" fill-rule="nonzero" transform="translate(29.565537, 29.754766) rotate(90.000000) translate(-29.565537, -29.754766) "></path>
                <path d="M38.7451264,-1.80751626 L29.1851772,-11.3783782 C17.746461,0.0737945955 17.746461,18.6401122 29.1851772,30.092285 L38.7451264,20.522132 C32.5862596,14.355671 32.5862596,4.35894474 38.7451264,-1.80751626 L38.7451264,-1.80751626 Z" id="_Path_" fill="#6EFFD1" fill-rule="nonzero" transform="translate(29.675633, 9.356953) rotate(90.000000) translate(-29.675633, -9.356953) "></path>
                <path d="M21.2303718,6.91631636 C28.6124742,5.42613789 36.0172729,9.36757154 38.9111517,16.3274595 C41.8050305,23.2873475 39.3807969,31.3243615 33.1226972,35.517809 C26.8645975,39.7112565 18.5182095,38.8914551 13.1936411,33.5603314 L-4.21010038,16.0647531 C-4.21010038,16.4304757 -4.938616,19.3731027 -4.75917264,24.203425 C-4.57972928,29.0337472 -4.10816109,30.1127515 -1.90297147,35.517809 C-0.769426548,38.2961984 3.63369192,43.1290666 3.63369192,43.1290666 C15.0736542,54.579992 33.6201762,54.579992 45.0601385,43.1290666 C45.239063,42.9499512 45.4149188,42.7694179 45.5877061,42.5874669 C60.4275798,26.9590525 45.7696992,1.49960972 24.7349783,6.14077951 L21.2303718,6.91631636 Z" id="_Path_5" fill="#2BE5FF" fill-rule="nonzero" transform="translate(23.417927, 28.650732) rotate(90.000000) translate(-23.417927, -28.650732) "></path>
                <text id="Offener-Haushalt" font-family="Roboto-Medium, Roboto" font-size="25" font-weight="400" line-spacing="23" letter-spacing="0.31249997" fill="#112233">
                    <tspan x="79" y="35">Offener</tspan>
                    <tspan x="79" y="58">Haushalt</tspan>
                </text>
            </g>
        </g>
    </g>
</svg>