<svg xmlns:svg="http://www.w3.org/2000/svg" xmlns="http://www.w3.org/2000/svg" version="1.1" width="165" height="75.699" viewBox="0 0 165 75.699" xml:space="preserve">
  <g transform="matrix(0.10023656,0,0,0.10023656,2.4018681,1.8542113)">
    <path d="m797.32 243.17c-16.88 0-28.19-12.05-28.19-27.7 0-15.65 11.31-27.67 28.19-27.67 16.84 0 28.11 12.09 28.11 27.67 0 15.65-11.26 27.7-28.11 27.7zm0-45c-9.67 0-15.32 6.54-15.32 17.29 0 10.86 5.65 17.29 15.32 17.29 9.59 0 15.25-6.43 15.25-17.29 0-10.75-5.65-17.29-15.25-17.29z"/>
    <path d="m860.32 224.46v18.11h-12.57v-54.18h19.11c15.25 0 21.79 7.7 21.79 17.7 0 10.82-6.8 18.37-21.79 18.37l-6.54 0 0 0zm0-9.48h6.55c6.55 0 9.22-3.27 9.22-8.89 0-4.94-2.9-8.29-9.22-8.29h-6.54v17.18z"/>
    <path d="m946.45 188.39v9.67h-22.24v12.64h17.03v9.3h-17.03v12.9h22.24v9.67h-34.88v-54.18l34.88 0 0 0z"/>
    <path d="m983.64 190.32 25.73 32.54c-0.18-2.08-0.3-4.05-0.3-5.8v-28.67h11.08v54.18h-6.54c-1.93 0-3.16-0.48-4.39-2.08l-25.54-32.28c0.15 1.9 0.26 3.72 0.26 5.32v29.04h-11.08v-54.18h6.62c2.16 0 2.79 0.26 4.16 1.93z"/>
    <path d="m784.53 310.82h2.01c1.86 0 3.2-0.59 4.02-1.75l12.2-17.7c1.34-1.93 2.94-2.49 5.43-2.49h10.93l-16.06 21.9c-1.15 1.6-2.38 2.57-3.68 3.27 1.9 0.71 3.42 1.82 4.72 3.87l16.36 25.14h-11.23c-2.86 0-3.9-0.82-4.91-2.31L792.04 321.9c-0.89-1.38-2.12-1.9-4.46-1.9h-3.05v23.06h-12.57v-54.18h12.57v21.94z"/>
    <path d="m855.12 290.81 25.73 32.54c-0.19-2.08-0.3-4.05-0.3-5.8v-28.67h11.08v54.18h-6.54c-1.93 0-3.16-0.48-4.39-2.08L855.15 308.7c0.15 1.9 0.26 3.72 0.26 5.32v29.04h-11.08v-54.18h6.62c2.16 0 2.79 0.26 4.17 1.93z"/>
    <path d="m943.78 343.65c-16.88 0-28.19-12.05-28.19-27.7 0-15.65 11.31-27.67 28.19-27.67 16.85 0 28.11 12.09 28.11 27.67 0 15.66-11.27 27.7-28.11 27.7zm0-44.99c-9.67 0-15.32 6.54-15.32 17.29 0 10.86 5.65 17.29 15.32 17.29 9.59 0 15.25-6.43 15.25-17.29-0.01-10.75-5.66-17.29-15.25-17.29z"/>
    <path d="m985.65 288.88h10.56c2.19 0 3.72 1.08 4.16 2.72l7.44 28.26c0.48 1.82 1.04 3.94 1.3 6.21 0.48-2.34 1.12-4.39 1.67-6.21l8.78-28.26c0.45-1.38 2.01-2.71 4.09-2.71h3.72c2.19 0 3.61 1.04 4.17 2.72l8.7 28.26c0.56 1.75 1.19 3.68 1.64 5.91 0.41-2.19 0.82-4.16 1.26-5.91l7.44-28.26c0.41-1.45 2.01-2.71 4.09-2.71h9.89l-16.73 54.18h-11.38l-10.19-33.58c-0.33-1.04-0.74-2.31-1.08-3.68-0.33 1.38-0.74 2.64-1.08 3.68l-10.34 33.58h-11.38l-16.73-54.2z"/>
    <path d="m1099.83 333.02h20.08v10.04h-32.65v-54.18h12.57v44.14l0 0z"/>
    <path d="m1181.49 288.88v9.67h-22.24v12.64h17.03v9.3h-17.03v12.9h22.24v9.67h-34.88v-54.18h34.88l0 0z"/>
    <path d="m1228.95 343.06h-21.05v-54.18h21.05c16.85 0 28.11 11.49 28.11 27.07 0 15.66-11.27 27.11-28.11 27.11zm0-44.51h-8.4v34.84h8.4c9.59 0 15.25-6.62 15.25-17.44-0.01-10.75-5.66-17.4-15.25-17.4z"/>
    <path d="m1313.37 332.35v-8.22h-5.35c-1.6 0-2.53-0.93-2.53-2.23v-6.92h19.26v22.87c-5.54 4.05-11.9 5.8-20.75 5.8-15.84 0-27.67-11.82-27.67-27.7 0-16.18 11.16-27.67 28.63-27.67 9.07 0 15.81 3.12 20.15 7.29l-3.64 5.54c-0.71 1.04-1.67 1.67-2.82 1.67-0.74 0-1.52-0.26-2.31-0.74-3.98-2.38-6.77-3.38-11.82-3.38-9.37 0-15.32 6.92-15.32 17.29 0 11.45 6.69 18.04 15.77 18.04 3.45 0 6.02-0.64 8.4-1.64z"/>
    <path d="m1385.07 288.88v9.67h-22.24v12.64h17.03v9.3h-17.03v12.9h22.24v9.67h-34.88v-54.18h34.88l0 0z"/>
    <path d="m806.85 389.36v9.67h-22.24v13.72h18.52v9.71h-18.52v21.09h-12.65v-54.19h34.89l0 0z"/>
    <path d="m889.18 416.43c0 3.92-0.68 7.56-2.03 10.93-1.35 3.37-3.25 6.3-5.71 8.8-2.45 2.49-5.41 4.44-8.87 5.86-3.46 1.41-7.29 2.12-11.51 2.12-4.22 0-8.06-0.71-11.53-2.12-3.47-1.41-6.44-3.36-8.91-5.86-2.47-2.49-4.38-5.42-5.73-8.8-1.35-3.37-2.02-7.02-2.02-10.93 0-3.92 0.67-7.56 2.03-10.94 1.35-3.37 3.26-6.3 5.73-8.77 2.47-2.48 5.44-4.43 8.91-5.84 3.47-1.41 7.31-2.12 11.53-2.12 4.22 0 8.05 0.71 11.51 2.14 3.46 1.43 6.42 3.38 8.87 5.86 2.45 2.48 4.36 5.41 5.71 8.78 1.35 3.37 2.02 7 2.02 10.89zm-12.86 0c0-2.68-0.35-5.09-1.04-7.23-0.69-2.15-1.69-3.96-2.99-5.45-1.3-1.49-2.9-2.63-4.78-3.42-1.88-0.79-4.03-1.19-6.43-1.19-2.43 0-4.59 0.4-6.49 1.19-1.9 0.79-3.5 1.93-4.8 3.42-1.3 1.49-2.3 3.31-2.99 5.45-0.69 2.15-1.04 4.56-1.04 7.23 0 2.7 0.35 5.13 1.04 7.27 0.69 2.15 1.69 3.96 2.99 5.45 1.3 1.49 2.9 2.62 4.8 3.4 1.9 0.78 4.06 1.17 6.49 1.17 2.4 0 4.55-0.39 6.43-1.17 1.88-0.78 3.48-1.92 4.78-3.4 1.3-1.49 2.3-3.3 2.99-5.45 0.69-2.14 1.04-4.57 1.04-7.27z"/>
    <path d="m940.06 433.61c1.69 0 3.19-0.28 4.52-0.84 1.33-0.56 2.45-1.36 3.37-2.4 0.92-1.04 1.62-2.31 2.1-3.81 0.48-1.5 0.73-3.2 0.73-5.11v-32.1h12.57v32.1c0 3.32-0.54 6.37-1.62 9.15-1.08 2.78-2.62 5.17-4.63 7.18-2.01 2.01-4.45 3.57-7.33 4.69-2.88 1.12-6.11 1.67-9.71 1.67-3.62 0-6.87-0.56-9.74-1.67-2.87-1.12-5.32-2.68-7.33-4.69-2.01-2.01-3.54-4.4-4.61-7.18-1.07-2.77-1.6-5.82-1.6-9.15v-32.1h12.57v32.06c0 1.91 0.24 3.61 0.73 5.11 0.48 1.5 1.18 2.78 2.1 3.83 0.92 1.05 2.04 1.86 3.37 2.42 1.32 0.56 2.82 0.84 4.51 0.84z"/>
    <path d="m1001.83 389.43c0.37 0.05 0.71 0.14 1 0.28 0.3 0.14 0.58 0.33 0.86 0.58 0.27 0.25 0.58 0.58 0.93 1l25.74 32.54c-0.1-1.04-0.17-2.05-0.22-3.03-0.05-0.98-0.08-1.9-0.08-2.77v-28.67h11.08v54.19h-6.54c-0.97 0-1.78-0.15-2.45-0.45-0.67-0.3-1.31-0.84-1.93-1.64l-25.55-32.28c0.07 0.94 0.14 1.87 0.19 2.77 0.05 0.91 0.08 1.76 0.08 2.55v29.05h-11.08v-54.19h6.62c0.52 0 0.98 0.02 1.35 0.07z"/>
    <path d="m1121.55 416.43c0 3.92-0.68 7.53-2.03 10.84-1.35 3.31-3.25 6.17-5.71 8.59-2.45 2.42-5.41 4.3-8.87 5.65-3.46 1.35-7.3 2.03-11.51 2.03h-21.05v-54.19h21.05c4.22 0 8.05 0.68 11.51 2.05 3.46 1.37 6.42 3.25 8.87 5.65 2.46 2.4 4.36 5.26 5.71 8.57 1.35 3.32 2.03 6.92 2.03 10.81zm-12.87 0c0-2.68-0.35-5.1-1.04-7.25-0.69-2.16-1.69-3.99-2.99-5.49-1.3-1.5-2.9-2.65-4.78-3.46-1.88-0.8-4.03-1.21-6.43-1.21h-8.4v34.85h8.4c2.4 0 4.55-0.4 6.44-1.21 1.88-0.81 3.48-1.96 4.78-3.46 1.3-1.5 2.3-3.33 2.99-5.48 0.68-2.16 1.03-4.59 1.03-7.29z"/>
    <path d="m1200.31 443.54h-9.74c-1.09 0-1.99-0.25-2.69-0.76-0.71-0.51-1.2-1.16-1.47-1.95l-3.2-9.45h-20.6l-3.2 9.45c-0.25 0.69-0.73 1.32-1.45 1.88-0.72 0.56-1.6 0.84-2.64 0.84h-9.82l20.98-54.19h12.87l20.96 54.18zm-34.8-20.71h14.8l-4.98-14.84c-0.32-0.94-0.7-2.05-1.13-3.33-0.44-1.28-0.86-2.66-1.28-4.15-0.4 1.51-0.81 2.91-1.23 4.2-0.42 1.29-0.81 2.4-1.19 3.35l-4.99 14.77z"/>
    <path d="m1266.36 389.36v9.97h-15.25v44.22h-12.57v-44.22h-15.25v-9.97h43.07z"/>
    <path d="M1307.65 443.54H1295v-54.19h12.65v54.19z"/>
    <path d="m1393.48 416.43c0 3.92-0.68 7.56-2.03 10.93-1.35 3.37-3.25 6.3-5.71 8.8-2.45 2.49-5.41 4.44-8.87 5.86-3.46 1.41-7.3 2.12-11.51 2.12-4.21 0-8.06-0.71-11.53-2.12-3.47-1.41-6.44-3.36-8.91-5.86-2.47-2.49-4.37-5.42-5.73-8.8-1.35-3.37-2.03-7.02-2.03-10.93 0-3.92 0.68-7.56 2.03-10.94 1.35-3.37 3.26-6.3 5.73-8.77 2.47-2.48 5.44-4.43 8.91-5.84 3.47-1.41 7.31-2.12 11.53-2.12 4.22 0 8.05 0.71 11.51 2.14 3.46 1.43 6.41 3.38 8.87 5.86 2.46 2.48 4.36 5.41 5.71 8.78 1.36 3.37 2.03 7 2.03 10.89zm-12.87 0c0-2.68-0.35-5.09-1.04-7.23-0.69-2.15-1.69-3.96-2.99-5.45-1.3-1.49-2.9-2.63-4.78-3.42-1.88-0.79-4.03-1.19-6.44-1.19-2.43 0-4.59 0.4-6.49 1.19-1.9 0.79-3.5 1.93-4.8 3.42-1.3 1.49-2.3 3.31-2.99 5.45-0.69 2.15-1.04 4.56-1.04 7.23 0 2.7 0.35 5.13 1.04 7.27 0.69 2.15 1.69 3.96 2.99 5.45 1.3 1.49 2.9 2.62 4.8 3.4 1.9 0.78 4.06 1.17 6.49 1.17 2.4 0 4.55-0.39 6.44-1.17 1.88-0.78 3.48-1.92 4.78-3.4 1.3-1.49 2.3-3.3 2.99-5.45 0.69-2.14 1.04-4.57 1.04-7.27z"/>
    <path d="m1429.81 389.43c0.37 0.05 0.7 0.14 1 0.28 0.3 0.14 0.58 0.33 0.85 0.58 0.27 0.25 0.58 0.58 0.93 1l25.73 32.54c-0.1-1.04-0.17-2.05-0.22-3.03-0.05-0.98-0.07-1.9-0.07-2.77v-28.67h11.08v54.19h-6.54c-0.97 0-1.78-0.15-2.45-0.45-0.67-0.3-1.31-0.84-1.93-1.64l-25.55-32.28c0.07 0.94 0.14 1.87 0.19 2.77 0.05 0.91 0.07 1.76 0.07 2.55v29.05h-11.08v-54.19h6.62c0.54 0 1 0.02 1.37 0.07z"/>
    <rect width="21.01" height="173.94" x="548.28" y="38.3" transform="matrix(-0.8011,-0.5985,0.5985,-0.8011,931.4561,560.063)"/>
    <rect width="21.02" height="83.79" x="482.28" y="95.42" transform="matrix(-0.8951,-0.4459,0.4459,-0.8951,872.6479,479.9468)"/>
    <rect width="21.02" height="131.73" x="446.23" y="31.7" transform="matrix(-0.9603,-0.2789,0.2789,-0.9603,868.1332,318.6415)"/>
    <polygon points="398.88 69.06 419.79 71.22 411.17 154.54 390.27 152.37 "/>
    <polygon points="365.66 58.54 372.83 152.12 351.88 153.73 344.71 60.15 "/>
    <polygon points="318.41 94.45 334.67 156.59 314.35 161.91 298.08 99.77 "/>
    <rect width="43.06" height="21" x="257.78" y="142.2" transform="matrix(-0.4219,-0.9066,0.9066,-0.4219,258.7092,470.3715)"/>
    <polygon points="254.04 171.61 263.77 185.41 246.61 197.53 236.88 183.73 "/>
    <polygon points="184.03 160.43 233.31 208.81 218.59 223.81 169.31 175.43 "/>
    <polygon points="131.27 185 207.52 237.29 195.71 254.67 119.46 202.38 "/>
    <polygon points="139.21 248.62 187.23 269.91 178.71 289.11 130.69 267.83 "/>
    <polygon points="173.09 305.63 30.87 271.17 25.92 291.59 168.15 326.05 "/>
    <rect width="106.29" height="21.02" x="58.76" y="340.18" transform="matrix(-0.9983,-0.0581,0.0581,-0.9983,203.2386,707.2844)"/>
    <rect width="21.01" height="103.61" x="104.2" y="346.6" transform="matrix(-0.1209,-0.9927,0.9927,-0.1209,-266.9215,560.4273)"/>
    <rect width="21.01" height="24.09" x="152.14" y="421.2" transform="matrix(-0.2964,-0.9551,0.9551,-0.2964,-202.9227,716.9961)"/>
    <rect width="21.01" height="87.17" x="139.56" y="441.69" transform="matrix(-0.462,-0.8869,0.8869,-0.462,-210.9859,842.5552)"/>
    <rect width="21.01" height="93.98" x="161.79" y="479.27" transform="matrix(-0.613,-0.7901,0.7901,-0.613,-137.877,984.9857)"/>
    <rect width="21.01" height="91.6" x="194.5" y="513.83" transform="matrix(-0.7443,-0.6678,0.6678,-0.7443,-16.135,1113.0884)"/>
    <rect width="21.02" height="42.29" x="244.69" y="545.39" transform="matrix(-0.8516,-0.5242,0.5242,-0.8516,175.5432,1182.771)"/>
    <polygon points="290.86 561.83 310.43 569.48 280.48 646.16 260.91 638.52 "/>
    <rect width="21.01" height="75.55" x="319.77" y="575.69" transform="matrix(-0.9815,-0.1916,0.1916,-0.9815,536.8724,1278.8501)"/>
    <polygon points="365.14 580.2 386.15 580.48 385.46 633.03 364.45 632.75 "/>
    <polygon points="424.27 575.68 441.08 675.9 420.36 679.38 403.55 579.17 "/>
    <rect width="61.39" height="21.01" x="430.79" y="586.11" transform="matrix(-0.3389,-0.9408,0.9408,-0.3389,56.5687,1232.98)"/>
    <polygon points="571.14 676.27 494.92 546.3 476.74 556.83 552.95 686.82 "/>
    <polygon points="524.77 522.18 536.39 534.1 521.2 548.63 509.59 536.71 "/>
    <polygon points="550.74 493.95 603.13 536.88 589.8 553.13 537.42 510.2 "/>
    <polygon points="570.76 461.16 624.27 490.87 614.07 509.25 560.56 479.53 "/>
    <polygon points="584.6 425.32 610.44 434.1 603.69 454 577.84 445.22 "/>
    <rect width="81.88" height="21.01" x="589.82" y="393.54" transform="matrix(-0.9891,-0.1474,0.1474,-0.9891,1195.0798,896.6478)"/>
    <polygon points="644.15 347.54 644.82 368.54 592.86 370.18 592.19 349.18 "/>
    <rect width="21.01" height="65.72" x="609.49" y="281.84" transform="matrix(-0.2096,-0.9778,0.9778,-0.2096,442.226,986.8811)"/>
    <polygon points="614 258.15 622 277.57 580.55 294.65 572.55 275.22 "/>
    <polygon points="662.89 171.69 674.23 189.38 564.5 259.75 553.16 242.05 "/>
    <polygon points="544.74 197.45 559.05 212.82 542.48 228.26 528.17 212.89 "/>
    <path d="m362.43 350.36c-1.68-1.94-3.74-3.42-6.17-4.46-2.43-1.04-5.2-1.56-8.3-1.56h-10.85v44.98h10.85c3.1 0 5.87-0.52 8.31-1.56 2.43-1.04 4.49-2.53 6.17-4.46 1.68-1.93 2.97-4.3 3.86-7.08 0.9-2.78 1.35-5.92 1.35-9.41 0-3.46-0.45-6.58-1.34-9.36-0.91-2.79-2.2-5.15-3.88-7.09z"/>
    <path d="m510.7 370.53-0.47-15.4-46.67 1.43 45.67-9.73-3.21-15.06-45.69 9.74 43.22-17.73-5.85-14.25-43.17 17.72 39.32-25.14-8.3-12.98-39.36 25.16 34.24-31.78-10.48-11.29-34.23 31.78 28.01-37.37-12.33-9.24-28.01 37.37 20.89-41.77-13.77-6.89-20.89 41.77 13.1-44.83-14.78-4.32-13.1 44.83 4.89-46.44-15.32-1.61-5.06 48.08-3.77-48.2-15.35 1.2 3.64 46.54-11.89-45.14-14.9 3.92 11.9 45.17-19.76-42.32-13.95 6.52 19.76 42.31-27.03-38.11-12.57 8.9 27.01 38.12-33.37-32.69-10.78 11 33.35 32.67-38.65-26.2-8.64 12.75 38.67 26.21-42.72-18.88-6.23 14.09 42.72 18.88-45.4-10.95-3.61 14.97 45.39 10.95-46.61-2.68-0.88 15.38 46.64 2.68-46.36 5.69 1.88 15.29 46.37-5.69-44.61 13.87 4.57 14.71 44.59-13.87-41.4 21.6 7.13 13.66 41.4-21.6-36.88 28.64 9.45 12.16 36.88-28.64-31.18 34.77 11.47 10.28 31.17-34.76-24.47 39.77 13.12 8.07 24.48-39.78-16.99 43.51 14.35 5.6 16.99-43.51-8.95 45.85 15.12 2.95 8.95-45.82-0.62 46.69 15.4 0.21 0.62-46.72 7.73 46.08 15.19-2.55-7.72-46.05 15.81 43.93 14.49-5.22-15.81-43.94 23.4 40.42 13.33-7.72-23.4-40.4 30.23 35.58 11.74-9.97-30.24-35.59 36.1 29.62 9.77-11.91-36.12-29.64 40.84 22.72 7.49-13.46-40.8-22.7 44.19 15.05 4.97-14.58-44.22-15.06 46.2 6.93 2.29-15.23-46.21-6.93 46.65-1.45zm-129.07 10.26c-1.74 4.27-4.2 7.97-7.37 11.09-3.17 3.12-6.98 5.55-11.45 7.3-4.46 1.75-9.42 2.62-14.85 2.62h-27.17v-69.94h27.17c5.44 0 10.39 0.88 14.86 2.64 4.47 1.76 8.28 4.19 11.45 7.3 3.17 3.11 5.62 6.79 7.37 11.06 1.75 4.27 2.62 8.92 2.62 13.94-0.02 5.06-0.89 9.72-2.63 13.99zm55.41-36.45h-28.7v16.32h21.98v12h-21.98v16.66h28.7v12.48h-45.02v-69.94h45.02v12.48z"/>
    <path d="m816.8 505.15c0 3.97-0.63 7.59-1.89 10.84-1.26 3.26-3.03 6.04-5.33 8.36-2.29 2.32-5.04 4.11-8.25 5.38-3.21 1.27-6.76 1.91-10.65 1.91h-19.83v-53.02h19.83c3.9 0 7.45 0.64 10.66 1.91 3.21 1.27 5.96 3.07 8.25 5.4 2.29 2.33 4.07 5.12 5.33 8.38 1.26 3.26 1.88 6.87 1.88 10.84zm-7.37 0c0-3.26-0.44-6.17-1.33-8.73-0.89-2.56-2.15-4.74-3.77-6.51-1.63-1.77-3.6-3.13-5.92-4.07-2.32-0.94-4.9-1.4-7.73-1.4h-12.62v41.4h12.62c2.84 0 5.41-0.47 7.73-1.41 2.32-0.94 4.29-2.29 5.92-4.05 1.63-1.76 2.89-3.93 3.77-6.49 0.88-2.56 1.33-5.48 1.33-8.74z"/>
    <path d="m881.14 478.62v5.85h-25.46v17.61h20.61v5.62h-20.61v18.09h25.46v5.85h-32.67v-53.02h32.67z"/>
    <path d="m933.97 525.94c2.19 0 4.16-0.37 5.88-1.11 1.73-0.74 3.19-1.77 4.39-3.11 1.2-1.33 2.11-2.92 2.74-4.77 0.63-1.85 0.94-3.88 0.94-6.1v-32.23h7.14v32.23c0 3.06-0.49 5.9-1.46 8.51-0.97 2.62-2.37 4.88-4.18 6.79-1.81 1.91-4.03 3.41-6.64 4.5-2.61 1.09-5.55 1.63-8.81 1.63-3.26 0-6.19-0.54-8.81-1.63-2.62-1.09-4.83-2.58-6.66-4.49-1.82-1.91-3.22-4.17-4.2-6.79-0.97-2.61-1.46-5.45-1.46-8.51v-32.23h7.14v32.19c0 2.22 0.31 4.26 0.94 6.1 0.63 1.85 1.54 3.44 2.74 4.77 1.2 1.33 2.66 2.38 4.4 3.13 1.75 0.75 3.72 1.12 5.91 1.12z"/>
    <path d="m1025.4 478.62v6.03h-17.13v46.99h-7.18v-46.99h-17.2v-6.03h41.51z"/>
    <path d="m1082.01 486.91c-0.22 0.37-0.46 0.65-0.7 0.83-0.25 0.19-0.57 0.28-0.96 0.28-0.42 0-0.91-0.21-1.46-0.63-0.56-0.42-1.26-0.88-2.11-1.39-0.85-0.5-1.87-0.97-3.07-1.39-1.2-0.42-2.65-0.63-4.35-0.63-1.6 0-3.02 0.22-4.26 0.65-1.23 0.43-2.26 1.02-3.09 1.76-0.83 0.74-1.45 1.61-1.87 2.61-0.42 1-0.63 2.08-0.63 3.24 0 1.48 0.36 2.71 1.09 3.68 0.73 0.98 1.69 1.81 2.89 2.5 1.2 0.69 2.55 1.29 4.07 1.8 1.52 0.51 3.07 1.03 4.66 1.57 1.59 0.54 3.15 1.15 4.66 1.83 1.52 0.68 2.87 1.54 4.07 2.57 1.2 1.04 2.16 2.31 2.89 3.81 0.73 1.5 1.09 3.35 1.09 5.55 0 2.32-0.39 4.5-1.18 6.53-0.79 2.03-1.94 3.81-3.46 5.31-1.52 1.51-3.38 2.69-5.59 3.55-2.21 0.86-4.72 1.3-7.53 1.3-3.43 0-6.55-0.62-9.38-1.87-2.83-1.25-5.24-2.93-7.23-5.05l2.07-3.4c0.2-0.27 0.44-0.5 0.72-0.69 0.28-0.18 0.6-0.28 0.94-0.28 0.52 0 1.11 0.28 1.78 0.83 0.67 0.56 1.5 1.17 2.5 1.83 1 0.67 2.21 1.28 3.63 1.83 1.42 0.55 3.15 0.83 5.2 0.83 1.7 0 3.22-0.23 4.55-0.7 1.33-0.47 2.46-1.13 3.39-1.98 0.93-0.85 1.64-1.87 2.13-3.05 0.49-1.18 0.74-2.5 0.74-3.96 0-1.6-0.36-2.92-1.09-3.94-0.73-1.02-1.68-1.88-2.87-2.57-1.18-0.69-2.53-1.28-4.05-1.76-1.52-0.48-3.07-0.97-4.66-1.48-1.59-0.51-3.14-1.09-4.66-1.76-1.52-0.67-2.87-1.53-4.05-2.59-1.19-1.06-2.14-2.39-2.87-3.98-0.73-1.59-1.09-3.56-1.09-5.9 0-1.87 0.36-3.69 1.09-5.44 0.73-1.75 1.78-3.3 3.16-4.66 1.38-1.35 3.09-2.44 5.13-3.26 2.04-0.81 4.37-1.22 7.01-1.22 2.96 0 5.66 0.47 8.1 1.41 2.44 0.94 4.57 2.29 6.4 4.07l-1.75 3.41z"/>
    <path d="m1153.34 520.69c0.4 0 0.75 0.16 1.07 0.48l2.81 3.07c-2.17 2.52-4.8 4.48-7.9 5.88-3.1 1.41-6.83 2.11-11.19 2.11-3.82 0-7.29-0.66-10.4-1.98-3.11-1.32-5.76-3.17-7.95-5.55-2.19-2.38-3.9-5.23-5.11-8.56-1.21-3.33-1.81-6.99-1.81-10.99 0-4 0.65-7.66 1.94-10.99 1.29-3.33 3.11-6.19 5.46-8.58 2.35-2.39 5.15-4.25 8.42-5.57 3.27-1.32 6.88-1.98 10.82-1.98 3.9 0 7.26 0.61 10.08 1.81 2.82 1.21 5.33 2.85 7.53 4.92l-2.33 3.29c-0.17 0.25-0.37 0.45-0.59 0.61-0.22 0.16-0.54 0.24-0.96 0.24-0.32 0-0.66-0.12-1.02-0.35-0.36-0.23-0.78-0.52-1.28-0.87-0.49-0.34-1.07-0.71-1.74-1.11-0.67-0.39-1.46-0.76-2.37-1.11-0.91-0.35-1.97-0.63-3.18-0.87-1.21-0.24-2.6-0.35-4.18-0.35-2.84 0-5.43 0.49-7.79 1.46-2.36 0.98-4.38 2.36-6.09 4.16-1.7 1.8-3.03 4-3.98 6.59-0.95 2.59-1.43 5.49-1.43 8.7 0 3.31 0.48 6.25 1.43 8.84 0.95 2.59 2.24 4.78 3.89 6.57 1.64 1.79 3.58 3.15 5.83 4.09 2.24 0.94 4.66 1.41 7.25 1.41 1.58 0 3-0.09 4.25-0.28 1.25-0.19 2.42-0.48 3.5-0.87 1.07-0.39 2.07-0.89 3-1.5 0.92-0.6 1.86-1.33 2.79-2.16 0.43-0.37 0.84-0.56 1.23-0.56z"/>
    <path d="m1231.56 531.64h-7.21v-24.12h-28.56v24.12h-7.21v-53.02h7.22v23.64h28.56v-23.64h7.22v53.02z"/>
    <path d="m1273.59 525.61h22.94v6.03h-30.12v-53.02h7.18v46.99z"/>
    <path d="m1369.98 531.64h-5.55c-0.64 0-1.16-0.16-1.55-0.48-0.39-0.32-0.69-0.73-0.89-1.22l-4.96-12.8h-23.79l-4.96 12.8c-0.17 0.44-0.47 0.84-0.89 1.19-0.42 0.35-0.94 0.52-1.55 0.52h-5.55l21.2-53.02h7.29l21.2 53.01zm-34.74-19.68h19.8l-8.33-21.57c-0.54-1.33-1.07-3-1.59-4.99-0.27 1.01-0.54 1.94-0.8 2.79-0.26 0.85-0.51 1.6-0.76 2.24l-8.32 21.53z"/>
    <path d="m1403.7 478.86c0.31 0.16 0.66 0.49 1.06 0.98l30.71 39.96c-0.07-0.64-0.12-1.26-0.15-1.87-0.02-0.6-0.04-1.19-0.04-1.76v-37.56h6.29v53.02h-3.62c-0.57 0-1.04-0.1-1.43-0.3-0.38-0.2-0.76-0.53-1.13-1l-30.67-39.92c0.05 0.62 0.09 1.22 0.11 1.81 0.02 0.59 0.04 1.14 0.04 1.63v37.78h-6.29v-53.02h3.7c0.64 0.01 1.12 0.09 1.42 0.25z"/>
    <path d="m1522.38 505.15c0 3.97-0.63 7.59-1.89 10.84-1.26 3.26-3.03 6.04-5.33 8.36-2.3 2.32-5.04 4.11-8.25 5.38-3.2 1.27-6.76 1.91-10.65 1.91h-19.83v-53.02h19.83c3.9 0 7.45 0.64 10.65 1.91 3.21 1.27 5.96 3.07 8.25 5.4 2.3 2.33 4.07 5.12 5.33 8.38 1.26 3.26 1.89 6.87 1.89 10.84zm-7.36 0c0-3.26-0.44-6.17-1.33-8.73-0.89-2.56-2.15-4.74-3.77-6.51-1.63-1.77-3.6-3.13-5.92-4.07-2.32-0.94-4.9-1.4-7.73-1.4h-12.62v41.4h12.62c2.84 0 5.41-0.47 7.73-1.41 2.32-0.94 4.29-2.29 5.92-4.05 1.63-1.76 2.89-3.93 3.77-6.49 0.88-2.57 1.33-5.48 1.33-8.74z"/>
  </g>
</svg>